<?xml version="1.0" encoding="UTF-8" standalone="no"?>
<!-- Created with Inkscape (http://www.inkscape.org/) -->

<svg
   xmlns:dc="http://purl.org/dc/elements/1.1/"
   xmlns:cc="http://creativecommons.org/ns#"
   xmlns:rdf="http://www.w3.org/1999/02/22-rdf-syntax-ns#"
   xmlns:svg="http://www.w3.org/2000/svg"
   xmlns="http://www.w3.org/2000/svg"
   xmlns:sodipodi="http://sodipodi.sourceforge.net/DTD/sodipodi-0.dtd"
   xmlns:inkscape="http://www.inkscape.org/namespaces/inkscape"
   width="5cm"
   height="4.5679998cm"
   viewBox="0 0 177.16535 161.85826"
   id="svg2"
   version="1.1"
   inkscape:version="0.91 r13725"
   sodipodi:docname="Logo_fjfi.svg">
  <defs
     id="defs4" />
  <sodipodi:namedview
     id="base"
     pagecolor="#ffffff"
     bordercolor="#666666"
     borderopacity="1.0"
     inkscape:pageopacity="0.0"
     inkscape:pageshadow="2"
     inkscape:zoom="1.4"
     inkscape:cx="162.09164"
     inkscape:cy="169.14348"
     inkscape:document-units="px"
     inkscape:current-layer="layer1"
     showgrid="false"
     units="cm"
     inkscape:window-width="1920"
     inkscape:window-height="1017"
     inkscape:window-x="-8"
     inkscape:window-y="-8"
     inkscape:window-maximized="1" />
  <metadata
     id="metadata7">
    <rdf:RDF>
      <cc:Work
         rdf:about="">
        <dc:format>image/svg+xml</dc:format>
        <dc:type
           rdf:resource="http://purl.org/dc/dcmitype/StillImage" />
        <dc:title></dc:title>
      </cc:Work>
    </rdf:RDF>
  </metadata>
  <g
     inkscape:label="Vrstva 1"
     inkscape:groupmode="layer"
     id="layer1"
     transform="translate(0,-890.50399)">
    <g
       transform="matrix(0.24217789,0,0,-0.24217789,-47.019689,1069.5926)"
       inkscape:label="FJFI_logo_cerne"
       id="g4144">
      <path
         inkscape:connector-curvature="0"
         id="path4146"
         style="fill:#292827;fill-opacity:1;fill-rule:evenodd;stroke:none"
         d="m 320.904,496.872 3.168,-5.112 c -2.088,-1.296 -4.176,-2.592 -6.192,-3.816 l -3.24,5.04 c 2.016,1.296 4.104,2.592 6.264,3.888 z m 9.432,-1.368 -3.168,5.112 c 30.024,17.856 64.224,33.84 93.744,39.816 0,-0.144 0,-0.288 0,-0.432 0,-1.728 -0.144,-3.6 -0.288,-5.472 -7.056,-1.44 -14.112,-3.6 -20.736,-5.76 -23.4,-8.352 -47.304,-20.088 -69.552,-33.264 z M 454.968,413.28 c -5.256,0 -49.68,16.128 -61.776,19.728 -70.992,19.296 -119.808,47.736 -113.256,68.472 4.536,14.256 34.56,21.744 77.112,21.6 -3.816,-1.944 -7.632,-3.888 -11.448,-5.904 -2.52,-0.072 -5.112,-0.144 -7.632,-0.216 -15.624,-1.152 -32.4,-2.808 -46.44,-10.44 -8.352,-5.832 -7.776,-10.656 -2.088,-18.432 12.456,-13.824 30.6,-22.248 47.16,-29.808 18.792,-7.848 38.304,-14.472 57.96,-19.8 23.544,-6.336 38.952,-8.064 60.408,-8.064 3.96,0 7.2,-2.592 8.208,-6.192 0,0 0,0 0.072,0 l 0,-0.144 c 0.144,-0.72 0.216,-1.512 0.216,-2.304 0,-0.72 -0.072,-1.512 -0.216,-2.232 0,-3.24 -5.112,-6.264 -8.28,-6.264 z m -29.52,167.328 5.688,0 c -0.288,3.528 -0.576,6.912 -0.864,10.296 l -5.616,0 c 0.288,-3.456 0.576,-6.84 0.792,-10.296 z M 414.72,439.128 c -1.872,0.432 -3.744,0.792 -5.688,1.224 0.36,0.864 0.72,1.8 1.152,2.736 11.736,31.752 15.48,66.096 16.416,99.792 0,9.792 -0.144,19.8 -0.648,29.808 l 5.688,0 c 0.432,-7.272 0.72,-14.832 0.72,-22.392 0,-44.28 -6.84,-84.024 -17.64,-111.168 z M 423,614.52 c 4.968,-0.432 9.792,2.304 10.368,8.856 0.072,9.072 -23.112,48.24 -27.864,56.376 -7.056,11.448 -15.624,18.288 -24.48,18.288 -28.224,0 -51.264,-66.384 -51.264,-147.744 0,-7.704 0.144,-15.264 0.576,-22.608 1.872,0.144 3.744,0.288 5.616,0.36 -1.44,41.544 0.648,85.104 14.256,124.776 4.608,12.528 16.344,43.128 34.488,38.952 6.768,-2.376 11.736,-8.28 15.696,-14.472 1.512,-2.304 2.952,-4.824 4.248,-7.128 9.576,-20.808 9.72,-28.296 9.72,-47.16 0,-4.752 3.888,-8.496 8.64,-8.496 z M 371.736,411.696 c -1.584,-1.152 -3.24,-2.376 -4.896,-3.528 4.536,-3.672 9.216,-5.616 14.184,-5.616 9.504,0 18.504,7.56 26.208,20.808 -2.016,0.432 -4.032,0.792 -6.048,1.224 -2.88,-4.608 -6.336,-8.928 -10.728,-12.816 l -2.016,-1.296 -1.944,-1.008 c -5.688,-2.088 -10.584,-0.72 -14.76,2.232 z m -25.776,30.528 c 2.448,-0.936 4.896,-1.872 7.344,-2.736 1.8,-4.392 3.816,-8.568 6.12,-12.672 0.36,-0.72 0.792,-1.44 1.224,-2.16 -1.584,-1.152 -3.096,-2.232 -4.68,-3.384 -3.672,5.832 -6.984,12.888 -10.008,20.952 z m 0.072,18.36 c -2.232,0.864 -4.392,1.8 -6.552,2.736 -2.16,8.568 -4.032,17.784 -5.472,27.648 1.728,1.08 3.528,2.088 5.328,3.096 1.512,-11.304 3.672,-22.608 6.696,-33.48 z m 83.664,136.08 -5.616,0 c -0.288,2.376 -0.576,4.752 -0.864,7.128 l 5.616,0 c 0.288,-2.376 0.576,-4.68 0.864,-7.128 z M 853.776,392.04 c -53.928,6.264 -103.824,38.88 -144.648,112.824 -39.6,71.712 -68.112,110.16 -87.984,112.464 -16.128,1.872 -35.064,-59.904 -69.048,-194.4 l -11.592,0 c 17.136,129.744 39.024,216 68.04,303.264 2.592,8.064 6.768,13.32 11.16,13.32 6.768,0 10.872,-5.4 14.328,-13.32 32.472,-71.928 62.352,-146.88 95.112,-221.328 17.64,-39.888 75.456,-108.432 124.344,-109.008 l 0.288,-3.816 z m -317.808,-1.584 2.592,18.864 10.44,0 -4.752,-19.008 -8.28,0.144 z m -196.56,103.824 -0.288,0 c 0,0 0,-0.072 0.072,-0.072 l 0.216,0.072 z m -55.584,-36.792 c 3.096,3.168 3.096,9 0,12.096 -3.312,3.312 -8.856,3.096 -12.096,0 -11.52,-11.088 -28.08,-30.24 -41.472,-44.064 -31.248,-32.4 -44.568,-60.48 -30.528,-71.568 20.304,-16.2 90.432,8.424 158.688,55.08 -0.072,0 -0.144,0.072 -0.144,0.072 4.896,3.528 23.184,16.632 27.432,20.016 -2.16,0.576 -4.464,1.152 -6.624,1.872 -3.456,-2.592 -21.024,-15.12 -24.48,-17.568 0.072,0 0.072,0 0.072,0 -7.848,-5.4 -15.84,-10.512 -23.832,-15.264 -26.28,-15.912 -54.432,-30.024 -83.952,-38.736 -12.168,-3.168 -28.08,-7.272 -40.32,-2.88 l -1.8,0.864 -1.512,1.008 c -9.504,8.856 3.672,28.8 8.856,36.72 6.768,9.576 14.544,18.504 22.752,26.928 14.616,15.192 40.464,26.784 48.96,35.424 z m 154.152,84.888 c 8.424,0.144 15.12,-1.44 19.512,-4.896 13.608,-10.872 1.584,-37.656 -27.792,-68.832 0.792,3.672 1.584,7.272 2.232,10.944 9.864,11.16 19.08,23.472 24.048,37.368 2.664,9.144 2.16,15.264 -7.344,18.648 -3.6,0.648 -7.2,0.936 -10.8,0.936 0.072,1.944 0.144,3.888 0.144,5.832 z m -42.552,-98.208 c 2.232,-0.576 4.464,-1.152 6.696,-1.728 0.864,0.72 3.096,3.024 3.96,3.744 1.368,3.744 1.584,5.76 2.736,9.504 -4.32,-3.96 -8.928,-7.704 -13.392,-11.52 z m -85.608,45.648 3.168,-4.968 c -2.088,-1.368 -4.248,-2.808 -6.336,-4.176 -0.072,0 -0.072,0 -0.144,0 l -3.096,4.896 c 2.088,1.368 4.248,2.808 6.408,4.248 z M 667.944,355.32 c 17.928,0 32.544,14.616 32.544,32.544 0,17.928 -14.616,32.544 -32.544,32.544 -17.928,0 -32.544,-14.616 -32.544,-32.544 0,-17.928 14.616,-32.544 32.544,-32.544 z M 382.392,463.896 c 8.856,0 16.128,7.272 16.128,16.2 0,8.856 -7.272,16.128 -16.128,16.128 -8.928,0 -16.2,-7.272 -16.2,-16.128 0,-8.928 7.272,-16.2 16.2,-16.2 z m 7.848,-75.312 c 16.776,-101.016 27.36,-226.008 58.536,-227.16 21.6,-0.864 32.04,40.32 44.784,69.912 l 14.76,0 C 489.96,175.68 470.952,76.176 445.032,71.28 c -9.864,-1.872 -18.144,16.056 -28.872,56.376 -9,34.2 -20.16,133.488 -25.92,260.928 z m 88.416,-147.24 -0.072,145.224 127.152,0 0,-58.968 -62.784,0 0,-11.592 28.368,0 0,-57.672 -32.04,0.216 0,-17.208 -60.624,0 z m 5.616,139.536 115.776,0 0,-47.592 -62.784,0 0,-22.968 28.368,0 0,-46.224 -32.04,0.216 0,-17.28 -49.248,0 -0.072,133.848 z m 217.872,-17.64 -5.544,-5.544 -0.144,-55.872 c -4.392,-25.632 -22.896,-43.632 -47.088,-51.696 -2.952,-0.864 -6.264,-1.728 -9.36,-2.232 -15.12,-2.304 -30.24,0 -44.208,6.192 l -5.4,2.664 c -1.584,0.936 -3.816,2.304 -5.4,3.312 l 21.312,49.104 c 10.656,-2.952 24.984,-6.984 32.328,4.32 1.584,2.952 2.376,5.688 2.808,9 l 0.216,35.208 -5.904,5.4 0,-40.176 c -0.72,-8.568 -6.48,-11.736 -12.456,-11.304 -7.416,0.72 -13.752,2.16 -20.16,4.752 l -25.2,-58.392 c 14.472,-10.44 30.456,-16.056 48.672,-16.776 39.096,-0.648 71.352,27.864 75.528,60.12 l 0,61.92 z m 15.552,-121.896 -0.072,145.224 127.152,0 0,-58.968 -62.784,0 0,-11.592 28.368,0 0,-57.672 -32.04,0.216 0,-17.208 -60.624,0 z m 5.616,139.536 115.776,0 0,-47.592 -62.784,0 0,-22.968 28.368,0 0,-46.224 -32.04,0.216 0,-17.28 -49.248,0 -0.072,133.848 z m 169.272,-25.56 c 17.928,0 32.544,14.616 32.544,32.544 0,17.928 -14.616,32.544 -32.544,32.544 -17.928,0 -32.544,-14.616 -32.544,-32.544 0,-17.928 14.616,-32.544 32.544,-32.544 z m -27.72,2.088 0,-110.376 55.152,0 0,110.376 5.688,5.688 0,-121.752 -66.528,0 0,121.752 5.688,-5.688 z m -363.888,56.88 0,5.76 c -3.096,0.216 -6.192,0.504 -9.288,0.792 l 0,-5.76 c 3.096,-0.288 6.264,-0.576 9.288,-0.792 z m 68.616,53.568 c 0.504,1.872 1.008,3.816 1.512,5.688 24.552,-13.392 37.872,-27.216 34.272,-38.664 C 599.904,417.96 559.44,410.616 505.008,414 l 0,5.832 c 16.056,-0.936 32.112,-1.008 48.168,0.072 13.752,1.44 28.296,3.096 40.536,9.936 4.752,3.384 7.704,6.48 5.832,12.456 -4.896,10.296 -16.128,17.352 -25.416,23.112 -1.512,0.792 -3.024,1.656 -4.536,2.448 z m -106.416,36.72 c 0.936,1.8 1.728,3.6 2.448,5.472 29.592,-6.552 56.448,-14.904 78.624,-23.904 -0.288,-1.944 -0.648,-3.888 -0.936,-5.832 -20.52,8.64 -41.976,15.12 -63.432,20.52 -5.544,1.296 -11.088,2.52 -16.704,3.744 z m -17.424,3.6 c 0.72,1.224 1.368,2.448 1.944,3.672 0.216,0.504 0.504,1.08 0.792,1.728 -4.032,0.72 -7.992,1.44 -11.88,2.088 -0.144,-1.872 -0.36,-3.816 -0.504,-5.688 3.168,-0.576 6.408,-1.224 9.648,-1.8 z m -50.328,12.888 c -4.032,-1.512 -7.992,-3.096 -11.808,-4.752 11.808,-0.792 23.616,-2.016 35.424,-3.672 0.216,1.872 0.36,3.816 0.504,5.688 -8.28,1.08 -16.272,2.016 -24.12,2.736 z m 90.936,-105.48 0,5.76 c -3.24,0.288 -6.48,0.648 -9.72,1.08 l 0,-5.76 c 3.24,-0.432 6.552,-0.792 9.72,-1.08" />
    </g>
  </g>
</svg>
