<?xml version="1.0" encoding="UTF-8" standalone="no"?>
<!-- Created with Inkscape (http://www.inkscape.org/) -->

<svg
   xmlns:dc="http://purl.org/dc/elements/1.1/"
   xmlns:cc="http://creativecommons.org/ns#"
   xmlns:rdf="http://www.w3.org/1999/02/22-rdf-syntax-ns#"
   xmlns:svg="http://www.w3.org/2000/svg"
   xmlns="http://www.w3.org/2000/svg"
   xmlns:sodipodi="http://sodipodi.sourceforge.net/DTD/sodipodi-0.dtd"
   xmlns:inkscape="http://www.inkscape.org/namespaces/inkscape"
   width="5cm"
   height="4.5700002cm"
   viewBox="0 0 177.16535 161.92914"
   id="svg2"
   version="1.1"
   inkscape:version="0.91 r13725"
   sodipodi:docname="Logo_fjfi_col.svg">
  <defs
     id="defs4" />
  <sodipodi:namedview
     id="base"
     pagecolor="#ffffff"
     bordercolor="#666666"
     borderopacity="1.0"
     inkscape:pageopacity="0.0"
     inkscape:pageshadow="2"
     inkscape:zoom="1.6537528"
     inkscape:cx="178.13244"
     inkscape:cy="154.10553"
     inkscape:document-units="px"
     inkscape:current-layer="layer1"
     showgrid="false"
     units="cm"
     inkscape:window-width="1920"
     inkscape:window-height="1017"
     inkscape:window-x="1912"
     inkscape:window-y="-8"
     inkscape:window-maximized="1" />
  <metadata
     id="metadata7">
    <rdf:RDF>
      <cc:Work
         rdf:about="">
        <dc:format>image/svg+xml</dc:format>
        <dc:type
           rdf:resource="http://purl.org/dc/dcmitype/StillImage" />
        <dc:title></dc:title>
      </cc:Work>
    </rdf:RDF>
  </metadata>
  <g
     inkscape:label="Vrstva 1"
     inkscape:groupmode="layer"
     id="layer1"
     transform="translate(0,-890.43312)">
    <path
       d="m 30.696165,949.26119 0.767219,1.23801 c -0.505667,0.31386 -1.011335,0.62773 -1.499565,0.92415 l -0.784657,-1.22057 c 0.488231,-0.31387 0.993898,-0.62773 1.517003,-0.94159 z m 2.284221,0.3313 -0.767219,-1.23802 c 7.271149,-4.32432 15.553633,-8.1953 22.702724,-9.64255 0,0.0349 0,0.0697 0,0.10462 0,0.41848 -0.03487,0.87184 -0.06975,1.3252 -1.708807,0.34873 -3.417615,0.87184 -5.021801,1.39494 -5.666963,2.02267 -11.455983,4.86487 -16.843957,8.05581 z m 30.183115,19.91283 c -1.272887,0 -12.031397,-3.90584 -14.960781,-4.77768 -17.192693,-4.67307 -29.014849,-11.56061 -27.428099,-16.58241 1.098519,-3.45249 8.369668,-5.26591 18.674821,-5.23104 -0.924151,0.47079 -1.848301,0.94159 -2.772452,1.42982 -0.610288,0.0174 -1.238014,0.0349 -1.848302,0.0523 -3.783787,0.27899 -7.846564,0.68003 -11.246741,2.52834 -2.02267,1.41238 -1.883175,2.58064 -0.505668,4.46382 3.016568,3.34787 7.410644,5.38797 11.42111,7.21884 4.551007,1.90061 9.276382,3.50479 14.03663,4.79512 5.701837,1.53444 9.433313,1.95292 14.629482,1.95292 0.959025,0 1.743681,0.62773 1.987796,1.49957 0,0 0,0 0.01744,0 l 0,0.0349 c 0.03487,0.17437 0.05231,0.36617 0.05231,0.55798 0,0.17437 -0.01744,0.36617 -0.05231,0.54054 0,0.78466 -1.238013,1.517 -2.005233,1.517 z m -7.149091,-40.52314 1.377508,0 c -0.06975,-0.8544 -0.139495,-1.67393 -0.209242,-2.49346 l -1.360071,0 c 0.06975,0.83696 0.139495,1.65649 0.191805,2.49346 z m -2.598084,34.26333 c -0.453357,-0.10462 -0.906714,-0.19181 -1.377508,-0.29643 0.08718,-0.20924 0.174368,-0.43592 0.278989,-0.6626 2.842199,-7.68963 3.748913,-16.00699 3.975592,-24.16741 0,-2.37141 -0.03487,-4.79513 -0.156931,-7.21884 l 1.377507,0 c 0.104621,1.76112 0.174369,3.59198 0.174369,5.42285 0,10.72363 -1.656497,20.34875 -4.272018,26.92243 z m 2.005232,-42.47607 c 1.20314,0.10462 2.371406,-0.55797 2.510901,-2.14472 0.01744,-2.19704 -5.597216,-11.68267 -6.748045,-13.65303 -1.708807,-2.77245 -3.783787,-4.42894 -5.928515,-4.42894 -6.835228,0 -12.415007,16.07673 -12.415007,35.78033 0,1.86573 0.03487,3.6966 0.139494,5.47515 0.453357,-0.0349 0.906714,-0.0697 1.360072,-0.0872 -0.348737,-10.06104 0.156931,-20.61031 3.452488,-30.21799 1.115955,-3.034 3.958155,-10.44465 8.352231,-9.43331 1.63906,0.57541 2.842199,2.00523 3.801224,3.5048 0.366173,0.55797 0.714909,1.16826 1.028771,1.72624 2.319096,5.03924 2.35397,6.85267 2.35397,11.42111 0,1.15083 0.941587,2.05754 2.092416,2.05754 z m -12.415007,49.11949 c -0.38361,0.27899 -0.784656,0.57542 -1.185703,0.8544 1.098519,0.88928 2.231912,1.36008 3.435051,1.36008 2.301659,0 4.48126,-1.83087 6.346999,-5.03924 -0.488231,-0.10462 -0.976462,-0.19181 -1.464692,-0.29643 -0.697473,1.11596 -1.534439,2.16217 -2.598085,3.10375 l -0.48823,0.31387 -0.470794,0.24411 c -1.377508,0.50567 -2.563211,0.17437 -3.574546,-0.54054 z m -6.242377,-7.39321 c 0.592851,0.22668 1.185703,0.45336 1.778554,0.6626 0.43592,1.06365 0.924151,2.07498 1.482129,3.06888 0.08718,0.17437 0.191805,0.34874 0.296426,0.52311 -0.38361,0.27898 -0.749783,0.54054 -1.133393,0.81953 -0.889277,-1.41239 -1.69137,-3.12119 -2.423716,-5.07412 z m 0.01744,-4.44638 c -0.540541,-0.20924 -1.063646,-0.43592 -1.58675,-0.6626 -0.523104,-2.07498 -0.976461,-4.30689 -1.325197,-6.69573 0.418483,-0.26156 0.854403,-0.50567 1.290323,-0.74979 0.366173,2.73758 0.889278,5.47516 1.621624,8.10812 z m 20.261571,-32.95557 -1.360071,0 c -0.06975,-0.57541 -0.139495,-1.15083 -0.209242,-1.72624 l 1.360071,0 c 0.06975,0.57541 0.139494,1.13339 0.209242,1.72624 z m 102.702798,49.55541 c -13.06017,-1.517 -25.14388,-9.41588 -35.03055,-27.32348 -9.59024,-17.36706 -16.49522,-26.67831 -21.30778,-27.23629 -3.905841,-0.45336 -8.491721,14.50742 -16.721895,47.07938 l -2.807326,0 c 4.149961,-31.42113 9.45075,-52.31042 16.477781,-73.44384 0.62773,-1.95292 1.63906,-3.22581 2.70271,-3.22581 1.63906,0 2.63296,1.30776 3.46992,3.22581 7.864,17.41937 15.10028,35.57109 23.03403,53.60075 4.27201,9.65999 18.27377,26.25983 30.11336,26.39933 l 0.0697,0.92415 z m -76.96607,0.38361 0.627725,-4.56844 2.528338,0 -1.15083,4.60331 -2.005233,-0.0349 z m -47.602486,-25.14388 -0.06975,0 c 0,0 0,0.0174 0.01744,0.0174 l 0.05231,-0.0174 z m -13.461216,8.91021 c 0.749783,-0.76722 0.749783,-2.1796 0,-2.92938 -0.802093,-0.8021 -2.144727,-0.74979 -2.929383,0 -2.78989,2.68527 -6.800355,7.32346 -10.0436018,10.67132 -7.5675747,7.84657 -10.7933842,14.64692 -7.3932066,17.33219 4.9171799,3.92328 21.9006314,-2.04011 38.4307254,-13.33916 -0.01744,0 -0.03487,-0.0174 -0.03487,-0.0174 1.185703,-0.85441 5.614652,-4.02791 6.643424,-4.84744 -0.523104,-0.13949 -1.081082,-0.27899 -1.604186,-0.45335 -0.836967,0.62772 -5.091548,3.66173 -5.928515,4.25458 0.01744,0 0.01744,0 0.01744,0 -1.900612,1.30776 -3.836098,2.54577 -5.771584,3.6966 -6.364435,3.85354 -13.182227,7.27115 -20.331318,9.381 -2.9468207,0.76722 -6.8003552,1.76112 -9.7646126,0.69748 l -0.4359202,-0.20925 -0.366173,-0.24411 c -2.30165866,-2.14473 0.8892772,-6.97472 2.1447274,-8.89277 1.63906,-2.3191 3.5222352,-4.48126 5.5100314,-6.52137 3.539672,-3.67917 9.799486,-6.48649 11.857029,-8.57891 z m 37.332207,-20.558 c 2.040106,-0.0349 3.661729,0.34874 4.725375,1.18571 3.295556,2.63296 0.383609,9.11945 -6.730608,16.66959 0.191805,-0.88928 0.383609,-1.76112 0.540541,-2.6504 2.388842,-2.7027 4.620754,-5.6844 5.823894,-9.0497 0.645161,-2.21448 0.523104,-3.69661 -1.778555,-4.51614 -0.87184,-0.15693 -1.743681,-0.22667 -2.615521,-0.22667 0.01744,-0.4708 0.03487,-0.94159 0.03487,-1.41239 z m -10.305154,23.78381 c 0.540541,0.1395 1.081082,0.27899 1.621623,0.41848 0.209242,-0.17436 0.749783,-0.73234 0.959025,-0.90671 0.331299,-0.90671 0.383609,-1.39494 0.662598,-2.30166 -1.046208,0.95903 -2.162164,1.86574 -3.243246,2.78989 z m -20.732365,-11.05494 0.76722,1.20314 c -0.505668,0.3313 -1.028772,0.68004 -1.534439,1.01134 -0.01744,0 -0.01744,0 -0.03487,0 l -0.749783,-1.1857 c 0.505668,-0.3313 1.028772,-0.68004 1.551876,-1.02878 z m 86.730684,32.57196 c 4.34176,0 7.88144,-3.53967 7.88144,-7.88144 0,-4.34176 -3.53968,-7.88143 -7.88144,-7.88143 -4.34177,0 -7.88144,3.53967 -7.88144,7.88143 0,4.34177 3.53967,7.88144 7.88144,7.88144 z m -69.154381,-26.2947 c 2.144727,0 3.905845,-1.76112 3.905845,-3.92329 0,-2.14472 -1.761118,-3.90584 -3.905845,-3.90584 -2.162164,0 -3.923282,1.76112 -3.923282,3.90584 0,2.16217 1.761118,3.92329 3.923282,3.92329 z m 1.900612,18.2389 c 4.062776,24.46384 6.625987,54.73415 14.176125,55.01315 5.231042,0.2092 7.759379,-9.7646 10.845694,-16.9312 l 3.574546,0 c -4.446386,13.4787 -9.049703,37.5764 -15.326954,38.7621 -2.388843,0.4533 -4.394076,-3.8884 -6.99216,-13.6531 -2.179601,-8.2824 -4.882307,-32.3278 -6.277251,-63.19095 z m 21.4124,35.65825 -0.01744,-35.17002 30.793403,0 0,14.28074 -15.204896,0 0,2.80733 6.870102,0 0,13.96685 -7.759379,-0.052 0,4.1674 -14.681793,0 z m 1.360071,-33.79251 28.038388,0 0,11.52573 -15.204897,0 0,5.56234 6.870102,0 0,11.19444 -7.759379,-0.052 0,4.1848 -11.926777,0 -0.01744,-32.41501 z m 52.763778,4.27201 -1.34263,1.34264 -0.0349,13.53096 c -1.06365,6.2075 -5.54491,10.5667 -11.40368,12.5196 -0.71491,0.2093 -1.517,0.4185 -2.26678,0.5406 -3.66173,0.5579 -7.32346,0 -10.706202,-1.4996 l -1.307761,-0.6452 c -0.38361,-0.2266 -0.924151,-0.5579 -1.30776,-0.8021 l 5.161295,-11.89185 c 2.580648,0.71491 6.050568,1.69137 7.829128,-1.04621 0.38361,-0.71491 0.57541,-1.37751 0.68003,-2.1796 l 0.0523,-8.5266 -1.42981,-1.30776 0,9.72974 c -0.17437,2.07498 -1.56932,2.8422 -3.01657,2.73757 -1.79599,-0.17436 -3.33043,-0.5231 -4.882308,-1.15082 l -6.102883,14.14123 c 3.504799,2.5284 7.375771,3.8884 11.787281,4.0628 9.46819,0.1569 17.27988,-6.7481 18.29121,-14.55974 l 0,-14.99566 z m 3.76635,29.5205 -0.0174,-35.17002 30.7934,0 0,14.28074 -15.2049,0 0,2.80733 6.87011,0 0,13.96685 -7.75938,-0.052 0,4.1674 -14.6818,0 z m 1.36007,-33.79251 28.03839,0 0,11.52573 -15.20489,0 0,5.56234 6.8701,0 0,11.19444 -7.75938,-0.052 0,4.1848 -11.92678,0 -0.0174,-32.41501 z m 40.99394,6.19006 c 4.34177,0 7.88144,-3.53967 7.88144,-7.88144 0,-4.34176 -3.53967,-7.88143 -7.88144,-7.88143 -4.34176,0 -7.88144,3.53967 -7.88144,7.88143 0,4.34177 3.53968,7.88144 7.88144,7.88144 z m -6.71317,-0.50567 0,26.73062 13.35659,0 0,-26.73062 1.37751,-1.3775 0,29.48562 -16.11161,0 0,-29.48562 1.37751,1.3775 z m -88.125628,-13.77507 0,-1.39495 c -0.749783,-0.0523 -1.499566,-0.12206 -2.249349,-0.1918 l 0,1.39494 c 0.749783,0.0697 1.517003,0.1395 2.249349,0.19181 z M 90.9229,956.28822 c 0.122057,-0.45336 0.244115,-0.92415 0.366173,-1.37751 5.945951,3.24325 9.171757,6.59112 8.29992,9.36357 -1.325197,4.09765 -11.124683,5.8762 -24.30691,5.05667 l 0,-1.41238 c 3.888408,0.22668 7.776816,0.24412 11.665224,-0.0174 3.330431,-0.34874 6.852666,-0.74979 9.816923,-2.40628 1.15083,-0.81953 1.865739,-1.56932 1.412382,-3.01657 -1.185703,-2.49347 -3.905845,-4.20227 -6.155193,-5.59722 -0.366173,-0.1918 -0.732346,-0.40104 -1.098519,-0.59285 z m -25.771603,-8.89277 c 0.226679,-0.43592 0.418484,-0.87184 0.592852,-1.3252 7.166528,1.58675 13.670457,3.60942 19.040994,5.78902 -0.06975,0.4708 -0.156931,0.94159 -0.226678,1.41238 -4.969491,-2.09241 -10.165659,-3.66173 -15.361828,-4.96949 -1.342634,-0.31386 -2.685269,-0.61029 -4.04534,-0.90671 z m -4.219707,-0.87184 c 0.174368,-0.29643 0.331299,-0.59285 0.470794,-0.88928 0.05231,-0.12206 0.122057,-0.26155 0.191805,-0.41848 -0.976462,-0.17437 -1.935486,-0.34874 -2.877074,-0.50567 -0.03487,0.45336 -0.08718,0.92415 -0.122057,1.37751 0.767219,0.13949 1.551875,0.29642 2.336532,0.43592 z m -12.188329,-3.12119 c -0.976461,0.36617 -1.935486,0.74978 -2.859637,1.15083 2.859637,0.1918 5.719274,0.48823 8.57891,0.88928 0.05231,-0.45336 0.08718,-0.92415 0.122058,-1.37751 -2.005233,-0.26155 -3.940719,-0.48823 -5.841331,-0.6626 z m 22.022689,25.54492 0,-1.39494 c -0.784657,-0.0697 -1.569313,-0.15693 -2.35397,-0.26155 l 0,1.39494 c 0.784657,0.10462 1.58675,0.19181 2.35397,0.26155"
       style="fill:#0065bd;fill-opacity:1;fill-rule:evenodd;stroke:none"
       id="path4146"
       inkscape:connector-curvature="0" />
  </g>
</svg>
