<?xml version="1.0" encoding="UTF-8" standalone="no"?>
<!-- Generator: Adobe Illustrator 15.0.0, SVG Export Plug-In . SVG Version: 6.00 Build 0)  -->

<svg
   xmlns:dc="http://purl.org/dc/elements/1.1/"
   xmlns:cc="http://creativecommons.org/ns#"
   xmlns:rdf="http://www.w3.org/1999/02/22-rdf-syntax-ns#"
   xmlns:svg="http://www.w3.org/2000/svg"
   xmlns="http://www.w3.org/2000/svg"
   xmlns:sodipodi="http://sodipodi.sourceforge.net/DTD/sodipodi-0.dtd"
   xmlns:inkscape="http://www.inkscape.org/namespaces/inkscape"
   version="1.1"
   id="Layer_1"
   x="0px"
   y="0px"
   width="5cm"
   height="3.8099999cm"
   viewBox="0 0 177.16536 135"
   enable-background="new 0 0 141.73 141.73"
   xml:space="preserve"
   inkscape:version="0.91 r13725"
   sodipodi:docname="symbol_cvut_konturova_verze.svg"><metadata
   id="metadata11"><rdf:RDF><cc:Work
       rdf:about=""><dc:format>image/svg+xml</dc:format><dc:type
         rdf:resource="http://purl.org/dc/dcmitype/StillImage" /><dc:title></dc:title></cc:Work></rdf:RDF></metadata><defs
   id="defs9">
	
</defs><sodipodi:namedview
   pagecolor="#ffffff"
   bordercolor="#666666"
   borderopacity="1"
   objecttolerance="10"
   gridtolerance="10"
   guidetolerance="10"
   inkscape:pageopacity="0"
   inkscape:pageshadow="2"
   inkscape:window-width="1920"
   inkscape:window-height="1017"
   id="namedview7"
   showgrid="false"
   units="cm"
   inkscape:zoom="2.4971015"
   inkscape:cx="-34.683556"
   inkscape:cy="56.343828"
   inkscape:window-x="1912"
   inkscape:window-y="-8"
   inkscape:window-maximized="1"
   inkscape:current-layer="Layer_1" />
<path
   style="fill:#0065bd"
   inkscape:connector-curvature="0"
   id="path5"
   d="M 23.679927,35.062661 C 19.963063,32.998048 16.2462,28.592513 16.2462,21.984912 c 0,-7.983542 6.470148,-14.0413291 14.316236,-14.0413291 4.817897,0 8.397306,1.927159 11.150591,4.9553511 0.963579,-0.551218 2.064612,-0.826126 3.303099,-0.826126 2.202066,0 3.991771,1.101033 4.955351,2.202067 0.688671,-0.274908 1.37594,-0.412362 2.33952,-0.412362 2.890738,0 5.644022,2.202066 5.644022,5.644022 0,2.478377 -1.375941,4.405535 -2.753284,5.781476 -0.688672,0.688672 -0.96358,1.101033 -1.101034,2.064613 -0.274907,2.202066 0.412362,5.369114 1.652252,7.158819 0.688671,0.963579 1.37594,1.514797 3.165645,1.375941 4.405535,-0.274908 12.251624,-0.963579 20.37262,-0.963579 6.882509,0 11.837859,0.137453 14.592546,0 5.230258,-1.652251 10.323066,-3.165646 16.380846,-4.680443 2.20207,-0.551218 5.64403,-1.238487 7.29628,-3.165646 -1.65225,0.963579 -4.68185,1.652251 -7.29628,1.927159 -3.71546,0.551218 -8.25985,1.375941 -10.874277,1.789705 -0.964982,0.137453 -1.514798,-0.137454 -1.514798,-0.826126 l -0.274907,-7.019963 c 0,-0.412361 0.138856,-0.551218 0.412361,-0.551218 0.27631,0 0.413764,0.137454 0.688672,0.274908 1.239889,0.688672 2.478379,1.101033 4.405539,1.101033 1.37594,0 2.61442,-0.551218 2.61442,-1.652251 -0.13745,-0.963579 -1.10103,-1.789705 -2.89073,-1.789705 -4.819303,0 -7.983546,3.854318 -13.903879,3.854318 -4.95535,0 -8.122398,-3.165646 -8.122398,-6.745056 0,-2.61583 1.514797,-4.542989 3.854317,-5.506568 -0.826126,1.238487 -1.101033,2.064612 -1.101033,3.165645 0,2.615831 2.753284,4.542989 7.019963,4.542989 4.542989,0 7.019963,-1.101033 10.46192,-1.101033 2.75328,0 4.67904,0.826126 5.23026,1.789705 -0.13746,-2.478376 -1.92576,-4.266679 -4.67904,-4.266679 -1.37735,0 -2.753288,0.688672 -3.303103,1.652251 -0.138857,0.274908 -0.27631,0.412362 -0.551218,0.412362 -0.27631,0 -0.413764,-0.137454 -0.413764,-0.412362 L 96.357933,9.7332879 c -0.137454,-0.963579 0.27631,-1.789705 1.514797,-1.927159 l 5.50657,-0.551217 -3.579411,-7.15882008 7.019961,0 c 0,1.37594078 0.96498,2.33952008 2.06602,2.33952008 1.10103,0 2.06601,-0.9635793 2.06601,-2.33952008 l 5.91893,0 c 0,1.37594078 0.82613,2.33952008 2.06461,2.33952008 0.96499,0 1.92857,-0.9635793 1.92857,-2.33952008 l 7.15881,0 -4.13062,8.25985308 c 9.36088,3.7168631 16.10594,12.5265311 16.10594,22.8509961 0,9.085978 -3.02819,14.178782 -7.29627,19.960258 -1.23849,1.513395 -1.92576,3.165646 -1.92576,6.745056 0,7.983542 7.15882,14.45369 16.5183,14.45369 4.54159,0 7.84609,-0.687269 11.28664,-2.339521 -0.68727,0.137454 -1.51339,0.137454 -2.33952,0.137454 -8.80966,0 -16.93206,-7.019963 -16.93206,-16.518302 0,-7.708635 4.26808,-12.801439 9.9107,-16.79321 1.10103,-0.826126 2.34092,-1.652251 3.44195,-2.478377 -3.57941,-3.028192 -5.91893,-6.19524 -6.05638,-10.187011 -2.34092,-0.826125 -4.12923,-2.890738 -4.12923,-5.781476 0,-3.854317 3.44056,-7.158819 7.70864,-7.158819 3.02819,0 5.36911,1.238487 6.88251,2.478376 -2.47838,1.789705 -4.40554,4.405535 -4.40554,7.846089 0,3.854317 2.61443,6.745055 5.91893,8.947121 3.3031,-2.202066 6.05639,-5.092804 6.05639,-8.947121 0,-3.441956 -1.92576,-6.056384 -4.40554,-7.846089 1.5148,-1.238487 3.85432,-2.478376 6.88391,-2.478376 4.26668,0 7.70864,3.303099 7.70864,7.158819 0,2.890738 -1.78971,4.955351 -4.13063,5.781476 -0.13745,4.266679 -2.61443,7.433727 -6.46874,10.599373 7.29627,5.644022 12.94029,11.013136 12.94029,19.40904 0,12.941698 -12.25022,25.605683 -30.55963,25.605683 -2.89214,0 -4.68044,-0.413764 -6.33269,-0.827528 1.51479,2.202066 3.02819,4.405535 3.71686,7.984945 1.37454,0.412361 5.50657,0.687269 8.3959,0.687269 5.23026,0 12.38908,-1.927159 14.17879,-3.991771 0.68726,1.374538 1.37453,3.303099 1.37453,5.230258 0,3.303099 -2.47697,5.231659 -5.36771,5.782879 1.10103,8.533364 2.20207,18.170554 2.20207,25.602884 0,10.18841 -3.44196,14.17878 -8.39731,14.73 0.27631,-0.27491 0.41377,-0.68727 0.41377,-1.23849 0,-2.34092 -2.20207,-3.99318 -4.68045,-3.99318 -4.12922,0 -5.78147,2.06462 -10.04955,2.06462 -3.44056,0 -4.67904,-2.06462 -7.70864,-2.06462 -1.92576,0 -3.3031,1.37595 -3.3031,3.0282 0,0.82612 0.27631,1.51479 0.82753,2.20206 -3.85432,-0.13745 -7.02137,-3.57941 -7.02137,-7.15882 0,-1.23848 0.27491,-2.20206 0.82613,-3.3031 -0.96358,-0.96498 -1.78971,-2.47837 -1.78971,-4.26808 0,-2.20206 1.65226,-3.99177 3.99318,-4.54158 0.27491,-2.89074 2.75328,-5.09281 5.78147,-5.09281 3.57941,0 5.92034,2.33952 7.15882,5.91893 0.27491,0.82613 0.55122,1.10104 1.37594,1.10104 1.5134,0.13885 3.57941,-0.13886 4.8179,-0.41237 0.68867,-0.13885 1.10103,-0.68867 1.10103,-1.23989 -0.13745,-3.99317 -0.96357,-9.63579 -1.7883,-12.94029 -1.37594,0.13745 -5.50657,0.41376 -7.84609,0.41376 -6.05638,0 -11.83926,-2.61583 -14.86745,-9.498344 -8.80967,0.55122 -17.61934,0.41236 -26.155499,-0.41236 -0.137453,0.41236 -0.137453,0.68727 -0.137453,0.96358 0,1.65225 1.37594,3.3031 3.303102,3.3031 1.7883,0 3.16705,-0.68867 3.85431,-1.65225 0.41377,1.10103 0.68727,2.47838 0.68727,3.854324 0,3.44195 -2.61442,5.64402 -5.918926,5.64402 -0.688672,0 -1.375941,-0.13886 -1.652251,-0.27631 -0.138857,5.78288 0.412361,12.25162 0.412361,18.30941 0,4.8179 -2.753284,10.04956 -8.947122,11.28804 0.274908,-0.2749 0.412362,-0.68727 0.412362,-1.23848 0,-2.34093 -2.202066,-3.99318 -4.680443,-3.99318 -4.129225,0 -5.781476,2.06461 -10.049557,2.06461 -3.441956,0 -4.680443,-2.06461 -7.708635,-2.06461 -1.927159,0 -3.303099,1.37594 -3.303099,3.02819 0,0.82613 0.274907,1.5148 0.826125,2.20207 -2.753284,-0.13745 -4.542989,-1.92716 -6.332694,-3.44055 L 52.996863,127.01366 43.36107,84.203804 39.369299,81.587974 37.993358,75.25528 c -2.753284,-1.927159 -4.129225,-4.129225 -4.129225,-7.019963 0,-1.652251 0.688672,-2.892141 1.514797,-3.854317 -0.412361,-1.377344 -0.551218,-2.892141 -0.551218,-4.268082 L 31.662067,45.659228 23.539668,81.587974 19.547897,84.203804 9.3608857,127.70373 0,134.9986 23.679927,35.062661 Z M 7.7128424,127.01646 17.899854,83.379081 21.891625,80.625797 30.838746,41.670262 29.737713,36.852366 C 28.361772,36.714912 26.846975,36.301148 25.332178,35.751333 L 2.7560894,131.00964 7.7128424,127.01646 Z M 40.337086,56.67517 c 0.274907,0 0.551218,0 0.963579,0.137454 0.137454,-1.101033 0.551218,-1.927159 1.101033,-2.478376 L 37.583802,32.034469 c 0.826125,-0.551218 1.789704,-1.375941 2.202066,-2.064612 -0.274908,-2.064613 -0.551218,-4.680443 -1.514797,-6.332694 -0.551218,3.716863 -3.716864,5.91893 -7.296273,5.91893 -3.854318,0 -7.296274,-3.165646 -7.296274,-7.296274 0,-3.991771 3.3031,-7.158819 7.296274,-7.158819 1.652251,0 3.165645,0.551218 4.542989,1.514797 1.238487,-0.963579 2.753284,-1.238487 4.129225,-1.238487 0.137453,-0.412361 0.412361,-0.826125 0.688671,-1.238487 -2.478376,-2.890738 -5.644022,-4.2666781 -9.773247,-4.2666781 -7.019963,0 -12.526531,5.5065681 -12.526531,12.2516231 0,7.019963 5.506568,12.663985 12.251623,12.663985 l 0.826126,0 5.230258,23.814576 c 0.551218,-0.826126 1.928561,-1.927159 3.993174,-1.927159 z m -3.57941,-33.176864 c 0,-0.551217 -0.412361,-0.826125 -0.963579,-0.826125 -0.96358,0 -1.652251,0.826125 -2.064613,2.064612 -0.412361,-1.101033 -0.688671,-2.064612 -0.688671,-3.028191 0,-1.375941 0.412361,-2.753285 1.238487,-3.854318 -0.96358,-0.688671 -1.927159,-0.963579 -3.028192,-0.963579 -3.028192,0 -5.506569,2.33952 -5.506569,5.369114 0,3.029595 2.478377,5.506569 5.506569,5.506569 2.890738,0 5.506568,-2.478377 5.506568,-4.268082 z M 80.669964,50.47993 c 0.412361,-4.817896 3.303099,-10.461919 9.360886,-13.49011 -3.3031,-0.137454 -7.019963,-0.274908 -11.562952,-0.274908 -6.332694,0 -13.490111,0.412361 -19.685351,0.963579 -2.202066,0.137454 -3.57941,-0.826125 -4.680443,-2.33952 -1.514797,-2.202066 -2.064612,-5.506568 -1.927159,-7.983542 0.137454,-1.514797 0.826126,-2.33952 1.927159,-3.441956 1.101033,-1.102436 1.927159,-2.478376 1.927159,-4.405535 0,-2.478377 -1.927159,-4.266679 -3.991771,-4.266679 -0.688672,0 -1.238487,0.137454 -1.514798,0.274908 0.412362,0.688671 0.826126,1.514797 0.826126,2.890738 0,2.064612 -0.826126,4.129225 -2.33952,5.91893 0.826125,-2.202067 1.101033,-3.3031 1.101033,-4.955351 0,-3.303099 -2.33952,-5.91893 -5.369115,-5.91893 -1.514797,0 -3.165645,0.826126 -3.854317,2.202067 2.890738,0.963579 4.817897,3.579409 4.817897,6.607601 0,1.789705 -0.551218,3.165646 -1.101033,4.542989 0.137453,-1.101033 0.137453,-1.927159 0.137453,-2.753284 0,-3.716864 -2.202066,-7.019963 -5.506568,-7.019963 -3.716863,0 -5.369114,2.61583 -5.230258,5.369114 0.412361,-0.412361 1.238487,-0.963579 2.61583,-0.963579 1.789705,0 3.854318,0.963579 4.405536,4.817897 0.688671,5.230258 1.652251,7.983542 3.303099,11.013136 0.688672,1.375941 1.375941,2.890738 1.375941,4.680443 0,1.927159 -1.238487,3.57941 -2.615831,4.405535 1.375941,1.789705 3.716864,2.615831 7.15882,2.615831 2.33952,0 4.405535,-0.412362 7.433727,-0.412362 6.745055,0 12.389077,1.652251 15.968487,6.332694 2.478376,-1.656459 4.542989,-2.896348 7.019963,-4.409743 z M 60.572252,83.516535 c 1.238487,-1.513395 3.165645,-4.266679 5.781476,-6.607601 2.478376,-2.202067 4.817896,-3.854318 7.433727,-5.230258 1.927158,-0.964982 3.854317,-1.652252 5.506568,-1.652252 2.753284,0 4.266679,1.652252 4.266679,3.028192 2.478376,-1.37594 4.680443,-2.614427 7.296273,-3.715461 -6.607601,-3.303099 -9.773247,-9.360885 -10.324465,-16.244797 -6.19524,3.167048 -13.352657,8.809668 -19.271587,13.765018 -2.064612,1.652251 -3.854317,1.652251 -5.918929,0.964982 -1.514798,-0.551218 -3.3031,-1.927158 -4.129225,-3.440553 -0.274908,-0.551218 -0.412362,-1.23989 -0.412362,-1.928561 l 0.137454,-2.890738 c 0.137454,-3.028192 -2.202066,-4.8193 -4.542989,-4.8193 -1.652251,0 -3.165646,0.551218 -3.854317,2.202067 2.478376,0.964982 4.680443,3.441956 4.95535,7.847491 -2.064612,-4.955351 -4.405535,-6.468745 -6.607601,-6.468745 -3.57941,0 -4.680443,3.303099 -4.542989,5.367712 0.826125,-0.412362 1.789705,-0.688672 2.890738,-0.688672 3.303099,0 5.781476,2.479779 6.470147,5.782879 -2.064612,-2.892141 -3.716863,-4.130628 -6.470147,-4.130628 -2.33952,0 -3.854318,1.789705 -3.854318,3.993174 0,1.927158 0.551218,3.715461 2.753285,5.367712 -0.137454,-1.925756 1.101033,-3.578007 3.028191,-3.578007 1.927159,0 3.028192,0.963579 4.266679,2.476973 2.478377,3.167049 4.680443,4.8193 7.296273,6.19524 2.064613,1.101034 2.753284,2.753285 2.753284,4.129225 0,0.826126 -0.274907,1.788303 -0.826125,2.615831 0.412361,0.273505 0.963579,0.273505 1.652251,0.273505 1.375941,0.0014 3.028192,-0.962177 4.266679,-2.614428 z M 44.053949,41.94517 c 0,-1.101033 -0.551218,-2.33952 -0.963579,-3.303099 -0.963579,-2.064613 -2.064612,-4.266679 -2.753284,-6.470148 l -0.826126,0.826125 2.753284,12.11417 c 0.688672,-0.27631 1.789705,-1.653653 1.789705,-3.167048 z m 13.490111,85.89742 c 0,-1.23849 0.274908,-2.20207 0.826125,-3.3031 -0.963579,-0.96498 -1.789704,-2.47838 -1.789704,-4.26808 0,-0.68727 0.137453,-1.23849 0.412361,-1.7883 L 47.76941,77.736462 c -1.101033,-0.964982 -2.478376,-2.478377 -3.579409,-3.716864 -1.101034,-1.374538 -1.927159,-1.925756 -3.028192,-1.925756 -0.96358,0 -1.789705,0.824723 -1.514797,2.33952 l 1.37594,6.193838 3.991771,2.753284 9.635794,42.948706 3.028192,2.61583 c -0.134649,-0.41516 -0.134649,-0.68867 -0.134649,-1.10243 z m 2.753284,-62.357752 c 3.3031,-2.892141 7.433727,-6.19524 11.976716,-9.637196 -3.303099,-3.854317 -8.672214,-5.367712 -14.45369,-5.367712 -4.266679,0 -6.056383,0.274908 -7.983542,0.274908 -2.478377,0 -5.506568,-0.826126 -7.019963,-2.61583 l 1.238487,5.369114 c 0.551218,-0.274908 1.652251,-0.551218 2.61583,-0.551218 2.890738,0 5.91893,2.066015 5.91893,5.920333 0,1.101033 -0.274908,2.476974 -0.274908,3.165645 0,0.688672 0.137454,1.23989 0.412362,1.652251 0.688672,0.96358 2.202066,2.202067 3.441956,2.614428 1.374538,0.413764 2.613025,0.413764 4.127822,-0.824723 z m 19.822805,51.758382 c 0.688671,-0.13886 1.101033,-0.68868 1.101033,-1.37735 -0.137454,-7.84609 -1.789705,-18.031694 -1.789705,-25.741733 0,-5.781476 1.514797,-10.049558 8.122399,-12.251624 6.056383,-2.064613 13.627564,-3.026789 17.619334,-3.026789 0.82753,0 1.78971,0 3.71686,0.273505 -5.92033,-2.33952 -10.736822,-3.578007 -15.554718,-4.67904 -3.441956,1.238487 -7.708635,3.578007 -11.83786,5.918929 0.274908,-0.688671 0.412361,-1.239889 0.412361,-1.927158 0,-1.238487 -0.826125,-2.478377 -2.61583,-2.478377 -1.652251,0 -3.303099,0.688672 -4.680443,1.375941 -2.33952,1.238487 -5.092804,3.028192 -7.019963,4.819299 -2.61583,2.33952 -4.542989,4.817897 -5.644022,6.193838 -1.652251,2.066015 -3.854317,3.303099 -6.19524,3.303099 -1.238487,0 -2.33952,-0.274908 -3.303099,-0.964982 0.688671,-0.687269 1.37594,-1.513394 1.37594,-2.890738 0,-1.101033 -0.551217,-2.202066 -1.37594,-2.890738 -0.826126,-0.688672 -1.789705,-1.101033 -2.478377,-1.652251 l 8.397306,37.442139 c 0.551218,-0.41376 1.238487,-0.68867 2.202067,-0.96498 0.274907,-2.89074 2.753284,-5.0928 5.781476,-5.0928 3.579409,0 5.91893,2.33952 7.158819,5.91893 0.274908,0.82612 0.551218,1.10103 1.375941,1.10103 1.514797,0.14306 3.991771,-0.13325 5.231661,-0.40815 z m -17.758192,14.31623 c 0,-2.20206 2.064612,-3.85431 4.680442,-3.85431 3.441956,0 5.369115,2.20206 8.259853,2.20206 3.441956,0 4.405535,-2.06601 9.223432,-2.06601 3.579409,0 6.19524,2.20206 6.332694,4.68044 2.751881,-1.10103 5.092804,-4.54299 5.092804,-8.80967 0,-5.64402 -0.274908,-13.35406 -0.274908,-20.37262 0.964982,0.27491 1.927159,0.55122 3.57941,0.55122 2.614426,0 4.129226,-1.65225 4.129226,-3.57941 0,-0.551224 0,-0.964984 -0.13745,-1.375944 -0.96499,0.41236 -1.92857,0.55122 -2.75329,0.55122 -2.615829,0 -4.95535,-2.06462 -5.094206,-5.78148 0,-0.687266 0,-1.238484 0.138856,-1.788299 7.15882,0.551217 15.00351,0.963579 22.16233,0.551217 -2.06602,-0.827528 -2.89074,-2.61583 -2.89074,-4.130627 0,-1.101033 0.68727,-2.064613 1.65225,-2.476974 -1.78971,-4.130628 -5.09421,-7.296273 -7.98495,-9.223432 -5.23025,-0.274907 -13.765015,0.964982 -20.097709,2.890738 -5.781476,1.789705 -6.882509,6.056384 -6.882509,10.600775 0,6.332692 1.238487,16.105946 1.238487,25.879186 0,1.37595 -0.551218,2.20207 -1.652251,2.61443 -1.514797,0.68867 -4.542989,1.10104 -6.607602,0.82753 -1.238487,-0.13886 -1.927158,-0.55122 -2.478376,-2.06601 -1.101033,-3.16705 -3.165646,-5.09281 -5.644022,-5.09281 -2.615831,0 -3.991771,1.92576 -4.405535,3.3031 4.266678,0 7.019962,2.20207 8.53476,5.0928 -2.478377,-2.20206 -4.955351,-3.5794 -7.983543,-3.5794 -2.753284,0 -4.405535,1.7897 -4.405535,3.71546 0,0.96498 0.137454,2.20206 0.826126,2.89214 0.963579,-1.37594 3.303099,-2.20207 5.092804,-2.20207 2.890738,0 4.680443,1.51339 5.369115,2.89214 -1.514798,-1.10103 -3.028192,-1.5148 -4.817897,-1.5148 -2.753284,0 -5.230258,2.06602 -5.230258,4.8193 0,2.75329 1.375941,4.95535 3.716863,6.19384 -0.413764,-0.69148 -0.688671,-1.519 -0.688671,-2.34373 z M 97.464577,20.195207 c -3.993174,0.826125 -5.91893,1.101033 -7.15882,1.101033 -4.817896,0 -7.708634,-2.202066 -7.983542,-5.094207 -0.551218,3.441956 1.927159,6.470148 6.332694,6.470148 2.753284,0.0014 5.367712,-0.824723 8.809668,-2.476974 z m -9.22203,35.927343 c 0,-7.708635 5.369115,-12.801439 13.215203,-15.692177 3.85432,-1.375941 8.80967,-2.614428 14.86745,-5.506568 6.05639,-2.890738 9.22203,-7.846089 9.22203,-14.867454 0,-5.506569 -1.92716,-9.910701 -5.91893,-11.4254991 2.47698,1.6522511 2.89074,3.3031001 2.89074,4.9553511 0,1.927159 -1.5148,3.303099 -3.02819,3.303099 -1.37594,0 -2.06461,-0.964982 -2.61443,-2.202066 0.68727,0.687269 1.23849,0.963579 2.06461,0.963579 1.37595,0 2.06462,-0.963579 2.06462,-2.202066 0,-3.7154611 -3.16565,-5.2302581 -7.56978,-5.2302581 -2.32269,0 -5.54724,0.20057 -8.91627,0.510543 0.30577,0.255271 0.61855,0.467062 0.93273,0.59049 0.82612,0.413764 1.7883,0.551218 3.16564,0.6886721 1.92716,0.274907 3.71687,0.412361 5.23026,0.963579 -1.65225,0 -3.16565,0.274908 -4.54159,0.688672 -0.41376,1.375941 -0.96498,2.064612 -1.92715,2.064612 -0.96499,0 -1.65226,-0.551218 -2.20207,-1.513394 -0.44602,-0.89345 -0.89485,-2.148768 -1.29459,-3.4223201 -2.01833,0.193557 -4.07172,0.42218 -6.001684,0.670438 l 0.551218,6.3326941 c 0.413764,-0.551218 1.788306,-1.238487 3.303096,-1.238487 3.44056,0 6.05639,2.61583 6.05639,5.781476 0,3.441956 -2.20207,4.95535 -4.95535,4.95535 -1.65225,0 -3.167052,-0.688671 -3.991775,-1.238487 l 0.273505,5.092805 c 3.99317,-0.688672 7.57118,-1.238487 12.11417,-1.789705 5.50657,-0.826126 10.60078,-2.064613 10.73823,-10.599373 0.2735,0.551218 0.68727,1.789705 0.68727,2.890738 0,5.644022 -3.44056,9.49834 -8.94712,11.288045 -6.05639,1.927158 -13.49152,3.716863 -18.584321,5.506568 -7.158819,2.478376 -12.663985,7.983542 -12.663985,15.417269 0,7.571181 3.303099,13.902472 11.562952,17.069521 -4.406938,-3.995979 -5.782879,-7.986348 -5.782879,-12.805647 z m 8.120996,4.268081 c 0,-6.332694 4.405537,-10.736826 10.736827,-13.49011 5.0928,-2.202067 8.53476,-3.854318 12.80144,-6.056384 6.74646,-3.57941 9.63719,-10.461919 9.63719,-17.344428 0,-6.746458 -2.47977,-12.11417 -6.33409,-13.9038751 2.20206,1.9271591 3.85432,5.6440221 3.85432,10.4619191 0,7.433727 -3.3031,13.35406 -10.04816,16.518303 -4.68044,2.202066 -8.94712,3.441955 -14.45369,5.369114 -7.435129,2.478377 -12.389077,7.433727 -12.389077,14.316236 0,5.506569 3.028192,11.83786 7.984945,13.490111 l 2.476972,0.826125 c -3.026787,-2.89214 -4.266677,-6.332693 -4.266677,-10.187011 z m 7.296277,4.817897 c 0,-5.506569 3.71546,-9.222029 8.3959,-11.700406 4.12923,-2.202066 7.29487,-3.716863 10.59937,-5.920332 8.25986,-5.367712 11.15059,-11.83786 11.15059,-20.097712 0,-5.91893 -2.06461,-12.526532 -7.01996,-16.243395 2.47697,2.89214 4.26668,6.746458 4.26668,12.389077 0,7.433727 -2.47838,14.178783 -10.04956,18.445461 -3.99177,2.340923 -8.3959,4.405536 -13.2152,6.470148 -4.67904,1.927159 -9.496938,5.91893 -9.496938,12.11417 0,5.230258 2.890738,9.222029 6.745058,11.149188 l 2.20206,1.101033 c -1.92575,-1.788302 -3.578,-4.265276 -3.578,-7.707232 z m 21.88741,-63.7350929 -3.44195,0 c -0.27351,1.3759408 -1.7883,2.4783768 -3.16565,2.4783768 -1.65225,0 -2.89214,-0.9649822 -3.16564,-2.4783768 l -3.71687,0 c -0.2749,1.3759408 -1.65225,2.4783768 -3.16705,2.4783768 -1.65225,0 -2.75328,-0.9649822 -3.02678,-2.4783768 l -3.44196,0 2.34092,5.6426198 c 2.61443,-0.137454 5.91893,-0.274907 8.25985,-0.274907 4.54159,0 7.01997,0.551217 9.49694,1.101033 l 3.02819,-6.4687458 z M 110.95609,69.200299 c 0,-2.892141 0.82613,-4.680443 2.33952,-6.332694 3.99317,-4.680443 9.9107,-6.056383 15.00491,-10.187011 6.6076,-5.506568 9.9107,-12.940295 9.9107,-21.475056 0,-7.158819 -3.16565,-13.077749 -7.01996,-16.932066 2.33952,3.167048 4.12782,7.983542 4.12782,13.215203 0,8.948524 -2.47698,15.417269 -11.4255,21.475055 -2.89214,1.927159 -7.43373,4.129225 -11.01314,6.056384 -3.71546,2.066015 -7.29627,5.506568 -7.29627,10.187011 0,4.955351 3.16705,8.259853 7.98494,10.324465 -1.7883,-1.650848 -2.61302,-3.991771 -2.61302,-6.331291 z m 11.83646,22.850996 c -1.23849,-7.158819 -3.99177,-12.11417 -9.63439,-15.417269 -1.10104,-0.687269 -2.06602,0.137454 -1.23989,0.826125 1.7897,1.652251 5.50656,5.230259 6.74645,9.22203 -1.23989,0 -1.7897,0.827528 -1.7897,1.789705 0,2.340922 2.47838,3.854317 4.12922,3.854317 0.68727,0.0014 1.23709,-0.137454 1.78831,-0.274908 z m 6.88391,39.506755 c 0,-2.20207 2.06601,-3.85432 4.68044,-3.85432 3.44196,0 5.36771,2.20207 8.25985,2.20207 3.44196,0 4.40554,-2.06461 9.22203,-2.06461 3.58082,0 6.19524,2.20206 6.3341,4.68044 2.75328,-1.10103 4.67904,-4.40554 4.67904,-11.28805 0,-8.80966 -1.23849,-19.68535 -2.61443,-27.945204 4.26668,-0.274904 5.91893,-1.927155 5.91893,-4.405532 0,-0.963579 -0.2735,-1.788302 -0.55122,-2.33952 -3.99177,1.927159 -8.25985,3.028192 -13.2152,3.028192 -3.44055,0 -7.98214,-0.413764 -10.18561,-1.239889 -1.10103,-5.506569 -4.13063,-10.187012 -6.47015,-12.663986 2.47838,1.101034 6.88251,2.202067 10.73683,2.202067 16.38085,0 28.63247,-11.425498 28.63247,-23.677122 0,-7.433727 -4.68044,-12.801439 -12.25162,-18.308007 l -2.75328,1.927158 c 8.25985,5.64262 11.01313,10.874281 11.01313,15.829631 0,6.746458 -5.64262,12.11417 -12.80144,12.11417 -7.15882,0 -12.80144,-5.367712 -12.80144,-12.11417 0,-6.468745 4.26668,-10.87428 11.83646,-15.968487 1.78971,-1.101033 3.85432,-2.614428 5.78288,-3.991771 3.02679,-2.340923 6.74506,-6.470148 6.05638,-10.461919 2.20207,-0.551218 3.71546,-1.789705 3.71546,-4.819299 0,-3.3031 -2.75328,-5.64262 -5.78147,-5.64262 -2.20207,0 -3.57941,0.551218 -4.54159,0.96358 2.47698,2.202066 3.71546,5.094206 3.71546,7.57118 0,3.991771 -1.65225,6.745056 -5.78147,9.635794 -2.89074,2.064612 -6.19384,4.129225 -9.36089,6.468745 -6.33269,4.680443 -9.77465,9.498339 -9.77465,16.105941 0,9.635793 7.84749,15.142361 15.28122,15.142361 4.26808,0 7.98354,-0.826125 11.4255,-3.303099 -3.99318,4.541586 -12.11417,8.809668 -20.78639,8.809668 -10.87568,0 -18.44546,-7.433727 -18.44546,-16.243395 0,-1.927159 0.27491,-3.3031 0.55122,-3.993174 -5.36771,4.819299 -10.60077,5.644022 -14.31624,9.77465 -1.65225,1.788302 -2.20206,3.57941 -2.20206,5.642619 0,2.615831 1.23989,4.955351 3.02819,6.607602 1.92716,1.652251 3.99177,3.716863 5.0928,5.506568 1.78971,2.753284 2.75329,6.056384 3.58082,9.360886 1.92575,7.708628 7.56977,10.875682 14.72859,10.875682 2.34093,0 6.74646,-0.41376 8.94853,-1.10103 -0.27631,0.96358 -0.27631,1.7883 0,2.89074 0.96358,4.12922 1.65225,8.3973 1.7883,12.52793 0,1.37594 -0.55122,2.06461 -1.7883,2.61443 -1.5148,0.68867 -4.40554,1.10103 -6.47015,0.82612 -1.23849,-0.13745 -1.92716,-0.55121 -2.47838,-2.06461 -1.10103,-3.16705 -3.16564,-5.0942 -5.64402,-5.0942 -2.61443,0 -3.99177,1.92715 -4.40553,3.30309 4.26808,0 7.02136,2.20207 8.53616,5.09421 -2.47978,-2.20206 -4.95535,-3.57941 -7.98495,-3.57941 -2.75328,0 -4.40553,1.7883 -4.40553,3.71546 0,0.96498 0.13886,2.20207 0.82753,2.89214 0.96358,-1.37594 3.3031,-2.20206 5.0928,-2.20206 2.89074,0 4.68044,1.51339 5.36912,2.89074 -1.5148,-1.10104 -3.0296,-1.5134 -4.8193,-1.5134 -2.75329,0 -5.23026,2.06461 -5.23026,4.8179 0,2.75328 1.37594,4.95535 3.71546,6.19524 -0.41236,-0.68587 -0.68867,-1.51199 -0.68867,-2.33812 z M 157.2079,31.344395 c -4.54159,-3.3031 -6.19384,-6.056384 -6.19384,-10.048155 0,-2.478376 1.23849,-5.369114 3.71546,-7.571181 -0.96358,-0.412361 -2.34092,-0.963579 -4.54299,-0.963579 -3.02679,0 -5.78007,2.33952 -5.78007,5.64262 0,3.028191 1.51339,4.268081 3.71546,4.819299 -0.68867,3.854317 2.75328,7.708634 6.19524,10.323062 l 2.89074,-2.202066 z m 11.97671,22.301181 c 0,-5.781476 -3.3031,-9.910701 -10.60077,-14.867454 -7.43373,4.95535 -11.15059,8.809668 -11.15059,14.867454 0,5.781476 4.8193,10.461919 10.87568,10.461919 6.05638,0 10.87568,-4.680443 10.87568,-10.461919 z" />
</svg>