<?xml version="1.0" encoding="UTF-8" standalone="no"?>
<!-- Created with Inkscape (http://www.inkscape.org/) -->

<svg
   xmlns:dc="http://purl.org/dc/elements/1.1/"
   xmlns:cc="http://creativecommons.org/ns#"
   xmlns:rdf="http://www.w3.org/1999/02/22-rdf-syntax-ns#"
   xmlns:svg="http://www.w3.org/2000/svg"
   xmlns="http://www.w3.org/2000/svg"
   xmlns:sodipodi="http://sodipodi.sourceforge.net/DTD/sodipodi-0.dtd"
   xmlns:inkscape="http://www.inkscape.org/namespaces/inkscape"
   width="313.96979"
   height="76.328308"
   viewBox="0 0 313.96979 76.328308"
   id="svg2"
   version="1.1"
   inkscape:version="0.91 r13725"
   sodipodi:docname="Affin_graf.svg">
  <defs
     id="defs4">
    <marker
       inkscape:stockid="Arrow1Mend"
       orient="auto"
       refY="0"
       refX="0"
       id="marker4628"
       style="overflow:visible"
       inkscape:isstock="true">
      <path
         id="path4630"
         d="M 0,0 5,-5 -12.5,0 5,5 0,0 Z"
         style="fill:#000000;fill-opacity:1;fill-rule:evenodd;stroke:#000000;stroke-width:1pt;stroke-opacity:1"
         transform="matrix(-0.4,0,0,-0.4,-4,0)"
         inkscape:connector-curvature="0" />
    </marker>
    <marker
       inkscape:stockid="Arrow1Mend"
       orient="auto"
       refY="0"
       refX="0"
       id="marker4588"
       style="overflow:visible"
       inkscape:isstock="true">
      <path
         id="path4590"
         d="M 0,0 5,-5 -12.5,0 5,5 0,0 Z"
         style="fill:#000000;fill-opacity:1;fill-rule:evenodd;stroke:#000000;stroke-width:1pt;stroke-opacity:1"
         transform="matrix(-0.4,0,0,-0.4,-4,0)"
         inkscape:connector-curvature="0" />
    </marker>
    <marker
       inkscape:stockid="Arrow1Mend"
       orient="auto"
       refY="0"
       refX="0"
       id="marker4554"
       style="overflow:visible"
       inkscape:isstock="true">
      <path
         id="path4556"
         d="M 0,0 5,-5 -12.5,0 5,5 0,0 Z"
         style="fill:#000000;fill-opacity:1;fill-rule:evenodd;stroke:#000000;stroke-width:1pt;stroke-opacity:1"
         transform="matrix(-0.4,0,0,-0.4,-4,0)"
         inkscape:connector-curvature="0" />
    </marker>
    <marker
       inkscape:isstock="true"
       style="overflow:visible"
       id="marker4514"
       refX="0"
       refY="0"
       orient="auto"
       inkscape:stockid="Arrow1Mend">
      <path
         transform="matrix(-0.4,0,0,-0.4,-4,0)"
         style="fill:#000000;fill-opacity:1;fill-rule:evenodd;stroke:#000000;stroke-width:1pt;stroke-opacity:1"
         d="M 0,0 5,-5 -12.5,0 5,5 0,0 Z"
         id="path4516"
         inkscape:connector-curvature="0" />
    </marker>
  </defs>
  <sodipodi:namedview
     id="base"
     pagecolor="#ffffff"
     bordercolor="#666666"
     borderopacity="1.0"
     inkscape:pageopacity="0.0"
     inkscape:pageshadow="2"
     inkscape:zoom="2"
     inkscape:cx="188.30703"
     inkscape:cy="115.78318"
     inkscape:document-units="px"
     inkscape:current-layer="layer1"
     showgrid="true"
     inkscape:window-width="1920"
     inkscape:window-height="1017"
     inkscape:window-x="-8"
     inkscape:window-y="-8"
     inkscape:window-maximized="1"
     units="px"
     fit-margin-top="0"
     fit-margin-left="0"
     fit-margin-right="0"
     fit-margin-bottom="0">
    <inkscape:grid
       type="xygrid"
       id="grid4252"
       originx="0"
       originy="2.6171875e-006" />
  </sodipodi:namedview>
  <metadata
     id="metadata7">
    <rdf:RDF>
      <cc:Work
         rdf:about="">
        <dc:format>image/svg+xml</dc:format>
        <dc:type
           rdf:resource="http://purl.org/dc/dcmitype/StillImage" />
        <dc:title></dc:title>
      </cc:Work>
    </rdf:RDF>
  </metadata>
  <g
     inkscape:label="Vrstva 1"
     inkscape:groupmode="layer"
     id="layer1"
     transform="translate(0,-976.03387)">
    <text
       sodipodi:linespacing="125%"
       id="text4258"
       y="980.78241"
       x="246.18233"
       style="font-style:normal;font-weight:normal;font-size:6.25px;line-height:125%;font-family:sans-serif;text-align:center;letter-spacing:0px;word-spacing:0px;text-anchor:middle;fill:#000000;fill-opacity:1;stroke:none;stroke-width:1px;stroke-linecap:butt;stroke-linejoin:miter;stroke-opacity:1"
       xml:space="preserve"><tspan
         y="980.78241"
         x="246.18233"
         id="tspan4260"
         sodipodi:role="line">\footnotesize 1</tspan></text>
    <g
       transform="matrix(1.25,0,0,1.25,0,927.3622)"
       id="g4148" />
    <g
       transform="matrix(-1.25,0,0,-1.25,0,927.3622)"
       id="g4152" />
    <g
       transform="matrix(1.250012,0,0,1.2376103,-0.00152943,928.60117)"
       id="g4156" />
    <g
       transform="matrix(0,1.25,-1.25,0,0,927.3622)"
       id="g4160" />
    <g
       transform="matrix(1.25,0,0,1.25,0,927.3622)"
       id="g4164" />
    <g
       transform="matrix(1.25,0,0,1.25,0,927.3622)"
       id="g4168" />
    <g
       transform="matrix(-1.25,0,0,-1.25,0,927.3622)"
       id="g4172" />
    <g
       transform="matrix(1.25,0,0,1.25,0,927.3622)"
       id="g4176" />
    <g
       transform="matrix(0,1.2376103,-1.250012,0,-0.00152943,928.60117)"
       id="g4180" />
    <g
       transform="matrix(1.25,0,0,1.25,0,927.3622)"
       id="g4184" />
    <g
       transform="matrix(-1.25,0,0,-1.25,0,927.3622)"
       id="g4188" />
    <g
       transform="matrix(1.250012,0,0,1.2376103,-0.00152943,928.60117)"
       id="g4192" />
    <g
       transform="matrix(0,1.25,-1.25,0,0,927.3622)"
       id="g4196" />
    <g
       transform="matrix(1.25,0,0,1.25,0,927.3622)"
       id="g4200" />
    <g
       transform="matrix(1.25,0,0,1.25,0,927.3622)"
       id="g4204" />
    <g
       transform="matrix(1.25,0,0,1.25,0,927.3622)"
       id="g4208" />
    <text
       xml:space="preserve"
       style="font-style:normal;font-weight:normal;font-size:6.25px;line-height:125%;font-family:sans-serif;text-align:start;letter-spacing:0px;word-spacing:0px;text-anchor:start;fill:#000000;fill-opacity:1;stroke:none;stroke-width:1px;stroke-linecap:butt;stroke-linejoin:miter;stroke-opacity:1"
       x="65"
       y="1012.3622"
       id="text4262"
       sodipodi:linespacing="125%"><tspan
         sodipodi:role="line"
         id="tspan4264"
         x="65"
         y="1012.3622" /></text>
    <g
       id="g4235"
       inkscape:transform-center-x="-22.544865"
       inkscape:transform-center-y="-26.774114"
       transform="matrix(0.64414564,-0.76490287,0.76490287,0.64414564,-680.24652,508.79618)" />
    <g
       transform="matrix(-0.64414564,-0.76490287,-0.76490287,0.64414564,1172.4355,508.79618)"
       inkscape:transform-center-y="-26.774114"
       inkscape:transform-center-x="22.544834"
       id="g4241">
      <g
         id="g4311">
        <path
           sodipodi:nodetypes="cc"
           inkscape:connector-curvature="0"
           id="path4223"
           d="m 16,1017.3622 c 20,-15 50,-15 70,0"
           style="fill:none;fill-rule:evenodd;stroke:#109e00;stroke-width:1px;stroke-linecap:butt;stroke-linejoin:miter;stroke-opacity:1"
           transform="matrix(-0.64414564,-0.76490287,-0.76490287,0.64414564,1118.5021,545.10913)" />
        <path
           style="fill:none;fill-rule:evenodd;stroke:#109e00;stroke-width:1px;stroke-linecap:butt;stroke-linejoin:miter;stroke-opacity:1"
           d="m 16,1018.0042 c 20,15 50,15 70,0"
           id="path4225"
           inkscape:connector-curvature="0"
           sodipodi:nodetypes="cc"
           transform="matrix(-0.64414564,-0.76490287,-0.76490287,0.64414564,1118.5021,545.10913)" />
        <path
           inkscape:connector-curvature="0"
           id="path4210"
           style="fill:#c50d0d;fill-opacity:1;fill-rule:evenodd;stroke:#c50d0d;stroke-width:1.11970174;stroke-linecap:butt;stroke-linejoin:miter;stroke-miterlimit:4;stroke-dasharray:none;stroke-opacity:1"
           d="m 17.440151,1017.3611 c 0,0.7939 -0.64728,1.4412 -1.4412,1.4412 -0.7939,0 -1.4391,-0.6473 -1.4391,-1.4412 0,-0.7939 0.6452,-1.4391 1.4391,-1.4391 0.79392,0 1.4412,0.6452 1.4412,1.4391 z"
           transform="matrix(-0.64414564,-0.76490287,-0.76490287,0.64414564,1118.5021,545.10913)" />
        <path
           d="m 87.440151,1017.3611 c 0,0.7939 -0.64728,1.4412 -1.4412,1.4412 -0.7939,0 -1.4391,-0.6473 -1.4391,-1.4412 0,-0.7939 0.6452,-1.4391 1.4391,-1.4391 0.79392,0 1.4412,0.6452 1.4412,1.4391 z"
           style="fill:#c50d0d;fill-opacity:1;fill-rule:evenodd;stroke:#c50d0d;stroke-width:1.11970174;stroke-linecap:butt;stroke-linejoin:miter;stroke-miterlimit:4;stroke-dasharray:none;stroke-opacity:1"
           id="path4219"
           inkscape:connector-curvature="0"
           transform="matrix(-0.64414564,-0.76490287,-0.76490287,0.64414564,1118.5021,545.10913)" />
        <path
           sodipodi:nodetypes="cc"
           inkscape:connector-curvature="0"
           id="path4227"
           d="m 160,1017.3622 c 20,-15 50,-15 70,0"
           style="fill:none;fill-rule:evenodd;stroke:#109e00;stroke-width:1px;stroke-linecap:butt;stroke-linejoin:miter;stroke-opacity:1"
           transform="matrix(0.17015279,-0.98541769,-0.98541769,-0.17015279,1193.3971,1417.1218)" />
        <path
           style="fill:none;fill-rule:evenodd;stroke:#109e00;stroke-width:1px;stroke-linecap:butt;stroke-linejoin:miter;stroke-opacity:1"
           d="m 160,1018.0042 c 20,15 50,15 70,0"
           id="path4229"
           inkscape:connector-curvature="0"
           sodipodi:nodetypes="cc"
           transform="matrix(0.17015279,-0.98541769,-0.98541769,-0.17015279,1193.3971,1417.1218)" />
        <path
           inkscape:connector-curvature="0"
           id="path4231"
           style="fill:#c50d0d;fill-opacity:1;fill-rule:evenodd;stroke:#c50d0d;stroke-width:1.11970174;stroke-linecap:butt;stroke-linejoin:miter;stroke-miterlimit:4;stroke-dasharray:none;stroke-opacity:1"
           d="m 161.44015,1017.3611 c 0,0.7939 -0.64728,1.4412 -1.4412,1.4412 -0.7939,0 -1.4391,-0.6473 -1.4391,-1.4412 0,-0.7939 0.6452,-1.4391 1.4391,-1.4391 0.79392,0 1.4412,0.6452 1.4412,1.4391 z"
           transform="matrix(0.17015279,-0.98541769,-0.98541769,-0.17015279,1193.3971,1417.1218)" />
        <path
           d="m 231.44015,1017.3611 c 0,0.7939 -0.64728,1.4412 -1.4412,1.4412 -0.7939,0 -1.4391,-0.6473 -1.4391,-1.4412 0,-0.7939 0.6452,-1.4391 1.4391,-1.4391 0.79392,0 1.4412,0.6452 1.4412,1.4391 z"
           style="fill:#c50d0d;fill-opacity:1;fill-rule:evenodd;stroke:#c50d0d;stroke-width:1.11970174;stroke-linecap:butt;stroke-linejoin:miter;stroke-miterlimit:4;stroke-dasharray:none;stroke-opacity:1"
           id="path4233"
           inkscape:connector-curvature="0"
           transform="matrix(0.17015279,-0.98541769,-0.98541769,-0.17015279,1193.3971,1417.1218)" />
        <path
           style="fill:none;fill-rule:evenodd;stroke:#109e00;stroke-width:1px;stroke-linecap:butt;stroke-linejoin:miter;stroke-opacity:1"
           d="m 160,1017.3622 c 20,-15 50,-15 70,0"
           id="path4243"
           inkscape:connector-curvature="0"
           sodipodi:nodetypes="cc" />
        <path
           sodipodi:nodetypes="cc"
           inkscape:connector-curvature="0"
           id="path4245"
           d="m 160,1018.0042 c 20,15 50,15 70,0"
           style="fill:none;fill-rule:evenodd;stroke:#109e00;stroke-width:1px;stroke-linecap:butt;stroke-linejoin:miter;stroke-opacity:1" />
        <path
           d="m 161.44015,1017.3611 c 0,0.7939 -0.64728,1.4412 -1.4412,1.4412 -0.7939,0 -1.4391,-0.6473 -1.4391,-1.4412 0,-0.7939 0.6452,-1.4391 1.4391,-1.4391 0.79392,0 1.4412,0.6452 1.4412,1.4391 z"
           style="fill:#c50d0d;fill-opacity:1;fill-rule:evenodd;stroke:#c50d0d;stroke-width:1.11970174;stroke-linecap:butt;stroke-linejoin:miter;stroke-miterlimit:4;stroke-dasharray:none;stroke-opacity:1"
           id="path4247"
           inkscape:connector-curvature="0" />
        <path
           inkscape:connector-curvature="0"
           id="path4249"
           style="fill:#c50d0d;fill-opacity:1;fill-rule:evenodd;stroke:#c50d0d;stroke-width:1.11970174;stroke-linecap:butt;stroke-linejoin:miter;stroke-miterlimit:4;stroke-dasharray:none;stroke-opacity:1"
           d="m 231.44015,1017.3611 c 0,0.7939 -0.64728,1.4412 -1.4412,1.4412 -0.7939,0 -1.4391,-0.6473 -1.4391,-1.4412 0,-0.7939 0.6452,-1.4391 1.4391,-1.4391 0.79392,0 1.4412,0.6452 1.4412,1.4391 z" />
      </g>
    </g>
    <text
       sodipodi:linespacing="125%"
       id="text4258-6"
       y="1051.7823"
       x="201.18233"
       style="font-style:normal;font-weight:normal;font-size:6.25px;line-height:125%;font-family:sans-serif;text-align:center;letter-spacing:0px;word-spacing:0px;text-anchor:middle;fill:#000000;fill-opacity:1;stroke:none;stroke-width:1px;stroke-linecap:butt;stroke-linejoin:miter;stroke-opacity:1"
       xml:space="preserve"><tspan
         y="1051.7823"
         x="201.18233"
         id="tspan4260-7"
         sodipodi:role="line">\footnotesize 2</tspan></text>
    <text
       sodipodi:linespacing="125%"
       id="text4258-3"
       y="1051.7823"
       x="291.18231"
       style="font-style:normal;font-weight:normal;font-size:6.25px;line-height:125%;font-family:sans-serif;text-align:center;letter-spacing:0px;word-spacing:0px;text-anchor:middle;fill:#000000;fill-opacity:1;stroke:none;stroke-width:1px;stroke-linecap:butt;stroke-linejoin:miter;stroke-opacity:1"
       xml:space="preserve"><tspan
         y="1051.7823"
         x="291.18231"
         id="tspan4260-1"
         sodipodi:role="line">\footnotesize 3</tspan></text>
    <text
       sodipodi:linespacing="125%"
       id="text4258-4"
       y="1024.0145"
       x="126.33897"
       style="font-style:normal;font-weight:normal;font-size:6.25px;line-height:125%;font-family:sans-serif;text-align:start;letter-spacing:0px;word-spacing:0px;text-anchor:start;fill:#000000;fill-opacity:1;stroke:none;stroke-width:1px;stroke-linecap:butt;stroke-linejoin:miter;stroke-opacity:1"
       xml:space="preserve"><tspan
         y="1024.0145"
         x="126.33897"
         id="tspan4260-6"
         sodipodi:role="line">\footnotesize 2</tspan></text>
    <text
       sodipodi:linespacing="125%"
       id="text4258-9"
       y="1024.1913"
       x="46.582031"
       style="font-style:normal;font-weight:normal;font-size:6.25px;line-height:125%;font-family:sans-serif;text-align:end;letter-spacing:0px;word-spacing:0px;text-anchor:end;fill:#000000;fill-opacity:1;stroke:none;stroke-width:1px;stroke-linecap:butt;stroke-linejoin:miter;stroke-opacity:1"
       xml:space="preserve"><tspan
         y="1024.1913"
         x="46.582031"
         id="tspan4260-77"
         sodipodi:role="line">\footnotesize 1</tspan></text>
  </g>
</svg>
