<?xml version="1.0" encoding="UTF-8" standalone="no"?>
<!-- Created with Inkscape (http://www.inkscape.org/) -->

<svg
   xmlns:dc="http://purl.org/dc/elements/1.1/"
   xmlns:cc="http://creativecommons.org/ns#"
   xmlns:rdf="http://www.w3.org/1999/02/22-rdf-syntax-ns#"
   xmlns:svg="http://www.w3.org/2000/svg"
   xmlns="http://www.w3.org/2000/svg"
   xmlns:sodipodi="http://sodipodi.sourceforge.net/DTD/sodipodi-0.dtd"
   xmlns:inkscape="http://www.inkscape.org/namespaces/inkscape"
   width="543.94879"
   height="125.07819"
   viewBox="0 0 509.95201 117.26079"
   id="svg2"
   version="1.1"
   inkscape:version="0.92.1 r15371"
   sodipodi:docname="Differential_invariants.svg">
  <defs
     id="defs4">
    <marker
       inkscape:isstock="true"
       style="overflow:visible"
       id="marker4618"
       refX="0"
       refY="0"
       orient="auto"
       inkscape:stockid="Arrow1Mend">
      <path
         inkscape:connector-curvature="0"
         transform="matrix(-0.4,0,0,-0.4,-4,0)"
         style="fill:#000000;fill-opacity:1;fill-rule:evenodd;stroke:#000000;stroke-width:1.00000003pt;stroke-opacity:1"
         d="M 0,0 5,-5 -12.5,0 5,5 Z"
         id="path4616" />
    </marker>
    <marker
       inkscape:stockid="Arrow1Mstart"
       orient="auto"
       refY="0"
       refX="0"
       id="marker5666"
       style="overflow:visible"
       inkscape:isstock="true">
      <path
         id="path5664"
         d="M 0,0 5,-5 -12.5,0 5,5 Z"
         style="fill:#000000;fill-opacity:1;fill-rule:evenodd;stroke:#000000;stroke-width:1.00000003pt;stroke-opacity:1"
         transform="matrix(0.4,0,0,0.4,4,0)"
         inkscape:connector-curvature="0" />
    </marker>
    <marker
       inkscape:stockid="Arrow1Mend"
       orient="auto"
       refY="0"
       refX="0"
       id="marker5327"
       style="overflow:visible"
       inkscape:isstock="true">
      <path
         id="path5325"
         d="M 0,0 5,-5 -12.5,0 5,5 Z"
         style="fill:#000000;fill-opacity:1;fill-rule:evenodd;stroke:#000000;stroke-width:1.00000003pt;stroke-opacity:1"
         transform="matrix(-0.4,0,0,-0.4,-4,0)"
         inkscape:connector-curvature="0" />
    </marker>
    <marker
       inkscape:stockid="Arrow1Mstart"
       orient="auto"
       refY="0"
       refX="0"
       id="marker5269"
       style="overflow:visible"
       inkscape:isstock="true">
      <path
         id="path5267"
         d="M 0,0 5,-5 -12.5,0 5,5 Z"
         style="fill:#000000;fill-opacity:1;fill-rule:evenodd;stroke:#000000;stroke-width:1.00000003pt;stroke-opacity:1"
         transform="matrix(0.4,0,0,0.4,4,0)"
         inkscape:connector-curvature="0" />
    </marker>
    <marker
       inkscape:stockid="Arrow1Mend"
       orient="auto"
       refY="0"
       refX="0"
       id="marker4588"
       style="overflow:visible"
       inkscape:isstock="true">
      <path
         id="path4590"
         d="M 0,0 5,-5 -12.5,0 5,5 Z"
         style="fill:#000000;fill-opacity:1;fill-rule:evenodd;stroke:#000000;stroke-width:1.00000003pt;stroke-opacity:1"
         transform="matrix(-0.4,0,0,-0.4,-4,0)"
         inkscape:connector-curvature="0" />
    </marker>
    <marker
       inkscape:stockid="Arrow1Mend"
       orient="auto"
       refY="0"
       refX="0"
       id="marker4554"
       style="overflow:visible"
       inkscape:isstock="true">
      <path
         id="path4556"
         d="M 0,0 5,-5 -12.5,0 5,5 Z"
         style="fill:#000000;fill-opacity:1;fill-rule:evenodd;stroke:#000000;stroke-width:1.00000003pt;stroke-opacity:1"
         transform="matrix(-0.4,0,0,-0.4,-4,0)"
         inkscape:connector-curvature="0" />
    </marker>
    <marker
       inkscape:isstock="true"
       style="overflow:visible"
       id="marker4514"
       refX="0"
       refY="0"
       orient="auto"
       inkscape:stockid="Arrow1Mend">
      <path
         transform="matrix(-0.4,0,0,-0.4,-4,0)"
         style="fill:#000000;fill-opacity:1;fill-rule:evenodd;stroke:#000000;stroke-width:1.00000003pt;stroke-opacity:1"
         d="M 0,0 5,-5 -12.5,0 5,5 Z"
         id="path4516"
         inkscape:connector-curvature="0" />
    </marker>
  </defs>
  <sodipodi:namedview
     id="base"
     pagecolor="#ffffff"
     bordercolor="#666666"
     borderopacity="1.0"
     inkscape:pageopacity="0.0"
     inkscape:pageshadow="2"
     inkscape:zoom="5.1200002"
     inkscape:cx="250.38405"
     inkscape:cy="49.603684"
     inkscape:document-units="px"
     inkscape:current-layer="layer1"
     showgrid="true"
     inkscape:window-width="1284"
     inkscape:window-height="1018"
     inkscape:window-x="627"
     inkscape:window-y="0"
     inkscape:window-maximized="0"
     units="px"
     fit-margin-top="0"
     fit-margin-left="0"
     fit-margin-right="0"
     fit-margin-bottom="0">
    <inkscape:grid
       type="xygrid"
       id="grid4252"
       originx="1.8321616e-005"
       originy="18.750037"
       spacingx="0.93750003"
       spacingy="0.93750003" />
  </sodipodi:namedview>
  <metadata
     id="metadata7">
    <rdf:RDF>
      <cc:Work
         rdf:about="">
        <dc:format>image/svg+xml</dc:format>
        <dc:type
           rdf:resource="http://purl.org/dc/dcmitype/StillImage" />
        <dc:title></dc:title>
      </cc:Work>
    </rdf:RDF>
  </metadata>
  <g
     inkscape:label="Vrstva 1"
     inkscape:groupmode="layer"
     id="layer1"
     transform="translate(-225.99998,-884.85144)">
    <rect
       style="fill:#000000;fill-opacity:1;stroke:#080f07;stroke-width:0.93749994;stroke-miterlimit:4;stroke-dasharray:none;stroke-dashoffset:0;stroke-opacity:1"
       id="rect4590"
       width="112.5"
       height="65.625"
       x="226"
       y="936.48718" />
    <text
       xml:space="preserve"
       style="font-style:normal;font-weight:normal;font-size:10px;line-height:1.25;font-family:sans-serif;text-align:start;letter-spacing:0px;word-spacing:0px;text-anchor:start;fill:#000000;fill-opacity:1;stroke:none;stroke-width:0.9375"
       x="631.9375"
       y="915.37885"
       id="text4742"><tspan
         sodipodi:role="line"
         id="tspan4740"
         x="631.9375"
         y="924.2265"
         style="font-size:10px;stroke-width:0.9375" /></text>
    <path
       style="fill:#ffffff;fill-opacity:1;stroke:#ffffff;stroke-width:0.93749994px;stroke-linecap:butt;stroke-linejoin:miter;stroke-opacity:1"
       d="m 324.1445,991.79974 h -50.33202 c -9.375,0 -10.32096,-15.92911 -14.0625,-18.74996 -1.875,-0.9375 -2.8125,-0.9375 -4.6875,0 -3.75,4.6875 -6.5625,4.6875 -9.375,4.6875 -2.8125,0 -9.375,-1.875 -9.375,-9.375 0,-7.5 6.5625,-9.375 9.375,-9.375 2.8125,0 5.625,0 9.375,4.6875 1.875,0.9375 2.8125,0.9375 4.6875,0 3.75,-2.8125 4.6875,-18.75 14.0625,-18.74995 h 50.51513 c 3.85989,-1.3e-4 5.73489,1.87487 5.73489,5.73478 v 37.35351 c 0,2.84908 -3.75,3.78658 -5.918,3.78662 z"
       id="path4586"
       inkscape:connector-curvature="0"
       sodipodi:nodetypes="cccccccccccccc" />
    <path
       sodipodi:nodetypes="cccccccccccc"
       inkscape:connector-curvature="0"
       id="path4592"
       d="m 470.68749,991.79974 h -56.25002 c -9.375,0 -10.32096,-15.92911 -14.0625,-18.74996 -1.875,-0.9375 -2.8125,-0.9375 -4.6875,0 -3.75,4.6875 -6.5625,4.6875 -9.375,4.6875 -2.8125,0 -9.375,-1.875 -9.375,-9.375 0,-7.5 6.5625,-9.375 9.375,-9.375 2.8125,0 5.625,0 9.375,4.6875 1.875,0.9375 2.8125,0.9375 4.6875,0 3.75,-2.8125 4.6875,-18.75 14.0625,-18.74995 h 56.25002 z"
       style="fill:none;fill-opacity:1;stroke:#000000;stroke-width:0.93749994px;stroke-linecap:butt;stroke-linejoin:miter;stroke-opacity:1" />
    <path
       style="fill:none;fill-opacity:1;stroke:#000000;stroke-width:0.93749994px;stroke-linecap:butt;stroke-linejoin:miter;stroke-opacity:1"
       d="m 611.31248,991.79974 h -56.25002 c -9.375,0 -10.32096,-15.92911 -14.0625,-18.74996 -1.875,-0.9375 -2.8125,-0.9375 -4.6875,0 -3.75,4.6875 -6.5625,4.6875 -9.375,4.6875 -2.8125,0 -9.375,-1.875 -9.375,-9.375 0,-7.5 6.5625,-9.375 9.375,-9.375 2.8125,0 5.625,0 9.375,4.6875 1.875,0.9375 2.8125,0.9375 4.6875,0 3.75,-2.8125 4.6875,-18.75 14.0625,-18.74995 h 56.25002 z"
       id="path4594"
       inkscape:connector-curvature="0"
       sodipodi:nodetypes="cccccccccccc" />
  </g>
</svg>
