<?xml version="1.0" encoding="UTF-8" standalone="no"?>
<!-- Created with Inkscape (http://www.inkscape.org/) -->

<svg
   xmlns:dc="http://purl.org/dc/elements/1.1/"
   xmlns:cc="http://creativecommons.org/ns#"
   xmlns:rdf="http://www.w3.org/1999/02/22-rdf-syntax-ns#"
   xmlns:svg="http://www.w3.org/2000/svg"
   xmlns="http://www.w3.org/2000/svg"
   xmlns:sodipodi="http://sodipodi.sourceforge.net/DTD/sodipodi-0.dtd"
   xmlns:inkscape="http://www.inkscape.org/namespaces/inkscape"
   width="380"
   height="100"
   viewBox="0 0 380 100"
   id="svg2"
   version="1.1"
   inkscape:version="0.91 r13725"
   sodipodi:docname="Region_based.svg">
  <defs
     id="defs4" />
  <sodipodi:namedview
     id="base"
     pagecolor="#ffffff"
     bordercolor="#666666"
     borderopacity="1.0"
     inkscape:pageopacity="0.0"
     inkscape:pageshadow="2"
     inkscape:zoom="2.8924023"
     inkscape:cx="204.16508"
     inkscape:cy="-0.45033112"
     inkscape:document-units="px"
     inkscape:current-layer="layer1"
     showgrid="true"
     units="px"
     inkscape:window-width="1920"
     inkscape:window-height="1017"
     inkscape:window-x="-8"
     inkscape:window-y="-8"
     inkscape:window-maximized="1">
    <inkscape:grid
       type="xygrid"
       id="grid4136" />
  </sodipodi:namedview>
  <metadata
     id="metadata7">
    <rdf:RDF>
      <cc:Work
         rdf:about="">
        <dc:format>image/svg+xml</dc:format>
        <dc:type
           rdf:resource="http://purl.org/dc/dcmitype/StillImage" />
        <dc:title />
      </cc:Work>
    </rdf:RDF>
  </metadata>
  <g
     inkscape:label="Vrstva 1"
     inkscape:groupmode="layer"
     id="layer1"
     transform="translate(0,-952.36226)">
    <text
       xml:space="preserve"
       style="font-style:normal;font-weight:normal;font-size:3.75px;line-height:125%;font-family:sans-serif;text-align:center;letter-spacing:0px;word-spacing:0px;text-anchor:middle;fill:#000000;fill-opacity:1;stroke:none;stroke-width:1px;stroke-linecap:butt;stroke-linejoin:miter;stroke-opacity:1"
       x="75.000282"
       y="967.36194"
       id="text4285"
       sodipodi:linespacing="125%"><tspan
         sodipodi:role="line"
         id="tspan4287"
         x="75.000282"
         y="967.36194">\footnotesize $x_1$</tspan></text>
    <text
       xml:space="preserve"
       style="font-style:normal;font-weight:normal;font-size:3.75px;line-height:125%;font-family:sans-serif;text-align:start;letter-spacing:0px;word-spacing:0px;text-anchor:start;fill:#000000;fill-opacity:1;stroke:none;stroke-width:1px;stroke-linecap:butt;stroke-linejoin:miter;stroke-opacity:1"
       x="110.00028"
       y="987.36188"
       id="text4289"
       sodipodi:linespacing="125%"><tspan
         sodipodi:role="line"
         id="tspan4291"
         x="110.00028"
         y="987.36188">\footnotesize $x_2$</tspan></text>
    <text
       xml:space="preserve"
       style="font-style:normal;font-weight:normal;font-size:3.75px;line-height:125%;font-family:sans-serif;text-align:start;letter-spacing:0px;word-spacing:0px;text-anchor:start;fill:#000000;fill-opacity:1;stroke:none;stroke-width:1px;stroke-linecap:butt;stroke-linejoin:miter;stroke-opacity:1"
       x="115.00028"
       y="1022.362"
       id="text4293"
       sodipodi:linespacing="125%"><tspan
         sodipodi:role="line"
         id="tspan4295"
         x="115.00028"
         y="1022.362">\footnotesize $x_3$</tspan></text>
    <text
       xml:space="preserve"
       style="font-style:normal;font-weight:normal;font-size:3.75px;line-height:125%;font-family:sans-serif;text-align:center;letter-spacing:0px;word-spacing:0px;text-anchor:middle;fill:#000000;fill-opacity:1;stroke:none;stroke-width:1px;stroke-linecap:butt;stroke-linejoin:miter;stroke-opacity:1"
       x="50.000282"
       y="1042.3619"
       id="text4297"
       sodipodi:linespacing="125%"><tspan
         sodipodi:role="line"
         id="tspan4299"
         x="50.000282"
         y="1042.3619">\footnotesize $x_4$</tspan></text>
    <text
       xml:space="preserve"
       style="font-style:normal;font-weight:normal;font-size:3.75px;line-height:125%;font-family:sans-serif;text-align:end;letter-spacing:0px;word-spacing:0px;text-anchor:end;fill:#000000;fill-opacity:1;stroke:none;stroke-width:1px;stroke-linecap:butt;stroke-linejoin:miter;stroke-opacity:1"
       x="40.000282"
       y="992.36188"
       id="text4301"
       sodipodi:linespacing="125%"><tspan
         sodipodi:role="line"
         id="tspan4303"
         x="40.000282"
         y="992.36188">\footnotesize $x_5$</tspan></text>
    <text
       xml:space="preserve"
       style="font-style:normal;font-weight:normal;font-size:3.75px;line-height:125%;font-family:sans-serif;text-align:start;letter-spacing:0px;word-spacing:0px;text-anchor:start;fill:#000000;fill-opacity:1;stroke:none;stroke-width:1px;stroke-linecap:butt;stroke-linejoin:miter;stroke-opacity:1"
       x="355.00067"
       y="992.36188"
       id="text4401"
       sodipodi:linespacing="125%"><tspan
         sodipodi:role="line"
         id="tspan4403"
         x="355.00067"
         y="992.36188">\footnotesize $\tilde{x}_1$</tspan></text>
    <text
       xml:space="preserve"
       style="font-style:normal;font-weight:normal;font-size:3.75px;line-height:125%;font-family:sans-serif;text-align:start;letter-spacing:0px;word-spacing:0px;text-anchor:start;fill:#000000;fill-opacity:1;stroke:none;stroke-width:1px;stroke-linecap:butt;stroke-linejoin:miter;stroke-opacity:1"
       x="355.00067"
       y="1026.3621"
       id="text4405"
       sodipodi:linespacing="125%"><tspan
         sodipodi:role="line"
         id="tspan4407"
         x="355.00067"
         y="1026.3621">\footnotesize $\tilde{x}_2$</tspan></text>
    <text
       xml:space="preserve"
       style="font-style:normal;font-weight:normal;font-size:3.75px;line-height:125%;font-family:sans-serif;text-align:end;letter-spacing:0px;word-spacing:0px;text-anchor:end;fill:#000000;fill-opacity:1;stroke:none;stroke-width:1px;stroke-linecap:butt;stroke-linejoin:miter;stroke-opacity:1;"
       x="323.21191"
       y="1032.7147"
       id="text4409"
       sodipodi:linespacing="125%"><tspan
         sodipodi:role="line"
         id="tspan4411"
         x="297.297"
         y="1032.7147">\footnotesize $\tilde{x}_3$</tspan></text>
    <text
       xml:space="preserve"
       style="font-style:normal;font-weight:normal;font-size:3.75px;line-height:125%;font-family:sans-serif;text-align:end;letter-spacing:0px;word-spacing:0px;text-anchor:end;fill:#000000;fill-opacity:1;stroke:none;stroke-width:1px;stroke-linecap:butt;stroke-linejoin:miter;stroke-opacity:1"
       x="292.00067"
       y="1002.3619"
       id="text4413"
       sodipodi:linespacing="125%"><tspan
         sodipodi:role="line"
         id="tspan4415"
         x="292.00067"
         y="1002.3619">\footnotesize $\tilde{x}_4$</tspan></text>
    <text
       xml:space="preserve"
       style="font-style:normal;font-weight:normal;font-size:3.75px;line-height:125%;font-family:sans-serif;text-align:start;letter-spacing:0px;word-spacing:0px;text-anchor:start;fill:#000000;fill-opacity:1;stroke:none;stroke-width:1px;stroke-linecap:butt;stroke-linejoin:miter;stroke-opacity:1;"
       x="332.47156"
       y="978.17029"
       id="text4417"
       sodipodi:linespacing="125%"><tspan
         sodipodi:role="line"
         id="tspan4419"
         x="358.38647"
         y="978.17029">\footnotesize $\tilde{x}_5$</tspan></text>
    <text
       xml:space="preserve"
       style="font-style:normal;font-weight:normal;font-size:6.25px;line-height:125%;font-family:sans-serif;text-align:center;letter-spacing:0px;word-spacing:0px;text-anchor:middle;fill:#000000;fill-opacity:1;stroke:none;stroke-width:1px;stroke-linecap:butt;stroke-linejoin:miter;stroke-opacity:1"
       x="200.00015"
       y="1002.3622"
       id="text4434"
       sodipodi:linespacing="125%"><tspan
         sodipodi:role="line"
         id="tspan4436"
         x="200.00015"
         y="1002.3622"
         style="font-size:3.75px">$\overset{\textrm{korespondence}}{\Longleftrightarrow}$</tspan></text>
    <g
       id="g4226">
      <rect
         y="957.36224"
         x="25.000145"
         height="90"
         width="110"
         id="rect4421"
         style="opacity:1;fill:none;fill-opacity:1;fill-rule:evenodd;stroke:#000000;stroke-width:1;stroke-miterlimit:4;stroke-dasharray:none;stroke-dashoffset:0;stroke-opacity:1" />
      <rect
         style="opacity:1;fill:none;fill-opacity:1;fill-rule:evenodd;stroke:#000000;stroke-width:1;stroke-miterlimit:4;stroke-dasharray:none;stroke-dashoffset:0;stroke-opacity:1"
         id="rect4423"
         width="88"
         height="72"
         x="281.00052"
         y="966.36224" />
      <circle
         style="opacity:1;fill:#c50d0d;fill-opacity:1;fill-rule:evenodd;stroke:#109e00;stroke-width:0.36363637;stroke-miterlimit:4;stroke-dasharray:none;stroke-dashoffset:0;stroke-opacity:1"
         id="path4249"
         cx="50.000282"
         cy="1032.3619"
         r="1.8181819" />
      <circle
         r="1.8181819"
         cy="972.36194"
         cx="75.000282"
         id="circle4251"
         style="opacity:1;fill:#c50d0d;fill-opacity:1;fill-rule:evenodd;stroke:#109e00;stroke-width:0.36363637;stroke-miterlimit:4;stroke-dasharray:none;stroke-dashoffset:0;stroke-opacity:1" />
      <circle
         style="opacity:1;fill:#c50d0d;fill-opacity:1;fill-rule:evenodd;stroke:#109e00;stroke-width:0.36363637;stroke-miterlimit:4;stroke-dasharray:none;stroke-dashoffset:0;stroke-opacity:1"
         id="circle4253"
         cx="110.00028"
         cy="1017.362"
         r="1.8181819" />
      <circle
         r="1.8181819"
         cy="992.36188"
         cx="45.000282"
         id="circle4255"
         style="opacity:1;fill:#c50d0d;fill-opacity:1;fill-rule:evenodd;stroke:#109e00;stroke-width:0.36363637;stroke-miterlimit:4;stroke-dasharray:none;stroke-dashoffset:0;stroke-opacity:1" />
      <circle
         style="opacity:1;fill:#c50d0d;fill-opacity:1;fill-rule:evenodd;stroke:#109e00;stroke-width:0.36363637;stroke-miterlimit:4;stroke-dasharray:none;stroke-dashoffset:0;stroke-opacity:1"
         id="circle4259"
         cx="105.00028"
         cy="987.36188"
         r="1.8181819" />
      <path
         style="fill:none;fill-rule:evenodd;stroke:#109e00;stroke-width:0.5;stroke-linecap:butt;stroke-linejoin:miter;stroke-miterlimit:4;stroke-dasharray:1.5, 1.50000000000000000;stroke-dashoffset:0;stroke-opacity:1"
         d="m 40,997.36226 c 0.05852,0.52131 0.362899,0.11449 0.532371,0.19922 0.05324,0.0266 0.07674,0.0933 0.126269,0.12627 0.07831,0.0522 0.174229,0.0741 0.252538,0.12627 0.04953,0.033 0.07674,0.0933 0.126269,0.12627 0.07831,0.0522 0.17423,0.0741 0.252538,0.12627 0.04953,0.033 0.07674,0.0933 0.126269,0.12627 0.08418,0.0421 0.168359,0.0842 0.252539,0.12627 0.04209,0 0.08862,-0.0188 0.126269,0 0.05324,0.0266 0.07303,0.0996 0.126269,0.12627 0.101015,0.0505 0.277792,-0.0505 0.378807,0 0.05324,0.0266 0.0698,0.10744 0.126269,0.12627 0.07986,0.0266 0.177246,-0.0376 0.252538,0 0.03765,0.0188 -0.02976,0.0965 0,0.12627 0.02976,0.0298 0.08634,-0.0133 0.126269,0 0.08929,0.0298 0.163253,0.0965 0.252538,0.12626 0.03993,0.0133 0.09651,-0.0298 0.126269,0 0.02976,0.0298 -0.03765,0.10745 0,0.12627 0.252539,0.12627 0.189404,-0.0631 0.378808,0 0.08928,0.0298 0.163252,0.0965 0.252538,0.12627 0.101634,0.0339 0.424387,-0.0403 0.505076,0 0.05324,0.0266 0.07303,0.0996 0.126269,0.12627 0.03843,0.0192 0.321941,0 0.378807,0 0.252538,0 0.505077,0 0.757615,0 0.547166,0 1.094332,0 1.641498,0 0.589255,0 1.178511,0 1.767767,0 0.0895,0 0.724967,0.0163 0.757614,0 0.106479,-0.0532 0.146059,-0.1993 0.252538,-0.25254 0.101015,-0.0505 0.277792,0.0505 0.378807,0 0.05324,-0.0266 0.07303,-0.0996 0.126269,-0.12627 0.07529,-0.0376 0.172679,0.0266 0.252538,0 0.08418,-0.0421 0.168359,-0.0842 0.252539,-0.12626 0,-0.0421 -0.02976,-0.0965 0,-0.12627 0.02976,-0.0298 0.08862,0.0188 0.126269,0 0.135735,-0.0679 0.257402,-0.16149 0.378807,-0.25254 0.04762,-0.0357 0.07303,-0.0996 0.126269,-0.12627 0.03765,-0.0188 0.08862,0.0188 0.126269,0 0.05324,-0.0266 0.07674,-0.0933 0.126269,-0.12627 0.07831,-0.0522 0.174229,-0.0741 0.252538,-0.12627 0.04953,-0.033 0.08418,-0.0842 0.126269,-0.12627 0.04209,-0.0421 0.09325,-0.0767 0.126269,-0.12627 0.05221,-0.0783 0.05972,-0.18599 0.126269,-0.25254 0.06655,-0.0666 0.171835,-0.0779 0.252539,-0.12626 0.13013,-0.0781 0.271499,-0.14523 0.378807,-0.25254 0.02976,-0.0298 -0.02976,-0.0965 0,-0.12627 0.261255,-0.26126 -0.01021,0.39923 0.252538,-0.12627 0.01882,-0.0376 -0.01882,-0.0886 0,-0.12627 0.418782,-0.41878 -0.05952,0.11905 0.126269,-0.25254 0.02662,-0.0532 0.09965,-0.073 0.126269,-0.12627 0.01882,-0.0377 -0.01882,-0.0886 0,-0.12627 0.02662,-0.0532 0.07303,-0.0996 0.126269,-0.12626 0.03765,-0.0188 0.107446,0.0376 0.126269,0 0.03765,-0.0753 -0.03765,-0.17725 0,-0.25254 0.01882,-0.0376 0.09651,0.0298 0.126269,0 0.02976,-0.0298 -0.02976,-0.0965 0,-0.12627 0.06655,-0.0666 0.185989,-0.0597 0.252538,-0.12627 1.21e-4,-1.2e-4 -1.9e-4,-0.37824 0,-0.37881 0.131376,-0.39412 0.08418,0.0421 0.252539,-0.12627 0.02976,-0.0298 0,-0.0842 0,-0.12627 0,-0.21045 0,-0.42089 0,-0.63134 0,-0.12627 -0.03993,-0.25902 0,-0.37881 0.01882,-0.0565 0.107446,-0.0698 0.126269,-0.12627 0.03788,-0.11364 -0.03788,-0.26516 0,-0.37881 0.02976,-0.0893 0.103442,-0.16123 0.126269,-0.25253 0.03062,-0.1225 0,-0.25254 0,-0.37881 0,-0.25254 0,-0.50508 0,-0.75762 0,-0.03 0.01415,-0.47677 0,-0.50507 -0.02662,-0.0532 -0.09965,-0.073 -0.126269,-0.12627 -0.02301,-0.046 0,-0.55859 0,-0.63135 0,-0.0421 0.02976,-0.0965 0,-0.12626 -0.02976,-0.0298 -0.08418,0 -0.126269,0 -0.04209,-0.0421 -0.09325,-0.0767 -0.12627,-0.12627 -0.250685,-0.1138 -0.04866,-0.34986 -0.126269,-0.50508 -0.04939,-0.0988 -0.133872,0.11106 -0.252538,-0.12627 -0.03765,-0.0753 0.03765,-0.17725 0,-0.25254 -0.262751,-0.5255 0.0087,0.13499 -0.252538,-0.12627 -0.02976,-0.0298 0.01331,-0.0863 0,-0.12627 -0.304873,-0.91462 0.0364,0.19908 -0.252538,-0.3788 -0.03765,-0.0753 0.03765,-0.17725 0,-0.25254 -0.02662,-0.0532 -0.08418,-0.0842 -0.126269,-0.12627 -0.04209,-0.0421 -0.08418,-0.0842 -0.126269,-0.12627 -0.168359,-0.16836 -0.336718,-0.33672 -0.505076,-0.50508 -0.04209,-0.0421 -0.09965,-0.073 -0.126269,-0.12626 -0.01882,-0.0376 0.02976,-0.0965 0,-0.12627 -0.02976,-0.0298 -0.09651,0.0298 -0.12627,0 -0.261255,-0.26126 0.399233,0.0102 -0.126269,-0.25254 -0.03765,-0.0188 -0.08418,0 -0.126269,0 -0.08418,-0.0421 -0.177246,-0.0698 -0.252538,-0.12627 -0.09524,-0.0714 -0.186502,-0.15349 -0.252538,-0.25254 -0.130628,-0.19594 0.214497,-0.0822 -0.126269,-0.25254 -0.03765,-0.0188 -0.08862,0.0188 -0.126269,0 -0.05324,-0.0266 -0.08418,-0.0842 -0.126269,-0.12627 -0.09863,-0.0986 -0.26985,-0.30616 -0.378807,-0.3788 -0.07831,-0.0522 -0.17423,-0.0741 -0.252539,-0.12627 -0.04953,-0.033 -0.0698,-0.10745 -0.126269,-0.12627 -0.07986,-0.0266 -0.172678,0.0266 -0.252538,0 -0.01569,-0.005 -0.367976,-0.35715 -0.378807,-0.37881 -0.01882,-0.0376 0.02976,-0.0965 0,-0.12627 -0.02976,-0.0298 -0.08418,0 -0.126269,0 -0.04209,-0.0842 -0.05972,-0.18599 -0.126269,-0.25254 -0.492795,-0.49279 -0.06781,0.0292 -0.378807,-0.12626 -0.05324,-0.0266 -0.08418,-0.0842 -0.126269,-0.12627 -0.08418,-0.0842 -0.168359,-0.16836 -0.252538,-0.25254 0,-0.0421 0.02335,-0.0913 0,-0.12627 -0.06604,-0.0991 -0.168359,-0.16836 -0.252539,-0.25254 -0.04209,-0.0421 -0.09965,-0.073 -0.126269,-0.12627 -0.04931,-0.0986 -0.142207,-0.52101 -0.252538,-0.63134 -0.261255,-0.26126 0.01021,0.39923 -0.252538,-0.12627 -0.01882,-0.0376 0.02976,-0.0965 0,-0.12627 -0.02976,-0.0298 -0.08862,0.0188 -0.126269,0 -0.167895,-0.0839 -0.08464,-0.16859 -0.252538,-0.25254 -0.03765,-0.0188 -0.08418,0 -0.126269,0 -0.04209,-0.0421 -0.07303,-0.0997 -0.126269,-0.12627 -0.07529,-0.0376 -0.177246,0.0376 -0.252538,0 -0.577884,-0.28894 0.535812,0.0523 -0.378808,-0.25254 -0.03993,-0.0133 -0.08418,0 -0.126269,0 -0.09027,0 -0.692978,0.0215 -0.757614,0 -0.05647,-0.0188 -0.07303,-0.0996 -0.126269,-0.12627 -0.05393,-0.027 -0.58143,0 -0.631346,0 -0.105813,0 -0.577679,-0.0268 -0.631345,0 -0.03765,0.0188 0.01882,0.0886 0,0.12627 -0.02662,0.0532 -0.09965,0.073 -0.126269,0.12627 -0.01882,0.0376 0,0.0842 0,0.12627 0,0.0842 0.02662,0.17268 0,0.25254 -0.01882,0.0565 -0.09965,0.073 -0.126269,0.12627 -0.03765,0.0753 0.02662,0.17268 0,0.25254 -0.077,0.231 -0.216268,0.34253 -0.378807,0.50507 -0.04209,0.0421 -0.09325,0.0767 -0.126269,0.12627 -0.05221,0.0783 -0.07406,0.17423 -0.126269,0.25254 -0.03302,0.0495 -0.09965,0.073 -0.126269,0.12627 -0.03765,0.0753 0.05952,0.19301 0,0.25254 -0.02976,0.0298 -0.09651,-0.0298 -0.126269,0 -0.02976,0.0298 0,0.0842 0,0.12627 0,0.25253 0,0.50507 0,0.75761 0,0.0421 0.02976,0.0965 0,0.12627 -0.02976,0.0298 -0.09651,-0.0298 -0.12627,0 -0.02976,0.0298 0.03993,0.11296 0,0.12627 -0.119789,0.0399 -0.252538,0 -0.378807,0 -0.294628,0 -0.589255,0 -0.883883,0 -0.126269,0 -0.259018,-0.0399 -0.378807,0 -0.09581,0.0319 -0.389028,0.44705 -0.505077,0.50507 -0.03765,0.0188 -0.09651,-0.0298 -0.126269,0 -0.0156,0.0156 0,0.4259 0,0.50508 0,0.4209 0,0.84179 0,1.26269 0,0.10242 0.01895,0.58398 0,0.63135 -0.05636,0.1409 -0.18467,0.24307 -0.252538,0.3788 -0.02283,0.0457 0,0.54352 0,0.63135 0,0.50508 0,1.01015 0,1.51523 0,0.63134 0,1.26269 0,1.89403 0,0.21045 0,0.4209 0,0.63135 0,0.12627 0.02076,0.25426 0,0.37881 -0.08758,0.5255 -0.115145,0.21916 -0.252538,0.63134 -0.04472,0.13418 0.04472,0.3709 0,0.50508 0.228655,0.52828 -0.199298,0.14606 -0.252538,0.25254 -0.03765,0.0753 0.03765,0.17724 0,0.25254 -0.01882,0.0376 -0.09651,-0.0298 -0.126269,0 -0.05952,0.0595 0.03765,0.17724 0,0.25253 -0.03357,0.0671 -0.251383,0.21286 -0.252538,0.25254 -0.0079,0.2722 0.06598,0.54062 0.09897,0.81093 z"
         id="path4484"
         inkscape:connector-curvature="0" />
      <path
         style="fill:none;fill-rule:evenodd;stroke:#109e00;stroke-width:0.5;stroke-linecap:butt;stroke-linejoin:miter;stroke-miterlimit:4;stroke-dasharray:1.5, 1.50000000000000000;stroke-dashoffset:0;stroke-opacity:1"
         d="m 68,970.36226 c 0.16513,0.0864 0.282223,-0.0322 0.392857,-0.14286 0.02976,-0.0298 0.07046,-0.0516 0.08929,-0.0893 0.01331,-0.0266 -0.02104,-0.0682 0,-0.0893 0.19498,-0.19498 0.144965,-0.0186 0.357143,-0.0893 0.03993,-0.0133 0.05952,-0.0595 0.08929,-0.0893 0.02976,-0.0298 0.07046,-0.0516 0.08929,-0.0893 0.01331,-0.0266 -0.01651,-0.0645 0,-0.0893 0.09345,-0.14018 0.31376,-0.27754 0.446429,-0.35714 0.08047,-0.17726 0.247386,-0.0344 0.357143,-0.0893 0.02662,-0.0133 -0.02105,-0.0682 0,-0.0893 0.04706,-0.0471 0.123199,-0.0524 0.178571,-0.0893 0.03502,-0.0233 0.04936,-0.076 0.08929,-0.0893 0.05647,-0.0188 0.119048,0 0.178571,0 0.02976,0 0.06267,0.0133 0.08929,0 0.07529,-0.0377 0.09691,-0.15816 0.178571,-0.17857 0.08662,-0.0217 0.181238,0.0217 0.267858,0 0.04083,-0.0102 0.05164,-0.0705 0.08929,-0.0893 0.02662,-0.0133 0.06267,0.0133 0.08929,0 0.03765,-0.0188 0.04936,-0.076 0.08929,-0.0893 4.04e-4,-1.4e-4 0.267772,8e-5 0.267857,0 0.04706,-0.0471 0.03391,-0.14166 0.08929,-0.17857 0.04953,-0.033 0.119047,0 0.178571,0 0.119048,0 0.238095,0 0.357143,0 0.02976,0 0.06105,0.009 0.08929,0 0.06313,-0.021 0.114008,-0.0731 0.178571,-0.0893 0.135984,-0.034 0.308072,0.0231 0.446429,0 0.121041,-0.0202 0.236101,-0.0691 0.357142,-0.0893 0.117428,-0.0196 0.238096,0 0.357143,0 0.208334,0 0.416667,0 0.625,0 0.714286,0 1.428572,0 2.142857,0 0.535715,0 1.071429,0 1.607143,0 0.178572,0 0.357143,0 0.535715,0 0.08929,0 0.181237,-0.0216 0.267857,0 0.05744,0.0144 0.472254,0.22978 0.535714,0.26785 0.08929,0.0595 0.178571,0.11905 0.267857,0.17857 0.02976,0.0298 0.05427,0.0659 0.08929,0.0893 0.144394,0.0963 0.295753,0.18176 0.446428,0.26786 0.04504,0.0257 0.239775,0.0943 0.267858,0.17857 0.01882,0.0565 -0.02662,0.12533 0,0.17857 0.03765,0.0753 0.140925,0.10328 0.178571,0.17858 0.02662,0.0532 -0.01882,0.1221 0,0.17857 0.02662,0.0799 0.131877,0.10853 0.178571,0.17857 0.03692,0.0554 0.04936,0.12533 0.08929,0.17857 0.481673,0.64223 -0.09914,-0.18843 0.357143,0.26786 0.02105,0.021 -0.01651,0.0645 0,0.0893 0.04669,0.07 0.125985,0.11284 0.178571,0.17857 0.461279,-0.0169 0.104742,0.2464 0.178572,0.35714 0.105709,0.15856 0.262594,0.28097 0.357143,0.44643 0.02953,0.0517 -0.01882,0.1221 0,0.17857 0.01331,0.0399 0.07365,0.0502 0.08929,0.0893 0.04557,0.11394 0.05557,0.23915 0.08929,0.35714 0.02586,0.0905 0.07761,0.17447 0.08929,0.26786 0.01846,0.14766 0,0.29762 0,0.44643 0,0.29762 0,0.59524 0,0.89286 0,0.0893 0,0.17857 0,0.26785 0,0.0595 -0.01167,0.12021 0,0.17857 0.01846,0.0923 0.07083,0.17557 0.08929,0.26786 0.01167,0.0584 0,0.11905 0,0.17857 0,0.20834 0,0.41667 0,0.625 0,0.0692 0.01671,0.54145 0,0.625 -0.150352,0.75176 -0.0014,0.003 -0.178572,0.35715 -0.01331,0.0266 0.01331,0.0627 0,0.0893 -0.01882,0.0376 -0.05952,0.0595 -0.08929,0.0893 -0.05952,0.0893 -0.130582,0.17188 -0.178572,0.26785 -0.04209,0.0842 -0.05433,0.18048 -0.08929,0.26786 -0.02472,0.0618 -0.06457,0.11678 -0.08929,0.17857 -0.03495,0.0874 -0.03282,0.19257 -0.08929,0.26786 -0.03993,0.0532 -0.138642,0.0361 -0.178572,0.0893 -0.05647,0.0753 -0.0472,0.18368 -0.08929,0.26786 -0.04799,0.096 -0.130582,0.17188 -0.178572,0.26785 -0.01331,0.0266 0.0094,0.0611 0,0.0893 -0.02104,0.0631 -0.07315,0.11401 -0.08929,0.17857 -0.01444,0.0577 0.02662,0.12534 0,0.17858 -0.160558,0.32111 -0.154723,0.0654 -0.357143,0.26785 -0.09412,0.0941 -0.09871,0.25067 -0.178572,0.35715 -0.05051,0.0673 -0.125985,0.11284 -0.178571,0.17857 -0.06704,0.0838 -0.123362,0.17584 -0.178572,0.26785 -0.03424,0.0571 -0.04223,0.13152 -0.08929,0.17858 -0.04706,0.0471 -0.131514,0.0422 -0.178572,0.0893 -0.04706,0.0471 -0.04223,0.13151 -0.08929,0.17857 -0.02105,0.021 -0.05952,0 -0.08929,0 -0.05952,0.0298 -0.131514,0.0422 -0.178572,0.0893 -0.02104,0.021 0.02105,0.0682 0,0.0893 -0.04706,0.0471 -0.119047,0.0595 -0.178571,0.0893 -0.05952,0.0298 -0.114009,0.0732 -0.178571,0.0893 -0.05775,0.0144 -0.120825,-0.0144 -0.178572,0 -0.06456,0.0161 -0.113314,0.0762 -0.178571,0.0893 -0.507768,0 -0.05878,-0.0399 -0.446429,0.0893 -0.0847,0.0282 -0.181237,-0.0217 -0.267857,0 -0.718166,0.17954 0.185947,-0.003 -0.267857,0.17857 -0.113935,0.0456 -0.243208,0.0437 -0.357143,0.0893 -0.453804,0.18152 0.450309,-9.7e-4 -0.267857,0.17857 -0.05775,0.0144 -0.122102,-0.0188 -0.178572,0 -0.03993,0.0133 -0.05952,0.0595 -0.08929,0.0893 -0.08929,0.0298 -0.175023,0.0738 -0.267857,0.0893 -0.08807,0.0147 -0.178572,0 -0.267858,0 -0.02976,0 -0.06266,-0.0133 -0.08929,0 -0.03765,0.0188 -0.05952,0.0595 -0.08929,0.0893 -0.148809,0.0893 -0.291209,0.19025 -0.446429,0.26786 -0.02662,0.0133 -0.06041,-0.007 -0.08929,0 -0.424599,0.10615 -0.123972,0.0951 -0.625,0.17857 -0.05871,0.01 -0.123305,-0.0221 -0.178572,0 -0.09963,0.0399 -0.168224,0.13872 -0.267857,0.17857 -0.05527,0.0221 -0.119047,0 -0.178571,0 -0.208334,0 -0.416667,0 -0.625,0 -0.101539,0 -0.489115,0.0186 -0.535715,0 -0.09963,-0.0399 -0.178571,-0.11905 -0.267857,-0.17857 -0.08929,-0.0595 -0.178571,-0.11905 -0.267857,-0.17857 -0.08929,-0.0595 -0.175841,-0.12337 -0.267857,-0.17858 -0.05707,-0.0342 -0.135967,-0.0381 -0.178571,-0.0893 -0.111098,-0.13331 -0.145146,-0.32371 -0.267858,-0.44642 -0.382744,-0.38275 -0.169977,0.21593 -0.446428,-0.26786 -0.07952,-0.13916 -0.115437,-0.29912 -0.178572,-0.44643 -0.0049,-0.0114 -0.178014,-0.35436 -0.178571,-0.35714 -0.01751,-0.0876 0.01468,-0.17979 0,-0.26786 -0.01547,-0.0928 -0.07381,-0.17502 -0.08929,-0.26786 -0.01468,-0.0881 0.01468,-0.17978 0,-0.26785 -0.182702,-1.09622 0.03701,0.46816 -0.267857,-0.44643 -0.03765,-0.11294 0.03765,-0.24421 0,-0.35715 -0.02662,-0.0798 -0.131877,-0.10853 -0.178571,-0.17857 -0.07383,-0.11074 -0.112536,-0.24158 -0.178572,-0.35714 -0.106479,-0.18634 -0.261163,-0.34376 -0.357143,-0.53571 -0.04209,-0.0842 -0.03282,-0.19257 -0.08929,-0.26786 -0.03993,-0.0532 -0.131514,-0.0422 -0.178572,-0.0893 -0.02105,-0.021 0.01651,-0.0645 0,-0.0893 -0.04669,-0.07 -0.131877,-0.10853 -0.178571,-0.17857 -0.03302,-0.0495 0.03302,-0.12905 0,-0.17857 -0.04669,-0.07 -0.140925,-0.10328 -0.178572,-0.17858 -0.05488,-0.10975 -0.02615,-0.25191 -0.08929,-0.35714 -0.03424,-0.0571 -0.119048,-0.0595 -0.178572,-0.0893 -0.05952,-0.14881 -0.115437,-0.29911 -0.178571,-0.44643 -0.194212,-0.45316 0.01223,0.0183 -0.178572,-0.26785 -0.196711,-0.045 -0.0472,-0.18368 -0.08929,-0.26786 -0.01882,-0.0376 -0.05952,-0.0595 -0.08929,-0.0893 -0.02976,-0.0298 -0.04845,-0.0791 -0.08929,-0.0893 -0.214728,-0.0537 -0.277201,0.0799 -0.446428,-0.0893 -0.02105,-0.0211 0.01651,-0.0645 0,-0.0893 -0.321115,-0.48167 -0.02779,0.0615 -0.357143,-0.26786 -0.02105,-0.021 0.02105,-0.0682 0,-0.0893 -0.02105,-0.021 -0.06267,0.0133 -0.08929,0 -0.371586,-0.18579 0.09545,0.006 -0.08929,-0.17857 -0.02104,-0.021 -0.06824,0.021 -0.08929,0 -0.02105,-0.021 0.02105,-0.0682 0,-0.0893 -0.04706,-0.0471 -0.131514,-0.0422 -0.178572,-0.0893 -0.04209,-0.0421 0.02662,-0.12533 0,-0.17857 -0.01882,-0.0376 -0.07908,-0.0485 -0.08929,-0.0893 -0.02165,-0.0866 0,-0.17857 0,-0.26786 0,-0.17857 0,-0.35714 0,-0.53571 0,-0.17857 0,-0.35714 0,-0.53572 0,-0.0595 -0.01882,-0.1221 0,-0.17857 0.01331,-0.0399 0.07046,-0.0516 0.08929,-0.0893 0.01331,-0.0266 0,-0.0595 0,-0.0893 0.02976,-0.0595 0.05237,-0.12319 0.08929,-0.17857 -0.0089,-0.17688 0.131514,-0.0422 0.178571,-0.0893 0.02105,-0.0211 -0.02104,-0.0682 0,-0.0893 0.02105,-0.0211 0.06824,0.021 0.08929,0 0.02105,-0.0211 -0.01331,-0.0627 0,-0.0893 0.01882,-0.0376 0.07046,-0.0516 0.08929,-0.0893 0.08432,-0.16865 -0.215176,-0.0473 0.178571,-0.17857 0.02823,-0.009 0.06105,0.009 0.08929,0 0.06314,-0.021 0.14881,-0.14881 0.178571,-0.0893 0.02976,0.0595 -0.172546,0.15556 -0.178571,0.0893 -0.01516,-0.16687 0.09526,-0.32137 0.142875,-0.48208"
         id="path4490"
         inkscape:connector-curvature="0" />
      <path
         style="fill:none;fill-rule:evenodd;stroke:#109e00;stroke-width:0.5;stroke-linecap:butt;stroke-linejoin:miter;stroke-miterlimit:4;stroke-dasharray:1.5, 1.50000000000000000;stroke-dashoffset:0;stroke-opacity:1"
         d="m 101,982.36226 c -0.0952,-0.0893 -0.17264,-0.20262 -0.28571,-0.26786 -0.0516,-0.0297 -0.11905,0 -0.17858,0 -0.0893,0 -0.18123,0.0217 -0.26785,0 -0.0408,-0.0102 -0.0494,-0.076 -0.0893,-0.0893 -0.048,-0.016 -0.281547,0 -0.357141,0 -0.267857,0 -0.535714,0 -0.803572,0 -0.119047,0 -0.238095,0 -0.357142,0 -0.02976,0 -0.06824,-0.021 -0.08929,0 -0.04706,0.0471 -0.02976,0.14881 -0.08929,0.17857 -0.07986,0.0399 -0.187997,-0.0399 -0.267857,0 -0.05952,0.0298 -0.04223,0.13152 -0.08929,0.17858 -0.02105,0.0211 -0.05952,0 -0.08929,0 -0.05952,0.0595 -0.125985,0.11283 -0.178572,0.17857 -0.06703,0.0838 -0.09478,0.20082 -0.178571,0.26785 -0.07349,0.0588 -0.195556,0.029 -0.267857,0.0893 -0.464612,0.38718 -0.131174,0.23443 -0.357143,0.53572 -0.05051,0.0673 -0.135262,0.10639 -0.178572,0.17857 -0.180067,0.30011 0.0021,0.20551 -0.178571,0.44643 -0.05051,0.0673 -0.119048,0.11905 -0.178572,0.17857 -0.02976,0.0298 -0.06763,0.0532 -0.08929,0.0893 -0.06848,0.11413 -0.09543,0.25321 -0.178572,0.35714 -0.04157,0.052 -0.141656,0.0339 -0.178571,0.0893 -0.485353,0.72803 -0.07285,0.2021 -0.178572,0.625 -0.01614,0.0646 -0.07623,0.11332 -0.08929,0.17857 -0.01751,0.0875 0,0.17858 0,0.26786 0,0.11905 0,0.2381 0,0.35714 0,0.15143 -0.01964,0.75537 0,0.89286 0.01331,0.0932 0.06646,0.17655 0.08929,0.26786 0.05094,0.20376 0.07652,0.51019 0.178572,0.71428 0.01882,0.0376 0.07365,0.0502 0.08929,0.0893 0.04557,0.11394 0.05048,0.24073 0.08929,0.35715 0.119048,0.35714 0.08567,-0.0181 0.178572,0.44643 0.01167,0.0584 -0.02345,0.12386 0,0.17857 0.06836,0.15951 0.190247,0.29121 0.267857,0.44643 0.04209,0.0842 0.0472,0.18367 0.08929,0.26785 0.04799,0.096 0.121698,0.17686 0.178571,0.26786 0.09198,0.14716 0.166989,0.30521 0.267857,0.44643 0.04893,0.0685 0.135262,0.10639 0.178572,0.17857 0.04842,0.0807 0.05433,0.18047 0.08929,0.26786 0.02472,0.0618 0.07314,0.11401 0.08929,0.17857 0.01444,0.0578 -0.01444,0.12082 0,0.17857 0.01614,0.0646 0.05952,0.11905 0.08929,0.17857 0.05952,0.11905 0.126141,0.23481 0.178571,0.35714 0.0496,0.11574 0.09014,0.33589 0.178572,0.44643 0.07888,0.0986 0.194464,0.16511 0.267857,0.26786 0.440568,0.61679 -0.151709,0.12507 0.535714,0.71429 0.08147,0.0698 0.180537,0.1162 0.267857,0.17857 0.121091,0.0865 0.242824,0.17259 0.357143,0.26785 0.06467,0.0539 0.119048,0.11905 0.178571,0.17858 0.02976,0.0298 0.04936,0.076 0.08929,0.0893 0.05647,0.0188 0.122102,-0.0188 0.178572,0 0.07986,0.0266 0.108527,0.13187 0.178577,0.17857 0.0554,0.0369 0.13151,0.0422 0.17857,0.0893 0.0471,0.0471 0.0524,0.1232 0.0893,0.17857 0.0233,0.035 0.0595,0.0595 0.0893,0.0893 0.0298,0.0298 0.0543,0.0659 0.0893,0.0893 0.0554,0.0369 0.12534,0.0494 0.17858,0.0893 0.17388,0.13041 0.18326,0.22673 0.35714,0.35714 0.0532,0.0399 0.13151,0.0422 0.17857,0.0893 0.0471,0.0471 0.0422,0.13151 0.0893,0.17857 0.047,0.0471 0.13151,0.0422 0.17857,0.0893 0.32935,0.32936 -0.21382,0.036 0.26785,0.35715 0.0248,0.0165 0.0683,-0.0211 0.0893,0 0.10523,0.10523 0.14494,0.45162 0.17857,0.53571 0.0156,0.0391 0.0659,0.0543 0.0893,0.0893 0.0369,0.0554 0.0477,0.1266 0.0893,0.17857 0.0789,0.0986 0.21139,0.15492 0.26786,0.26786 0.0399,0.0799 -0.0216,0.18124 0,0.26786 0.0102,0.0408 0.064,0.0556 0.0893,0.0893 0.0644,0.0858 0.11418,0.18201 0.17857,0.26785 0.067,0.0893 0.22321,0.17857 0.26785,0.26786 0.0357,0.0714 -0.0357,0.19643 0,0.26786 0.0188,0.0377 0.0705,0.0516 0.0893,0.0893 0.0266,0.0532 -0.033,0.12904 0,0.17857 0.0687,0.10302 0.19918,0.16483 0.26786,0.26786 0.0369,0.0554 0.0524,0.12319 0.0893,0.17857 0.0233,0.035 0.0595,0.0595 0.0893,0.0893 0.0893,0.0893 0.16279,0.19781 0.26786,0.26785 0.0783,0.0522 0.18367,0.0472 0.26785,0.0893 0.30851,0.15426 0.19908,0.21175 0.53572,0.26786 0.0881,0.0147 0.17978,-0.0147 0.26785,0 0.82369,0.13728 -0.32811,0.0211 0.53572,0.26786 0.11447,0.0327 0.23971,-0.0196 0.35714,0 0.0657,0.0109 0.11293,0.0783 0.17857,0.0893 0.11743,0.0196 0.2381,0 0.35715,0 0.26785,0 0.53571,0 0.80357,0 0.20833,0 0.41666,0 0.625,0 0.0893,0 0.17857,0 0.26785,0 0.0595,0 0.12331,0.0221 0.17858,0 0.0996,-0.0399 0.17468,-0.12533 0.26785,-0.17857 0.11557,-0.066 0.2464,-0.10474 0.35715,-0.17858 0.07,-0.0467 0.11904,-0.11904 0.17857,-0.17857 0.19746,-0.19746 0.32212,-0.2871 0.44643,-0.53571 0.0421,-0.0842 0.0522,-0.18135 0.0893,-0.26786 0.0524,-0.12234 0.12452,-0.23551 0.17857,-0.35714 0.0651,-0.14646 0.11544,-0.29912 0.17857,-0.44643 0.0262,-0.0612 0.0732,-0.11401 0.0893,-0.17857 0.0144,-0.0577 -0.0117,-0.1202 0,-0.17857 0.0369,-0.18458 0.13292,-0.35311 0.17857,-0.53572 0.0368,-0.14722 0.0564,-0.29828 0.0893,-0.44643 0.0266,-0.11978 0.0741,-0.23537 0.0893,-0.35714 0.0148,-0.11813 0,-0.23809 0,-0.35714 0,-0.29762 0,-0.59524 0,-0.89286 0,-0.59524 0,-1.19047 0,-1.78571 0,-0.44643 0,-0.89286 0,-1.33929 0,-0.40929 0.0245,-0.56506 -0.0893,-0.98214 -0.0422,-0.15463 -0.1238,-0.29581 -0.17857,-0.44643 -0.0643,-0.1769 -0.10618,-0.36196 -0.17858,-0.53571 -0.0768,-0.1843 -0.17857,-0.35715 -0.26785,-0.53572 -0.0595,-0.11905 -0.13648,-0.23087 -0.17857,-0.35714 -0.048,-0.14397 -0.036,-0.30433 -0.0893,-0.44643 -0.0377,-0.10047 -0.1217,-0.17686 -0.17857,-0.26786 -0.092,-0.14716 -0.17588,-0.29926 -0.26786,-0.44643 -0.057,-0.091 -0.1389,-0.16825 -0.17875,-0.26788 -0.0221,-0.0553 0.0221,-0.1233 0,-0.17857 -0.0399,-0.0996 -0.13058,-0.17188 -0.17857,-0.26786 -0.0421,-0.0842 -0.0472,-0.18368 -0.0893,-0.26786 -0.096,-0.19195 -0.26116,-0.34375 -0.35714,-0.53571 -0.0133,-0.0266 0.011,-0.0616 0,-0.0893 -0.0494,-0.12358 -0.11905,-0.2381 -0.17857,-0.35714 -0.0298,-0.0595 -0.0422,-0.13152 -0.0893,-0.17857 -0.047,-0.0471 -0.13151,-0.0422 -0.17857,-0.0893 -0.021,-0.021 0.007,-0.0604 0,-0.0893 -0.0228,-0.0913 -0.0665,-0.17656 -0.0893,-0.26786 -0.0206,-0.0822 0.0267,-0.18764 0,-0.26786 0.24353,-0.20984 -0.17754,-0.17649 -0.17858,-0.17857 -0.005,-0.009 0,-0.52693 0,-0.53571 0,-0.17858 0,-0.35715 0,-0.53572 0,-0.0595 0,-0.11905 0,-0.17857 0,-0.0298 -0.007,-0.0604 0,-0.0893 0.0228,-0.0913 0.0665,-0.17655 0.0893,-0.26786 0.007,-0.0289 -0.0165,-0.0645 0,-0.0893 0.0467,-0.07 0.13188,-0.10853 0.17857,-0.17857 0.0165,-0.0248 -0.0266,-0.076 0,-0.0893 0.0532,-0.0266 0.11905,0 0.17857,0 0.0893,-0.11905 0.16264,-0.25192 0.26786,-0.35714 0.0211,-0.021 0.0627,0.0133 0.0893,0 0.0376,-0.0188 0.0595,-0.0595 0.0893,-0.0893 0.0595,0 0.12331,0.0221 0.17857,0 0.10855,-0.0434 0.3719,-0.24535 0.44643,-0.35714 0.0165,-0.0248 -0.0133,-0.0627 0,-0.0893 0.0188,-0.0376 0.0705,-0.0516 0.0893,-0.0893 0.0128,-0.0257 0,-0.57204 0,-0.625 0,-0.11905 0,-0.2381 0,-0.35715 0,-0.0298 0.0165,-0.0645 0,-0.0893 -0.32112,-0.48167 -0.0278,0.0615 -0.35715,-0.26785 -0.021,-0.021 0,-0.0595 0,-0.0893 -0.0595,-0.0595 -0.10327,-0.14093 -0.17857,-0.17857 -0.0532,-0.0266 -0.11904,0 -0.17857,0 -0.0893,-0.0595 -0.17188,-0.13059 -0.26786,-0.17858 -0.0266,-0.0133 -0.0595,0 -0.0893,0 -0.0349,0 -0.58649,0.0128 -0.625,0 -0.0399,-0.0133 -0.0494,-0.076 -0.0893,-0.0893 -0.0407,-0.0136 -0.56453,0 -0.625,0 -0.14881,0 -0.29762,0 -0.44643,0 -0.0595,0 -0.12904,-0.033 -0.17857,0 -0.0554,0.0369 -0.0422,0.13152 -0.0893,0.17858 -0.0471,0.0471 -0.13152,0.0422 -0.17857,0.0893 -0.0211,0.021 0.021,0.0682 0,0.0893 -0.11905,0.11904 -0.0857,-0.18941 -0.17858,0.0893 -0.0276,0.0827 0.0285,0.36087 0,0.44642 -0.021,0.0631 -0.0682,0.11544 -0.0893,0.17858 -0.0172,0.0517 0,0.27977 0,0.35714 0,0.23809 0,0.47619 0,0.71428 0,0.0774 0.0172,0.30543 0,0.35715 -0.0541,0.16216 -0.0764,0.1657 -0.17857,0.26785 -0.0298,0.0298 -0.0705,0.0516 -0.0893,0.0893 -0.0133,0.0266 0.0133,0.0627 0,0.0893 -0.016,0.0319 -0.44503,0.4455 -0.44643,0.44643 -0.0248,0.0165 -0.0627,-0.0133 -0.0893,0 -0.0753,0.0376 -0.10328,0.14093 -0.17857,0.17857 -0.0532,0.0266 -0.12534,-0.0266 -0.17858,0 -0.0376,0.0188 -0.0516,0.0705 -0.0893,0.0893 -0.0266,0.0133 -0.49816,0 -0.53572,0 -0.20833,0 -0.41666,0 -0.625,0 -0.0402,0 -0.24068,0.0136 -0.26785,0 -0.0753,-0.0376 -0.10328,-0.14092 -0.17857,-0.17857 -0.0532,-0.0266 -0.12534,0.0266 -0.17858,0 -0.0376,-0.0188 -0.0516,-0.0705 -0.0893,-0.0893 -0.0714,-0.0357 -0.19643,0.0357 -0.26786,0 -0.0369,-0.0185 -0.24263,-0.23001 -0.26786,-0.26785 -0.0963,-0.1444 -0.14514,-0.32372 -0.26785,-0.44643 -0.0421,-0.0421 -0.11992,0.0101 -0.17857,0 -0.11512,-0.0198 -0.22221,-0.0893 -0.33916,-0.0893 -0.0998,0 -0.25595,0.18452 -0.28571,0.0893 -0.0298,-0.0952 0.19047,-0.0595 0.28571,-0.0893"
         id="path4494"
         inkscape:connector-curvature="0" />
      <path
         style="fill:none;fill-rule:evenodd;stroke:#109e00;stroke-width:0.5;stroke-linecap:butt;stroke-linejoin:miter;stroke-miterlimit:4;stroke-dasharray:1.5, 1.50000000000000000;stroke-dashoffset:0;stroke-opacity:1"
         d="m 107,1011.3623 c -0.13095,0.1547 -0.21546,0.3661 -0.39286,0.4642 -0.13021,0.072 -0.29762,0 -0.44643,0 -0.3869,0 -0.7738,0 -1.16071,0 -0.0153,0 -0.50297,-0.011 -0.53571,0 -0.0399,0.013 -0.0516,0.071 -0.0893,0.089 -0.0266,0.013 -0.061,-0.01 -0.0893,0 -0.0631,0.021 -0.11543,0.068 -0.17857,0.089 -0.0497,0.017 -0.23342,-0.023 -0.26785,0 -0.0701,0.047 -0.10328,0.1409 -0.17858,0.1786 -0.0714,0.036 -0.19642,-0.036 -0.26785,0 -0.0376,0.019 -0.0485,0.079 -0.0893,0.089 -0.17324,0.043 -0.36061,-0.035 -0.53571,0 -0.0653,0.013 -0.11401,0.073 -0.17857,0.089 -0.39683,0.099 0.0744,-0.1488 -0.44643,0 -0.12798,0.037 -0.23088,0.1364 -0.35715,0.1785 -0.47937,0.1598 0.21978,-0.321 -0.44642,0.1786 -0.11905,0.089 -0.11905,0.1786 -0.26786,0.2679 -0.0807,0.048 -0.18368,0.047 -0.26786,0.089 -0.842173,0.421 0.0196,0.017 -0.35714,0.2678 -0.009,0.01 -0.548733,0.2939 -0.625001,0.4464 -0.04209,0.084 -0.06646,0.1766 -0.08929,0.2679 -0.0072,0.029 0.01331,0.063 0,0.089 -0.01882,0.038 -0.07046,0.052 -0.08929,0.089 -0.01357,0.027 0,0.2955 0,0.3571 0,0.3274 0,0.6548 0,0.9822 0,0.2381 0,0.4762 0,0.7142 0,0.06 -0.03302,0.1291 0,0.1786 0.03692,0.055 0.138642,0.036 0.178572,0.089 0.228929,0.3053 -0.01641,0.2186 0.08929,0.5357 0.03393,0.1018 0.130589,0.1719 0.178579,0.2679 0.0421,0.084 0.0409,0.1871 0.0893,0.2678 0.0433,0.072 0.13188,0.1086 0.17857,0.1786 0.0165,0.025 -0.011,0.062 0,0.089 0.0494,0.1236 0.10474,0.2464 0.17857,0.3571 0.0467,0.07 0.12599,0.1129 0.17858,0.1786 0.067,0.084 0.11904,0.1786 0.17857,0.2679 0.11905,0.119 0.24529,0.2313 0.35714,0.3571 0.12661,0.1424 0.21549,0.319 0.35714,0.4464 0.22277,0.2005 0.72149,0.4513 0.98215,0.625 0.12381,0.083 0.22706,0.1956 0.35714,0.2679 0.1401,0.078 0.31307,0.09 0.44643,0.1786 0.32624,0.2175 -0.0957,0.1307 0.17857,0.2678 0.12316,0.062 0.0799,-0.1081 0.17857,0.089 0.0133,0.027 -0.0266,0.076 0,0.089 0.50595,0 0.0298,-0.06 0.17857,0.089 0.0211,0.021 0.0595,0 0.0893,0 0.0595,0 0.12533,-0.027 0.17857,0 0.0753,0.038 0.11905,0.119 0.17857,0.1786 0.0298,0.03 0.0705,0.052 0.0893,0.089 0.0133,0.027 -0.0266,0.076 0,0.089 0.0532,0.027 0.12904,-0.033 0.17857,0 0.0554,0.037 0.0494,0.1253 0.0893,0.1785 0.0505,0.067 0.11905,0.1191 0.17857,0.1786 0.0298,0.03 0.0595,0.06 0.0893,0.089 0.0298,0 0.0682,-0.021 0.0893,0 0.021,0.021 -0.0211,0.068 0,0.089 0.021,0.021 0.0595,0 0.0893,0 0,0.03 -0.021,0.068 0,0.089 0.0471,0.047 0.13864,0.036 0.17857,0.089 0.0565,0.075 0.0472,0.1836 0.0893,0.2678 0.0188,0.038 0.0595,0.06 0.0893,0.089 0.0595,0.06 0.12807,0.1112 0.17858,0.1786 0.0399,0.053 0.0595,0.119 0.0893,0.1785 0.0298,0.06 0.0682,0.1155 0.0893,0.1786 0.009,0.028 -0.0133,0.063 0,0.089 0.0188,0.038 0.0705,0.052 0.0893,0.089 0.025,0.05 -0.0247,0.3201 0,0.3571 0.0467,0.07 0.13188,0.1086 0.17857,0.1786 0.0165,0.025 0,0.06 0,0.089 0.0595,0.06 0.10853,0.1319 0.17858,0.1786 0.0248,0.016 0.0682,-0.021 0.0893,0 0.0471,0.047 0.0524,0.1232 0.0893,0.1785 0.0233,0.035 0.0659,0.054 0.0893,0.089 0.0369,0.055 0.0422,0.1315 0.0893,0.1786 0.0471,0.047 0.13151,0.042 0.17857,0.089 0.0211,0.021 0,0.06 0,0.089 0.0298,0.06 0.0339,0.1416 0.0893,0.1786 0.0495,0.033 0.13648,-0.042 0.17857,0 0.0666,0.067 0.014,0.2113 0.0893,0.2678 0.0714,0.054 0.18316,-0.028 0.26786,0 0.96038,0.3201 -0.0659,0.056 0.35714,0.2679 0.0842,0.042 0.18716,0.041 0.26786,0.089 0.0722,0.043 0.10328,0.1409 0.17857,0.1785 0.002,10e-4 0.70004,0.1745 0.71429,0.1786 0.29992,0.086 0.58258,0.2162 0.89285,0.2679 0.0744,0.012 0.40923,-0.019 0.44643,0 0.0595,0.03 0.0339,0.1416 0.0893,0.1785 0.0495,0.033 0.11905,0 0.17857,0 0.0298,0 0.0595,0 0.0893,0 0.0529,0 0.60955,0.01 0.625,0 0.07,-0.047 0.11122,-0.128 0.17857,-0.1785 0.0532,-0.04 0.13151,-0.042 0.17857,-0.089 0.0759,-0.076 0.11154,-0.1841 0.17857,-0.2679 0.0526,-0.066 0.13188,-0.1085 0.17857,-0.1786 0.0165,-0.025 -0.0165,-0.065 0,-0.089 0.0467,-0.07 0.11905,-0.1191 0.17857,-0.1786 0.0595,-0.1191 0.1101,-0.243 0.17857,-0.3572 0.0433,-0.072 0.13527,-0.1063 0.17858,-0.1785 0.0685,-0.1142 0.12914,-0.2336 0.17857,-0.3572 0.011,-0.028 0,-0.06 0,-0.089 0,-0.089 0,-0.1785 0,-0.2678 0,-0.089 -0.0147,-0.1798 0,-0.2679 0.0416,-0.2495 0.22627,-0.5541 0.26785,-0.8036 0.0147,-0.088 0,-0.1785 0,-0.2678 0,-0.1786 0,-0.3572 0,-0.5357 0,-0.4465 0,-0.8929 0,-1.3393 0,-0.1005 -0.0215,-0.6496 0,-0.7143 0.0211,-0.063 0.0595,-0.119 0.0893,-0.1786 0.0298,-0.089 0.0634,-0.1773 0.0893,-0.2678 0.0337,-0.118 0.0652,-0.2368 0.0893,-0.3572 0.006,-0.029 -0.009,-0.061 0,-0.089 0.0211,-0.063 0.0732,-0.114 0.0893,-0.1785 0.0144,-0.058 -0.0221,-0.1233 0,-0.1786 0.0399,-0.1 0.12336,-0.1758 0.17857,-0.2679 0.0342,-0.057 0.0493,-0.1253 0.0893,-0.1785 0.0933,-0.1244 0.2445,-0.2445 0.35715,-0.3572 0.0697,-0.07 0.21649,-0.1908 0.26785,-0.2678 0.0369,-0.055 0.0388,-0.1353 0.0893,-0.1786 0.16295,-0.1397 0.38396,-0.2054 0.53571,-0.3571 0.0666,-0.067 0.0227,-0.2013 0.0893,-0.2679 0.42138,-0.4214 0.13542,0.2505 0.44643,-0.2679 0.0484,-0.081 0.0227,-0.2013 0.0893,-0.2678 0.0666,-0.067 0.18368,-0.047 0.26786,-0.089 0.0361,-0.018 0.35447,-0.3545 0.35714,-0.3571 0.0595,-0.06 0.11905,-0.1191 0.17858,-0.1786 0.0298,-0.03 0.0705,-0.052 0.0893,-0.089 0.0133,-0.027 -0.009,-0.061 0,-0.089 0.0507,-0.152 0.11544,-0.2991 0.17857,-0.4464 0.0262,-0.061 0.0731,-0.114 0.0893,-0.1786 0.0289,-0.1155 -0.0234,-0.2404 0,-0.3571 0.0185,-0.092 0.0738,-0.1751 0.0893,-0.2679 0.0245,-0.1468 0,-0.2976 0,-0.4464 0,-0.2679 0,-0.5357 0,-0.8036 0,-0.089 0.0282,-0.1831 0,-0.2679 -0.0339,-0.1018 -0.13058,-0.1718 -0.17857,-0.2678 -0.53705,-1.0741 0.18024,0.069 -0.44643,-0.7143 -0.0831,-0.1039 -0.0844,-0.263 -0.17857,-0.3571 -0.047,-0.047 -0.13151,-0.042 -0.17857,-0.089 -0.0471,-0.047 -0.036,-0.1387 -0.0893,-0.1786 -0.0753,-0.056 -0.19437,-0.03 -0.26786,-0.089 -0.0838,-0.067 -0.0948,-0.2008 -0.17857,-0.2678 -0.0735,-0.059 -0.18368,-0.047 -0.26786,-0.089 -0.20411,-0.1021 0.0555,-0.1247 -0.26786,-0.1786 -0.11742,-0.02 -0.23971,0.02 -0.35714,0 -0.0656,-0.011 -0.11905,-0.059 -0.17857,-0.089 -0.11905,-0.059 -0.22802,-0.1463 -0.35714,-0.1785 -0.1155,-0.029 -0.2381,0 -0.35715,0 -0.44643,0 -0.89285,0 -1.33928,0 -0.14881,0 -0.29762,0 -0.44643,0 -0.0595,0 -0.12083,0.014 -0.17857,0 -0.0646,-0.016 -0.11401,-0.073 -0.17857,-0.089 -0.0577,-0.014 -0.11905,0 -0.17858,0 -0.0595,0 -0.11904,0 -0.17857,0 -0.35714,0 -0.71428,0 -1.07143,0 -0.20833,0 -0.41666,0 -0.625,0 -0.0893,0 -0.1803,-0.018 -0.26785,0 -0.12033,0.024 -0.2361,0.069 -0.35715,0.089 -0.0587,0.01 -0.12082,-0.014 -0.17857,0 -0.0646,0.016 -0.11678,0.064 -0.17857,0.089 -0.0874,0.035 -0.17655,0.066 -0.26786,0.089 -0.11167,0.028 -0.24783,-0.036 -0.35714,0 -0.0399,0.013 -0.0543,0.066 -0.0893,0.089 -0.0554,0.037 -0.13152,0.042 -0.17858,0.089 -0.021,0.021 0.0133,0.063 0,0.089 -0.0376,0.075 -0.12806,0.1112 -0.17857,0.1786 -0.0826,0.1095 -0.15514,0.2261 -0.23252,0.3392 z"
         id="path4496"
         inkscape:connector-curvature="0" />
      <path
         style="fill:none;fill-rule:evenodd;stroke:#109e00;stroke-width:0.5;stroke-linecap:butt;stroke-linejoin:miter;stroke-miterlimit:4;stroke-dasharray:1.5, 1.50000000000000000;stroke-dashoffset:0;stroke-opacity:1"
         d="m 45,1027.3623 c -0.521147,0.1679 -1.078124,0.2503 -1.56344,0.5038 -0.189533,0.099 -0.104133,0.6248 -0.12627,0.7576 -0.04376,0.2626 -0.214892,0.4941 -0.252538,0.7576 -0.02381,0.1667 0,0.3367 0,0.5051 0,0.463 0,0.9259 0,1.3889 0,0.691 -0.03936,0.6106 0.252538,1.389 0.03305,0.088 0.05397,0.1923 0.12627,0.2525 1.422584,0.8536 0.03853,-0.1305 0.883883,0.8839 0.09715,0.1166 0.257402,0.1615 0.378807,0.2525 0.09524,0.072 0.153485,0.1865 0.252538,0.2526 0.07831,0.052 0.171835,0.078 0.252538,0.1263 0.130131,0.078 0.243073,0.1846 0.378808,0.2525 0.03765,0.019 0.09125,-0.023 0.126269,0 0.09905,0.066 0.1573,0.1811 0.252538,0.2525 0.07529,0.056 0.166032,0.089 0.252538,0.1263 0.208333,0.089 0.428615,0.1512 0.631345,0.2525 0.219513,0.1098 0.411833,0.2691 0.631346,0.3788 0.119047,0.06 0.254182,0.08 0.378807,0.1263 0.212228,0.08 0.413406,0.1903 0.631345,0.2526 0.08094,0.023 0.169994,-0.017 0.252538,0 0.130515,0.026 0.249682,0.094 0.378808,0.1262 0.04083,0.01 0.09651,-0.03 0.126269,0 0.06655,0.067 0.05972,0.186 0.126269,0.2526 0.02976,0.03 0.08418,0 0.126269,0 0.126269,0 0.25499,-0.025 0.378807,0 0.184576,0.037 0.326505,0.193 0.505076,0.2525 0.134175,0.045 0.370902,-0.045 0.505077,0 0.05647,0.019 0.0698,0.1074 0.126269,0.1263 0.07986,0.027 0.172678,-0.027 0.252538,0 0.05647,0.019 0.0698,0.1074 0.126269,0.1262 0.134175,0.045 0.370901,-0.045 0.505076,0 0.178572,0.06 0.330308,0.1827 0.505076,0.2526 0.361373,0.1445 0.335222,0.075 0.631346,0.2525 0.13013,0.078 0.243072,0.1847 0.378807,0.2525 0.07529,0.038 0.172678,-0.027 0.252538,0 0.08929,0.03 0.163252,0.097 0.252538,0.1263 0.03993,0.013 0.08862,-0.019 0.126269,0 0.135735,0.068 0.243072,0.1847 0.378807,0.2526 0.03765,0.019 0.08862,-0.019 0.12627,0 0.05324,0.027 0.07303,0.1 0.126269,0.1262 0.05737,0.029 0.860868,0 0.883883,0 0.252538,0 0.505076,0 0.757614,0 0.168359,0 0.337748,0.019 0.505077,0 0.5883,-0.065 1.098572,-0.2879 1.641498,-0.5051 0.489763,-0.1959 0.631886,-0.2024 1.010152,-0.505 0.09296,-0.074 0.205643,-0.1431 0.252538,-0.2526 0.167964,-0.3919 0.126269,-0.8491 0.126269,-1.2627 0,-0.1683 -0.02088,-0.338 0,-0.505 0.177311,-1.4185 0.126269,0.5285 0.126269,-1.1365 0,-0.7155 0,-1.431 0,-2.1465 0,-0.1684 0,-0.3367 0,-0.5051 0,-0.1263 0.04974,-0.2628 0,-0.3788 -0.121487,-0.2835 -0.539254,-0.6655 -0.757614,-0.8839 -0.126269,-0.1263 -0.243226,-0.2626 -0.378807,-0.3788 -0.159785,-0.137 -0.336718,-0.2525 -0.505076,-0.3788 -0.168359,-0.1263 -0.329973,-0.2621 -0.505077,-0.3788 -0.204204,-0.1362 -0.423227,-0.2488 -0.631345,-0.3788 -0.128689,-0.081 -0.247046,-0.1773 -0.378807,-0.2526 -0.16343,-0.093 -0.348459,-0.1481 -0.505077,-0.2525 -0.09905,-0.066 -0.150455,-0.1913 -0.252538,-0.2525 -0.114131,-0.068 -0.256469,-0.074 -0.378807,-0.1263 -0.346023,-0.1483 -0.65766,-0.3729 -1.010152,-0.5051 -0.756807,-0.2838 -0.237507,-0.034 -0.883884,-0.1263 -0.18625,-0.027 -0.684005,-0.1725 -0.883883,-0.2525 -0.08738,-0.035 -0.160251,-0.1078 -0.252538,-0.1263 -0.123817,-0.025 -0.252539,0 -0.378808,0 -0.04209,0 -0.08634,0.013 -0.126269,0 -0.08928,-0.03 -0.163252,-0.096 -0.252538,-0.1262 -0.03993,-0.013 -0.09125,0.023 -0.126269,0 -0.0031,0 -0.477965,-0.4509 -0.505076,-0.5051 -0.01882,-0.038 0,-0.084 0,-0.1263 -0.04209,-0.084 -0.07785,-0.1718 -0.126269,-0.2525 -0.03825,-0.064 -0.349944,-0.487 -0.378808,-0.6314 -0.02476,-0.1238 0.03063,-0.2563 0,-0.3788 -0.01444,-0.058 -0.09965,-0.073 -0.126269,-0.1262 -0.305174,-0.6104 -0.02996,-0.1498 -0.126269,-0.6314 -0.0261,-0.1305 -0.100166,-0.2483 -0.126269,-0.3788 -0.03302,-0.1651 0.05324,-0.3453 0,-0.5051 -0.01882,-0.056 -0.107446,-0.07 -0.126269,-0.1262 -0.05324,-0.1598 0.03302,-0.34 0,-0.5051 -0.0261,-0.1305 -0.100166,-0.2483 -0.126269,-0.3788 -0.06874,-0.3437 0.135309,-0.239 -0.126269,-0.6314 -0.02335,-0.035 -0.107446,0.038 -0.126269,0 -0.03765,-0.075 0.03765,-0.1772 0,-0.2525 -0.01882,-0.038 -0.09651,0.03 -0.126269,0 -0.06655,-0.067 -0.04796,-0.2003 -0.126269,-0.2525 -0.02514,-0.017 -0.545459,0 -0.631345,0 -0.252539,0 -0.505077,0 -0.757615,0 -0.126269,0 -0.265869,-0.057 -0.378807,0 -0.413717,0.2068 -0.34128,0.4675 -0.631345,0.7576 -0.06655,0.067 -0.185989,0.06 -0.252539,0.1262 -0.06655,0.067 -0.07406,0.1743 -0.126269,0.2526 -0.116735,0.1751 -0.244081,0.3434 -0.378807,0.5051 -0.07621,0.091 -0.181109,0.1573 -0.252538,0.2525 -0.05647,0.075 -0.05972,0.186 -0.126269,0.2525 -0.02976,0.03 -0.09651,-0.03 -0.126269,0 -0.275743,0.2758 -0.02625,0.205 -0.126269,0.5051 -0.01882,0.057 -0.08418,0.084 -0.126269,0.1263 -0.04209,0.1263 -0.09399,0.2497 -0.126269,0.3788 -0.0269,0.1076 0,0.2675 0,0.3788 0,0.4209 0,0.8418 0,1.2627 0,0.057 0.01921,0.3404 0,0.3788 -0.09628,0.1926 -0.33182,0.1263 -0.505077,0.1263 -0.04209,0 -0.08862,-0.019 -0.126269,0 -0.279188,0.1396 -0.03918,0.078 -0.126269,0.2525 -0.02662,0.053 -0.13778,0.068 -0.126269,0.1263 0.05262,0.2669 0.2005,0.5059 0.30075,0.7589"
         id="path4498"
         inkscape:connector-curvature="0" />
      <circle
         transform="matrix(0.5,0.8660254,-0.8660254,0.5,0,0)"
         style="opacity:1;fill:#c50d0d;fill-opacity:1;fill-rule:evenodd;stroke:#109e00;stroke-width:0.29090911;stroke-miterlimit:4;stroke-dasharray:none;stroke-dashoffset:0;stroke-opacity:1"
         id="circle4514"
         cx="1012.1343"
         cy="240.49066"
         r="1.4545455" />
      <circle
         transform="matrix(0.5,0.8660254,-0.8660254,0.5,0,0)"
         r="1.4545455"
         cy="192.49068"
         cx="1032.1344"
         id="circle4516"
         style="opacity:1;fill:#c50d0d;fill-opacity:1;fill-rule:evenodd;stroke:#109e00;stroke-width:0.29090911;stroke-miterlimit:4;stroke-dasharray:none;stroke-dashoffset:0;stroke-opacity:1" />
      <circle
         transform="matrix(0.5,0.8660254,-0.8660254,0.5,0,0)"
         style="opacity:1;fill:#c50d0d;fill-opacity:1;fill-rule:evenodd;stroke:#109e00;stroke-width:0.29090911;stroke-miterlimit:4;stroke-dasharray:none;stroke-dashoffset:0;stroke-opacity:1"
         id="circle4518"
         cx="1060.1344"
         cy="228.49072"
         r="1.4545455" />
      <circle
         transform="matrix(0.5,0.8660254,-0.8660254,0.5,0,0)"
         r="1.4545455"
         cy="208.49062"
         cx="1008.1343"
         id="circle4520"
         style="opacity:1;fill:#c50d0d;fill-opacity:1;fill-rule:evenodd;stroke:#109e00;stroke-width:0.29090911;stroke-miterlimit:4;stroke-dasharray:none;stroke-dashoffset:0;stroke-opacity:1" />
      <circle
         transform="matrix(0.5,0.8660254,-0.8660254,0.5,0,0)"
         style="opacity:1;fill:#c50d0d;fill-opacity:1;fill-rule:evenodd;stroke:#109e00;stroke-width:0.29090911;stroke-miterlimit:4;stroke-dasharray:none;stroke-dashoffset:0;stroke-opacity:1"
         id="circle4522"
         cx="1056.1344"
         cy="204.49062"
         r="1.4545455" />
      <path
         style="fill:none;fill-rule:evenodd;stroke:#109e00;stroke-width:0.5;stroke-linecap:butt;stroke-linejoin:miter;stroke-miterlimit:4;stroke-dasharray:1.5, 1.50000000000000000;stroke-dashoffset:0;stroke-opacity:1"
         d="m 318.04452,975.85112 c -0.33777,0.24906 0.0658,0.29722 0.0749,0.44852 0.003,0.0475 -0.0339,0.0905 -0.037,0.13799 -0.005,0.0751 0.0183,0.15035 0.0135,0.22547 -0.003,0.0475 -0.0339,0.0905 -0.037,0.13799 -0.005,0.0751 0.0183,0.15035 0.0135,0.22547 -0.003,0.0475 -0.0339,0.0905 -0.037,0.13799 0.005,0.0752 0.009,0.15033 0.0135,0.22548 0.0168,0.0292 0.0485,0.0539 0.0505,0.0875 0.003,0.0475 -0.0398,0.0904 -0.037,0.13799 0.005,0.0902 0.14611,0.17226 0.15152,0.26244 0.003,0.0475 -0.0465,0.0913 -0.037,0.13799 0.0135,0.066 0.0969,0.10776 0.10101,0.17497 0.002,0.0336 -0.0788,0.018 -0.0875,0.0505 -0.009,0.0325 0.0438,0.0545 0.0505,0.0875 0.0151,0.0738 -0.002,0.1517 0.0135,0.22546 0.007,0.033 0.0593,0.0549 0.0505,0.0875 -0.009,0.0325 -0.0895,0.0169 -0.0875,0.0505 0.0135,0.22548 0.11948,0.10599 0.15153,0.26245 0.0151,0.0738 -0.002,0.1517 0.0135,0.22547 0.0172,0.084 0.19768,0.2779 0.20203,0.34993 0.003,0.0475 -0.0398,0.0904 -0.037,0.13799 0.002,0.0343 0.12877,0.22304 0.15152,0.26244 0.10101,0.17497 0.20203,0.34993 0.30305,0.52489 0.21886,0.37909 0.43773,0.75818 0.65659,1.13727 0.23571,0.40824 0.47141,0.81649 0.70711,1.22474 0.0358,0.062 0.2787,0.50879 0.30305,0.52489 0.0795,0.0525 0.1965,0.0215 0.27598,0.074 0.0754,0.0498 0.0761,0.21266 0.15152,0.26244 0.0397,0.0263 0.0982,0.0108 0.13799,0.037 0.0562,0.0371 0.0506,0.13027 0.10101,0.17496 0.0628,0.0415 0.12568,0.083 0.1885,0.12446 0.0292,-0.0168 0.0549,-0.0592 0.0875,-0.0505 0.0326,0.009 0.0224,0.0689 0.0505,0.0875 0.10133,0.0669 0.21484,0.11373 0.32648,0.16142 0.0438,0.0187 0.0982,0.0108 0.13799,0.037 0.0281,0.0186 0.0224,0.0689 0.0505,0.0875 0.0397,0.0263 0.0953,0.0159 0.13799,0.037 0.0675,0.0334 0.12103,0.0911 0.1885,0.12446 0.0427,0.0211 0.092,0.0246 0.13799,0.037 0.046,0.0123 0.0904,0.0339 0.13799,0.037 0.0751,0.005 0.15274,-0.033 0.22547,-0.0135 0.0728,0.0195 0.12271,0.0879 0.18849,0.12446 0.10616,0.0589 0.20922,0.13001 0.32649,0.16143 0.0326,0.009 0.055,-0.0592 0.0875,-0.0505 0.28551,0.0765 -0.28068,0.15262 0.1885,0.12446 0.0336,-0.002 0.0539,-0.0485 0.0875,-0.0505 0.45765,0.12263 -0.10629,0.006 0.22548,-0.0135 0.0475,-0.003 0.0904,0.0398 0.13799,0.037 0.0336,-0.002 0.0539,-0.0485 0.0875,-0.0505 0.0475,-0.003 0.0982,0.0108 0.13798,0.037 0.0281,0.0186 0.0169,0.0895 0.0505,0.0875 0.0672,-0.004 0.10774,-0.097 0.17496,-0.10101 0.0336,-0.002 0.018,0.0788 0.0505,0.0875 0.0326,0.009 0.055,-0.0592 0.0875,-0.0505 0.0728,0.0195 0.11576,0.10498 0.1885,0.12446 1.3e-4,3e-5 0.26198,-0.15143 0.26245,-0.15153 0.3256,-0.0666 0.005,0.0752 0.1885,0.12446 0.0325,0.009 0.0583,-0.0337 0.0875,-0.0505 0.1458,-0.0842 0.2916,-0.16836 0.4374,-0.25254 0.0875,-0.0505 0.16349,-0.13127 0.26245,-0.15152 0.0467,-0.01 0.0913,0.0465 0.13799,0.037 0.0939,-0.0192 0.16856,-0.1323 0.26245,-0.15152 0.0738,-0.0151 0.15308,0.007 0.22546,-0.0135 0.0971,-0.0278 0.17497,-0.10102 0.26245,-0.15152 0.17497,-0.10102 0.34993,-0.20204 0.5249,-0.30305 0.0208,-0.012 0.33597,-0.18091 0.34992,-0.20203 0.0262,-0.0397 0.0107,-0.0982 0.037,-0.13799 0.0227,-0.0343 0.38701,-0.22344 0.43742,-0.25254 0.0292,-0.0168 0.0788,-0.018 0.0875,-0.0505 0.009,-0.0325 -0.0337,-0.0583 -0.0505,-0.0875 0.0123,-0.046 0.0158,-0.0953 0.037,-0.13799 -0.0214,-0.2192 0.22292,-0.17365 0.29942,-0.28951 0.0487,-0.0737 -0.13049,-0.0483 -0.0135,-0.22547 0.0371,-0.0562 0.13786,-0.0448 0.17496,-0.10102 0.25898,-0.39224 -0.09,0.06 -0.0135,-0.22547 0.009,-0.0325 0.0651,-0.0253 0.0875,-0.0505 0.51172,-0.57707 -0.12337,0.10485 0.16143,-0.32648 0.0371,-0.0562 0.13786,-0.0448 0.17496,-0.10102 0.0262,-0.0397 0.0247,-0.092 0.037,-0.13799 0.0123,-0.046 0.0247,-0.092 0.037,-0.13799 0.0493,-0.18398 0.0986,-0.36797 0.1479,-0.55196 0.0123,-0.046 0.0107,-0.0982 0.037,-0.13798 0.0185,-0.0281 0.0788,-0.018 0.0875,-0.0505 0.009,-0.0325 -0.0592,-0.0549 -0.0505,-0.0875 0.0765,-0.28551 0.15263,0.28068 0.12446,-0.1885 -0.002,-0.0336 -0.0337,-0.0583 -0.0505,-0.0875 -0.004,-0.0752 -0.0225,-0.15072 -0.0135,-0.22547 0.0114,-0.0945 0.0317,-0.19061 0.0739,-0.27598 0.0835,-0.16888 0.14275,0.11573 0.12446,-0.1885 -0.002,-0.0336 -0.0485,-0.0539 -0.0505,-0.0875 -0.003,-0.0475 0.0247,-0.092 0.037,-0.13799 0.0289,-0.10777 0.10418,-0.30942 0.11092,-0.41397 0.005,-0.0751 -0.0183,-0.15035 -0.0135,-0.22547 0.003,-0.0475 0.0465,-0.0913 0.037,-0.13799 -0.0135,-0.066 -0.0875,-0.10899 -0.10101,-0.17496 -0.003,-0.0129 0.10025,-0.3978 0.11092,-0.41397 0.0185,-0.0281 0.0788,-0.018 0.0875,-0.0505 0.009,-0.0325 -0.0337,-0.0583 -0.0505,-0.0875 0.0415,-0.0628 0.10497,-0.11577 0.12445,-0.1885 0.1443,-0.53853 -0.0473,-0.0353 -0.064,-0.31295 -0.003,-0.0475 0.0247,-0.092 0.037,-0.13799 0.0247,-0.092 0.0493,-0.18398 0.074,-0.27598 0.0292,-0.0168 0.0726,-0.0203 0.0875,-0.0505 0.0423,-0.0854 0.0493,-0.18399 0.074,-0.27598 0.0123,-0.046 0.0107,-0.0982 0.037,-0.13799 0.0486,-0.0736 0.30408,-0.30693 0.33639,-0.4275 0.0765,-0.28551 -0.27251,0.16676 -0.0135,-0.22548 0.0185,-0.0281 0.0788,-0.018 0.0875,-0.0505 0.009,-0.0325 -0.0485,-0.0539 -0.0505,-0.0875 -0.009,-0.14989 0.0829,-0.12608 0.0739,-0.27598 -0.002,-0.0336 -0.0337,-0.0583 -0.0505,-0.0875 0.0123,-0.046 0.0399,-0.0905 0.037,-0.13799 -0.004,-0.0672 -0.0969,-0.10776 -0.10102,-0.17496 -0.031,-0.51595 0.17809,0.39214 0.0234,-0.36346 -0.007,-0.033 -0.0337,-0.0583 -0.0505,-0.0875 -0.0361,-0.0625 -0.29209,-0.47151 -0.30305,-0.52489 -0.01,-0.0466 0.0398,-0.0904 0.037,-0.13799 -0.003,-0.0482 -0.23257,-0.40283 -0.25253,-0.43741 -0.0423,-0.0733 -0.21251,-0.41095 -0.25254,-0.43741 -0.0281,-0.0186 -0.0539,0.0485 -0.0875,0.0505 -0.0475,0.003 -0.0904,-0.0398 -0.13799,-0.037 -0.0336,0.002 -0.0583,0.0337 -0.0875,0.0505 -0.0583,0.0337 -0.10898,0.0875 -0.17496,0.10102 -0.0467,0.01 -0.0904,-0.0398 -0.13799,-0.037 -0.0672,0.004 -0.10899,0.0875 -0.17497,0.10102 -0.19084,0.0391 -0.32382,-0.0128 -0.50144,-0.0604 -0.046,-0.0123 -0.0904,-0.0339 -0.13799,-0.037 -0.0751,-0.005 -0.15034,0.0184 -0.22547,0.0135 -0.0475,-0.003 -0.0904,-0.0398 -0.13799,-0.037 -0.0672,0.004 -0.10992,0.11844 -0.17497,0.10102 -0.0325,-0.009 -0.018,-0.0788 -0.0505,-0.0875 -0.0326,-0.009 -0.0583,0.0337 -0.0875,0.0505 -0.17496,0.10101 -0.34992,0.20203 -0.52489,0.30305 -0.0292,0.0168 -0.055,0.0592 -0.0875,0.0505 -0.0325,-0.009 -0.018,-0.0788 -0.0505,-0.0875 -0.0326,-0.009 -0.0623,0.0729 -0.0875,0.0505 -0.0756,-0.067 -0.10101,-0.17496 -0.15152,-0.26245 -0.11785,-0.20412 -0.2357,-0.40824 -0.35356,-0.61237 -0.0505,-0.0875 -0.076,-0.19541 -0.15152,-0.26244 -0.0604,-0.0536 -0.46534,-0.0907 -0.55195,-0.1479 -0.0281,-0.0186 -0.018,-0.0788 -0.0505,-0.0875 -0.017,-0.005 -0.29507,0.17036 -0.34993,0.20203 -0.29161,0.16836 -0.58321,0.33671 -0.87482,0.50507 -0.071,0.041 -0.39701,0.24672 -0.43741,0.25254 -0.12016,0.0173 -0.24227,-0.0307 -0.36345,-0.0234 -0.0408,0.002 -0.37657,0.21741 -0.43742,0.25254 -0.34993,0.20203 -0.69985,0.40406 -1.04978,0.60609 -0.4374,0.25254 -0.87482,0.50508 -1.31222,0.75761 -0.14581,0.0842 -0.29161,0.16836 -0.43741,0.25254 -0.0875,0.0505 -0.16786,0.11609 -0.26245,0.15153 -0.39911,0.14952 -0.1979,0.008 -0.53842,0.0776 -0.11085,0.0227 -0.23908,0.17934 -0.34993,0.20203 -0.27454,0.36973 -0.18091,-0.0797 -0.27598,-0.074 -0.0672,0.004 -0.10774,0.097 -0.17497,0.10102 -0.0336,0.002 -0.0179,-0.0788 -0.0505,-0.0875 -0.065,-0.0174 -0.10774,0.097 -0.17496,0.10101 -0.0599,0.004 -0.24803,-0.089 -0.27598,-0.0739 -0.19175,0.10341 -0.34816,0.26196 -0.52224,0.39294 z"
         id="path4524"
         inkscape:connector-curvature="0" />
      <path
         style="fill:none;fill-rule:evenodd;stroke:#109e00;stroke-width:0.5;stroke-linecap:butt;stroke-linejoin:miter;stroke-miterlimit:4;stroke-dasharray:1.5, 1.50000000000000000;stroke-dashoffset:0;stroke-opacity:1"
         d="m 347.95067,984.45009 c 0.006,0.14896 0.1352,0.18265 0.25612,0.21503 0.0326,0.009 0.0639,0.0282 0.0976,0.0261 0.0238,-0.001 0.0388,-0.0419 0.0619,-0.0357 0.21308,0.0571 0.0709,0.093 0.20473,0.21172 0.0252,0.0223 0.065,0.0174 0.0976,0.0261 0.0326,0.009 0.0639,0.0282 0.0976,0.0261 0.0238,-10e-4 0.0381,-0.0372 0.0619,-0.0357 0.1345,0.009 0.31779,0.10637 0.426,0.16644 0.155,-0.0151 0.12279,0.15764 0.20473,0.21172 0.0199,0.0131 0.0388,-0.0419 0.0619,-0.0357 0.0515,0.0138 0.0856,0.0644 0.13329,0.088 0.0301,0.0149 0.0724,0.004 0.0976,0.0261 0.0356,0.0316 0.0476,0.0825 0.0714,0.12371 0.0119,0.0206 0.0159,0.0487 0.0357,0.0619 0.0562,0.0371 0.14834,0.004 0.19515,0.0523 0.0497,0.0513 0.0575,0.13424 0.10714,0.18557 0.0234,0.0242 0.0695,0.008 0.0976,0.0262 0.0199,0.0131 0.0159,0.0487 0.0357,0.0619 0.0281,0.0186 0.0724,0.004 0.0976,0.0261 2.6e-4,2.2e-4 0.10705,0.18555 0.10714,0.18558 0.0515,0.0138 0.11171,-0.0332 0.15943,-0.01 0.0427,0.0211 0.0476,0.0825 0.0714,0.12372 0.0476,0.0825 0.0952,0.16496 0.14286,0.24743 0.0119,0.0206 0.0182,0.0459 0.0357,0.0619 0.0398,0.0353 0.0962,0.0497 0.1333,0.088 0.0779,0.0806 0.10723,0.22268 0.17857,0.3093 0.0624,0.0758 0.14232,0.13593 0.20473,0.21171 0.0605,0.0735 0.0952,0.16496 0.14286,0.24744 0.0833,0.14434 0.16666,0.28868 0.25,0.43301 0.28571,0.49487 0.57142,0.98975 0.85714,1.48462 0.21428,0.37115 0.42857,0.74231 0.64286,1.11346 0.0714,0.12372 0.14285,0.24743 0.21428,0.37115 0.0357,0.0619 0.0875,0.11693 0.10714,0.18558 0.013,0.0456 0.0297,0.4191 0.0287,0.47829 -0.006,0.0857 -0.0111,0.17134 -0.0166,0.25701 -0.009,0.0325 -0.0239,0.064 -0.0262,0.0976 -0.009,0.13856 -0.008,0.27761 -0.007,0.41644 2.1e-4,0.0415 0.0306,0.20384 -0.0166,0.257 -0.0316,0.0356 -0.0975,0.0317 -0.12372,0.0714 -0.0371,0.0562 -0.0152,0.13895 -0.0523,0.19515 -0.0262,0.0397 -0.0921,0.0358 -0.12372,0.0714 -0.0447,0.0504 -0.0224,0.13478 -0.0523,0.19515 -0.0236,0.0477 -0.0671,0.0843 -0.088,0.13328 -0.25228,0.59061 0.0909,-0.14405 -0.0427,0.35458 -0.006,0.023 -0.0513,0.0144 -0.0619,0.0357 -0.0298,0.0604 -0.0278,0.13243 -0.0523,0.19515 0.19622,0.31282 -0.12881,0.17113 -0.176,0.26657 -0.0676,0.13667 -0.0896,0.29432 -0.16644,0.42601 -0.024,0.0411 -0.0921,0.0358 -0.12372,0.0714 -0.0223,0.0252 -0.005,0.0711 -0.0262,0.0976 -0.0607,0.0772 -0.14346,0.13416 -0.21172,0.20472 -0.0524,0.0541 -0.0898,0.12356 -0.14986,0.16901 -0.0949,0.0719 -0.2062,0.11904 -0.3093,0.17857 -0.20619,0.11905 -0.41239,0.23809 -0.61859,0.35714 -0.0619,0.0357 -0.12372,0.0714 -0.18557,0.10714 -0.0412,0.0238 -0.0879,0.04 -0.12372,0.0714 -0.0566,0.0497 -0.0933,0.1193 -0.14986,0.16901 -0.0358,0.0314 -0.0825,0.0476 -0.12372,0.0714 -0.14434,0.0833 -0.28868,0.16667 -0.43301,0.25 -0.0479,0.0277 -0.36844,0.22816 -0.43301,0.25 -0.58098,0.19654 -0.003,2.3e-4 -0.31887,0.0192 -0.0238,10e-4 -0.0381,0.0343 -0.0619,0.0357 -0.0336,0.002 -0.065,-0.0174 -0.0976,-0.0262 -0.0857,-0.006 -0.17131,-0.0217 -0.257,-0.0166 -0.0752,0.005 -0.14677,0.0345 -0.22129,0.0453 -0.0527,0.008 -0.10674,0.002 -0.15943,0.01 -0.0745,0.0108 -0.14655,0.0543 -0.2213,0.0453 -0.0528,-0.006 -0.0805,-0.0816 -0.1333,-0.088 -0.0747,-0.009 -0.14613,0.0408 -0.22129,0.0453 -0.0857,0.005 -0.17132,-0.0217 -0.257,-0.0166 -0.0238,10e-4 -0.0386,0.0309 -0.0619,0.0357 -0.0521,0.0107 -0.10825,-0.005 -0.15943,0.01 -0.0458,0.0131 -0.0762,0.0686 -0.12373,0.0714 -0.28669,0.0172 -0.1072,-0.081 -0.32843,-0.1403 -0.10284,-0.0276 -0.21315,0.0319 -0.31887,0.0192 -0.0668,-0.008 -0.12857,-0.0421 -0.19514,-0.0523 -0.0849,-0.0129 -0.17117,-0.0151 -0.257,-0.0166 -0.0533,-8.8e-4 -0.10801,0.0234 -0.15944,0.01 -0.0515,-0.0138 -0.0818,-0.0742 -0.1333,-0.088 -0.0515,-0.0138 -0.10801,0.0234 -0.15943,0.01 -0.023,-0.006 -0.0238,-0.0412 -0.0357,-0.0619 -0.0445,-0.0293 -0.0818,-0.0742 -0.1333,-0.088 -0.023,-0.006 -0.0388,0.0419 -0.0619,0.0357 -0.0514,-0.0138 -0.0888,-0.0587 -0.13329,-0.088 -0.0445,-0.0293 -0.0963,-0.0497 -0.1333,-0.088 -0.0331,-0.0342 -0.0383,-0.0895 -0.0714,-0.12372 -0.037,-0.0383 -0.0981,-0.048 -0.1333,-0.088 -0.2031,-0.35179 0.004,-0.0567 -0.24044,-0.27357 -0.0534,-0.0474 -0.0575,-0.13425 -0.10714,-0.18558 -0.41166,-0.42574 0.0765,0.12763 -0.23086,-0.11415 -0.0772,-0.0607 -0.12756,-0.15102 -0.20473,-0.21171 -0.30728,-0.2418 0.1808,0.31159 -0.23086,-0.11415 -0.0331,-0.0343 -0.0358,-0.0921 -0.0714,-0.12372 -0.0252,-0.0223 -0.065,-0.0174 -0.0976,-0.0261 -0.0564,-0.0499 -0.12114,-0.0917 -0.16901,-0.14986 -0.0454,-0.0551 -0.0714,-0.12372 -0.10714,-0.18558 -0.0119,-0.0206 -0.0159,-0.0487 -0.0357,-0.0619 -0.0281,-0.0186 -0.065,-0.0174 -0.0976,-0.0261 -0.1214,-0.0674 -0.2483,-0.12566 -0.36416,-0.20215 -0.0199,-0.0131 -0.0193,-0.0447 -0.0357,-0.0619 -0.24338,-0.25171 -0.11548,-0.0479 -0.37372,-0.36159 -0.0304,-0.0367 -0.034,-0.0943 -0.0714,-0.12372 -0.0675,-0.0531 -0.16339,-0.0611 -0.23086,-0.11414 -0.0374,-0.0295 -0.0476,-0.0825 -0.0714,-0.12372 -0.0833,-0.14434 -0.16666,-0.28868 -0.25,-0.43301 -0.0406,-0.0704 -0.20853,-0.33143 -0.21428,-0.37116 -0.0122,-0.085 0.0111,-0.17134 0.0166,-0.257 0.006,-0.0857 0.0111,-0.17134 0.0166,-0.25701 0.005,-0.0857 0.0151,-0.17117 0.0166,-0.25701 8.6e-4,-0.0532 -0.028,-0.10944 -0.01,-0.15944 0.0479,-0.13029 0.16621,-0.23004 0.20214,-0.36414 0.11208,-0.41827 -0.21759,-0.0314 0.007,-0.41644 0.0646,-0.11076 0.16106,-0.19962 0.23787,-0.30229 0.006,-0.008 0.1743,-0.26507 0.176,-0.26657 0.0537,-0.0472 0.13044,-0.0617 0.18558,-0.10715 0.0581,-0.0478 0.0917,-0.12114 0.14987,-0.169 0.0552,-0.0454 0.13042,-0.0617 0.18557,-0.10714 0.6864,-0.56507 -0.30955,0.2129 0.20215,-0.36415 0.0632,-0.0713 0.18425,-0.0716 0.24744,-0.14286 0.0446,-0.0504 0.0224,-0.13478 0.0523,-0.19515 0.0472,-0.0954 0.12236,-0.1746 0.17601,-0.26657 0.0865,-0.14831 0.13369,-0.31844 0.22829,-0.46172 0.0415,-0.0628 0.12029,-0.0998 0.14986,-0.16901 0.0209,-0.0489 -0.0234,-0.10799 -0.01,-0.15944 0.006,-0.023 0.0513,-0.0144 0.0619,-0.0357 0.0298,-0.0603 0.0224,-0.13477 0.0523,-0.19514 0.0211,-0.0427 0.10262,-0.0287 0.12372,-0.0714 0.0298,-0.0603 0.0152,-0.13895 0.0523,-0.19515 0.0541,-0.0819 0.16407,-0.11888 0.21172,-0.20472 0.0259,-0.0466 -0.006,-0.10628 -0.01,-0.15944 0.0793,-0.10076 0.16105,-0.19962 0.23787,-0.30229 0.23627,-0.31581 -0.008,0.0158 0.11414,-0.23085 -0.0475,-0.15429 0.10838,-0.10618 0.14986,-0.16901 0.0185,-0.0281 0.0174,-0.065 0.0262,-0.0976 0.009,-0.0325 0.0354,-0.0652 0.0261,-0.0976 -0.0487,-0.17025 -0.16624,-0.16009 -0.1167,-0.34502 0.006,-0.023 0.0513,-0.0144 0.0619,-0.0357 0.20527,-0.41514 -0.0537,0.005 0.0427,-0.35458 0.006,-0.023 0.0557,-0.0127 0.0619,-0.0357 0.006,-0.023 -0.0343,-0.0381 -0.0357,-0.0619 -0.0199,-0.33176 0.034,0.0685 0.088,-0.13329 0.006,-0.023 -0.0419,-0.0389 -0.0357,-0.0619 0.006,-0.023 0.0557,-0.0127 0.0619,-0.0357 0.0138,-0.0515 -0.0234,-0.108 -0.01,-0.15944 0.0123,-0.046 0.0975,-0.0317 0.12372,-0.0714 0.0185,-0.0281 0.002,-0.0742 0.0261,-0.0976 0.0513,-0.0496 0.12372,-0.0714 0.18558,-0.10714 0.12372,-0.0714 0.24744,-0.14286 0.37115,-0.21429 0.12372,-0.0714 0.24744,-0.14285 0.37116,-0.21429 0.0412,-0.0238 0.0771,-0.0619 0.12372,-0.0714 0.033,-0.007 0.0639,0.0282 0.0976,0.0261 0.0237,-10e-4 0.0412,-0.0238 0.0619,-0.0357 0.0531,-0.003 0.1063,-0.013 0.15943,-0.01 0.11899,-0.0769 0.0818,0.0742 0.1333,0.088 0.023,0.006 0.0388,-0.0419 0.0619,-0.0357 0.023,0.006 0.0127,0.0557 0.0357,0.0619 0.023,0.006 0.0381,-0.0343 0.0619,-0.0357 0.0336,-0.002 0.0639,0.0282 0.0976,0.0261 0.15057,-0.009 -0.0533,-0.16799 0.19514,0.0523 0.0175,0.016 0.0182,0.0459 0.0357,0.0619 0.0398,0.0353 0.16262,0.0436 0.1333,0.088 -0.0293,0.0444 -0.1768,-0.0573 -0.1333,-0.088 0.10955,-0.0773 0.26076,-0.0625 0.39115,-0.0938"
         id="path4526"
         inkscape:connector-curvature="0" />
      <path
         style="fill:none;fill-rule:evenodd;stroke:#109e00;stroke-width:0.5;stroke-linecap:butt;stroke-linejoin:miter;stroke-miterlimit:4;stroke-dasharray:1.5, 1.50000000000000000;stroke-dashoffset:0;stroke-opacity:1"
         d="m 352.83682,1012.1132 c 0.0238,-0.1017 0.0713,-0.2007 0.0713,-0.3051 -6e-5,-0.048 -0.0476,-0.082 -0.0714,-0.1238 -0.0357,-0.062 -0.0875,-0.1168 -0.10714,-0.1855 -0.009,-0.032 0.0329,-0.065 0.0261,-0.098 -0.008,-0.04 -0.11262,-0.1951 -0.14286,-0.2475 -0.10714,-0.1855 -0.21429,-0.3711 -0.32143,-0.5567 -0.0476,-0.082 -0.0952,-0.1649 -0.14286,-0.2474 -0.0119,-0.021 -0.0127,-0.056 -0.0357,-0.062 -0.0515,-0.014 -0.115,0.039 -0.15943,0.01 -0.0596,-0.039 -0.0476,-0.1462 -0.10715,-0.1856 -0.0444,-0.029 -0.10801,0.023 -0.15944,0.01 -0.023,-0.01 -0.0238,-0.041 -0.0357,-0.062 -0.065,-0.017 -0.12857,-0.042 -0.19515,-0.052 -0.0849,-0.013 -0.17704,0.015 -0.257,-0.017 -0.0701,-0.027 -0.0983,-0.1238 -0.16901,-0.1498 -0.45409,-0.167 -0.21489,0 -0.51402,-0.033 -0.0668,-0.01 -0.12781,-0.051 -0.19514,-0.052 -0.27995,0 -0.14154,0.084 -0.38073,0.055 -0.0668,-0.01 -0.1301,-0.035 -0.19514,-0.052 -0.0325,-0.01 -0.0639,-0.026 -0.0976,-0.026 -0.10646,0 -0.2136,0.035 -0.31886,0.019 -0.0526,-0.01 -0.0802,-0.085 -0.1333,-0.088 -0.69853,-0.045 -0.16916,0.03 -0.50444,0.1263 -0.0512,0.015 -0.109,-0.01 -0.15943,0.01 -0.0676,0.023 -0.12372,0.071 -0.18558,0.1071 -0.0825,0.048 -0.16496,0.095 -0.24743,0.1429 -0.10492,0.06 -0.53119,0.2885 -0.61859,0.3571 -0.0592,0.047 -0.0957,0.1167 -0.14987,0.169 -0.12079,0.1168 -0.32286,0.2571 -0.42344,0.4094 -0.0185,0.028 -0.005,0.071 -0.0261,0.098 -0.0607,0.077 -0.14659,0.1313 -0.21172,0.2047 -0.19982,0.2254 0.0468,0.052 -0.23787,0.3023 -0.0358,0.032 -0.0952,0.033 -0.12372,0.072 -0.0832,0.1111 -0.12566,0.2483 -0.20215,0.3641 -0.0415,0.063 -0.10837,0.1062 -0.14986,0.169 -0.0473,0.072 -0.0738,0.1551 -0.11415,0.2309 -0.0652,0.1226 -0.14466,0.2378 -0.20215,0.3641 -0.0279,0.061 -0.0196,0.1363 -0.0523,0.1952 -0.0365,0.066 -0.1033,0.1098 -0.14986,0.169 -0.0329,0.042 -0.0497,0.096 -0.088,0.1333 -0.0343,0.033 -0.0895,0.038 -0.12372,0.071 -0.0383,0.037 -0.0587,0.089 -0.088,0.1333 -0.0587,0.089 -0.11222,0.1813 -0.17601,0.2666 -0.0603,0.081 -0.19665,0.1968 -0.23786,0.3023 -0.0368,0.094 -0.0366,0.2007 -0.0784,0.2927 -0.2511,0.5519 -0.14733,-0.055 -0.28059,0.6568 -0.0158,0.084 -0.008,0.1716 -0.0166,0.257 -0.0115,0.1185 -0.0224,0.2373 -0.0427,0.3546 -0.0115,0.066 -0.0349,0.1301 -0.0523,0.1952 -0.009,0.033 -0.0329,0.065 -0.0262,0.098 0.01,0.047 0.0619,0.077 0.0714,0.1237 0.0135,0.066 -0.048,0.1279 -0.0523,0.1951 -0.003,0.053 0.0234,0.108 0.01,0.1595 -0.0138,0.051 -0.0644,0.086 -0.088,0.1333 -0.0149,0.03 -0.0174,0.065 -0.0261,0.097 -0.009,0.033 -0.0239,0.064 -0.0261,0.098 -0.003,0.053 0.0159,0.1066 0.01,0.1595 -0.0208,0.1726 -0.0838,0.2176 -0.10458,0.3903 -0.006,0.053 0.0234,0.108 0.01,0.1594 -0.0138,0.052 -0.0742,0.082 -0.088,0.1333 -0.0138,0.051 0.0234,0.108 0.01,0.1594 -0.0965,0.36 -0.11047,-0.1337 -0.1403,0.3285 -0.002,0.024 0.0419,0.039 0.0357,0.062 -0.0308,0.115 -0.25492,0.2811 -0.29972,0.338 -0.0208,0.027 -0.0113,0.067 -0.0262,0.098 -0.0236,0.048 -0.0686,0.084 -0.088,0.1333 -0.0368,0.094 -0.0228,0.2084 -0.0784,0.2927 -0.0394,0.06 -0.1342,0.058 -0.18557,0.1072 -0.0242,0.023 -0.0129,0.067 -0.0261,0.098 -0.0337,0.079 -0.0804,0.1519 -0.11415,0.2308 -0.0351,0.082 -0.0344,0.2261 -0.0784,0.2928 -0.0352,0.053 -0.15037,0.054 -0.18557,0.1071 -0.0186,0.028 -0.008,0.07 -0.0262,0.098 -0.0262,0.04 -0.1026,0.029 -0.12372,0.071 -0.0439,0.089 -0.0345,0.2039 -0.0784,0.2927 -0.0236,0.048 -0.0644,0.086 -0.088,0.1333 -0.0149,0.03 -0.0174,0.065 -0.0262,0.098 -0.0261,0.098 -0.0719,0.1919 -0.0784,0.2927 -0.005,0.075 0.0408,0.1462 0.0453,0.2213 0.0165,0.2755 -0.0671,0.2227 0.0287,0.4783 0.0251,0.067 0.0821,0.1187 0.10714,0.1856 0.23437,0.6256 -0.14586,-0.2189 0.0287,0.4783 0.0231,0.092 0.10946,0.1582 0.14286,0.2474 0.0187,0.05 -0.009,0.1096 0.01,0.1595 0.0334,0.089 0.0952,0.1649 0.14286,0.2474 0.10714,0.1856 0.21428,0.3712 0.32142,0.5568 0.0833,0.1443 0.16667,0.2886 0.25,0.433 0.0357,0.062 0.0714,0.1237 0.10714,0.1855 0.0238,0.041 0.034,0.094 0.0714,0.1238 0.0675,0.053 0.1567,0.071 0.23085,0.1141 0.092,0.054 0.17113,0.1288 0.26659,0.176 0.0604,0.03 0.13009,0.035 0.19514,0.052 0.21579,0.058 0.32776,0.1083 0.54972,0.095 0.0752,0 0.14653,-0.036 0.2213,-0.045 0.10572,-0.013 0.21298,-0.01 0.31886,-0.019 0.12752,-0.014 0.25342,-0.04 0.38073,-0.055 0.0529,-0.01 0.10827,0.01 0.15944,-0.01 0.0457,-0.013 0.0786,-0.056 0.12371,-0.071 0.14264,-0.048 0.29781,-0.049 0.44259,-0.091 0.11672,-0.033 0.22921,-0.08 0.34501,-0.1167 0.0936,-0.029 0.19271,-0.043 0.28316,-0.081 0.0878,-0.037 0.16495,-0.095 0.24743,-0.1429 0.2062,-0.119 0.4124,-0.2381 0.61859,-0.3571 0.4124,-0.2381 0.82479,-0.4762 1.23718,-0.7143 0.3093,-0.1786 0.61859,-0.3571 0.92789,-0.5357 0.28356,-0.1637 0.40128,-0.2091 0.64472,-0.4547 0.0903,-0.091 0.15543,-0.2041 0.23787,-0.3023 0.0968,-0.1153 0.2083,-0.2184 0.29972,-0.338 0.097,-0.127 0.17601,-0.2666 0.26402,-0.3999 0.0587,-0.089 0.10536,-0.1869 0.176,-0.2666 0.0805,-0.091 0.19645,-0.1466 0.27358,-0.2404 0.0545,-0.066 0.0738,-0.1551 0.11415,-0.2309 0.0652,-0.1226 0.13698,-0.2415 0.20215,-0.3641 0.0402,-0.076 0.061,-0.1635 0.11409,-0.231 0.0295,-0.037 0.0943,-0.034 0.12372,-0.071 0.0531,-0.067 0.0668,-0.1593 0.11415,-0.2309 0.0415,-0.063 0.10838,-0.1062 0.14986,-0.169 0.0946,-0.1433 0.13369,-0.3184 0.2283,-0.4617 0.0131,-0.02 0.0471,-0.017 0.0619,-0.036 0.0659,-0.084 0.11735,-0.1778 0.17601,-0.2666 0.0293,-0.044 0.0742,-0.082 0.088,-0.1333 0.0138,-0.051 -0.0234,-0.108 -0.01,-0.1595 0.006,-0.023 0.0446,-0.019 0.0619,-0.036 0.0541,-0.052 0.0957,-0.1167 0.14986,-0.169 0.0487,-0.047 0.14068,-0.057 0.18557,-0.1071 0.2428,0.085 0.0513,-0.1936 0.0523,-0.1952 0.004,-0.01 0.36507,-0.2108 0.37115,-0.2143 0.12372,-0.071 0.24744,-0.1428 0.37116,-0.2143 0.0412,-0.024 0.0825,-0.048 0.12372,-0.071 0.0206,-0.012 0.039,-0.029 0.0619,-0.036 0.0724,-0.021 0.14892,-0.024 0.2213,-0.045 0.0228,-0.01 0.0381,-0.037 0.0619,-0.036 0.0672,0 0.12795,0.048 0.19515,0.052 0.0238,0 0.042,-0.049 0.0619,-0.036 0.0397,0.026 0.0476,0.082 0.0714,0.1237 0.1182,0.014 0.23959,0.012 0.35458,0.043 0.023,0.01 0.0159,0.049 0.0357,0.062 0.0281,0.019 0.065,0.017 0.0976,0.026 0.0238,0.041 0.034,0.094 0.0714,0.1237 0.0735,0.058 0.31874,0.1596 0.426,0.1665 0.0238,0 0.0381,-0.034 0.0619,-0.036 0.0336,0 0.064,0.028 0.0976,0.026 0.0229,0 0.39632,-0.2288 0.43301,-0.25 0.0825,-0.048 0.16497,-0.095 0.24745,-0.1428 0.0206,-0.012 0.0513,-0.014 0.0619,-0.036 0.20527,-0.4151 -0.0537,0.01 0.0427,-0.3545 0.006,-0.023 0.0412,-0.024 0.0619,-0.036 0.0174,-0.065 0.0563,-0.1279 0.0523,-0.1951 -0.003,-0.047 -0.0476,-0.082 -0.0714,-0.1237 0.005,-0.086 0.0217,-0.1713 0.0166,-0.257 -10e-4,-0.024 -0.0238,-0.041 -0.0357,-0.062 -0.014,-0.024 -0.24347,-0.4012 -0.25,-0.433 -0.007,-0.033 0.0329,-0.065 0.0261,-0.098 -0.007,-0.034 -0.22581,-0.3911 -0.25,-0.433 -0.0595,-0.1031 -0.11904,-0.2062 -0.17857,-0.3093 -0.0238,-0.041 -0.0288,-0.1026 -0.0714,-0.1237 -0.0477,-0.024 -0.108,0.023 -0.15944,0.01 -0.0515,-0.014 -0.0818,-0.074 -0.1333,-0.088 -0.023,-0.01 -0.0389,0.042 -0.0619,0.036 -0.1301,-0.035 0.0969,-0.1352 -0.13331,-0.088 -0.0683,0.014 -0.23861,0.1641 -0.30928,0.1786 -0.0521,0.011 -0.10726,0 -0.15945,0.01 -0.0427,0.01 -0.19383,0.1119 -0.24743,0.1428 -0.16496,0.095 -0.32992,0.1905 -0.49487,0.2857 -0.0536,0.031 -0.20473,0.1341 -0.24744,0.1429 -0.13399,0.027 -0.14536,0.013 -0.257,-0.017 -0.0326,-0.01 -0.064,-0.028 -0.0976,-0.026 -0.0238,0 -0.0381,0.034 -0.0619,0.036 -0.0285,0 -0.48666,-0.1301 -0.48787,-0.1307 -0.0213,-0.011 -0.0159,-0.049 -0.0357,-0.062 -0.0562,-0.037 -0.13895,-0.015 -0.19514,-0.052 -0.0397,-0.026 -0.0317,-0.098 -0.0714,-0.1237 -0.0281,-0.019 -0.0695,-0.01 -0.0976,-0.026 -0.0199,-0.013 -0.19927,-0.3451 -0.21429,-0.3711 -0.0833,-0.1443 -0.16666,-0.2887 -0.25,-0.433 -0.0161,-0.028 -0.10569,-0.1613 -0.10714,-0.1856 -0.004,-0.067 0.0563,-0.1279 0.0523,-0.1951 -0.003,-0.048 -0.0686,-0.076 -0.0714,-0.1238 -0.002,-0.034 0.0282,-0.064 0.0262,-0.098 -0.004,-0.064 -0.10331,-0.1218 -0.10715,-0.1855 -0.002,-0.033 0.0623,-0.2601 0.0784,-0.2927 0.0615,-0.1245 0.16622,-0.2301 0.20216,-0.3642 0.0123,-0.046 -0.055,-0.079 -0.0714,-0.1237 -0.0323,-0.088 -0.027,-0.1897 -0.0738,-0.2707 -0.0399,-0.069 -0.23022,-0.1035 -0.17615,-0.1622 0.054,-0.059 0.11741,0.1081 0.17615,0.1622"
         id="path4528"
         inkscape:connector-curvature="0" />
      <path
         style="fill:none;fill-rule:evenodd;stroke:#109e00;stroke-width:0.5;stroke-linecap:butt;stroke-linejoin:miter;stroke-miterlimit:4;stroke-dasharray:1.5, 1.50000000000000000;stroke-dashoffset:0;stroke-opacity:1"
         d="m 335.14501,1027.8701 c -0.15956,-0.029 -0.33983,0 -0.47875,-0.087 -0.10197,-0.061 -0.11905,-0.2062 -0.17858,-0.3093 -0.15476,-0.2681 -0.30952,-0.5361 -0.46428,-0.8042 -0.006,-0.011 -0.19357,-0.3528 -0.21428,-0.3711 -0.025,-0.023 -0.0698,-0.01 -0.0974,-0.026 -0.0197,-0.013 -0.0175,-0.046 -0.0357,-0.062 -0.0398,-0.035 -0.0933,-0.053 -0.13309,-0.088 -0.0317,-0.028 -0.0774,-0.1709 -0.10714,-0.1855 -0.0606,-0.03 -0.13893,-0.015 -0.19517,-0.052 -0.0535,-0.035 -0.0536,-0.1505 -0.10714,-0.1856 -0.0282,-0.018 -0.0741,0 -0.0974,-0.026 -0.0991,-0.1028 -0.12,-0.2638 -0.21429,-0.3711 -0.0351,-0.04 -0.0962,-0.05 -0.13309,-0.088 -0.22732,-0.2354 0.13285,-0.01 -0.17857,-0.3093 -0.0768,-0.074 -0.18685,-0.1054 -0.26653,-0.1761 -0.30246,-0.2682 0.31031,0.024 -0.3023,-0.2378 -0.10928,-0.047 -0.17136,-0.011 -0.29275,-0.078 -0.0655,-0.037 -0.10604,-0.1085 -0.16881,-0.15 -0.62855,-0.4151 -0.004,0.02 -0.32839,-0.1403 -0.0105,0 -0.42312,-0.2626 -0.55928,-0.2545 -0.075,0 -0.14893,0.025 -0.22132,0.045 -0.023,0.01 -0.0383,0.034 -0.0617,0.036 -0.0339,0 -0.0642,-0.028 -0.0974,-0.026 -0.0241,0 -0.20473,0.1182 -0.2474,0.1429 -0.22683,0.1309 -0.45366,0.2619 -0.68049,0.3929 -0.16496,0.095 -0.32992,0.1904 -0.49481,0.2856 -0.0416,0.024 -0.10266,0.029 -0.12374,0.072 -0.0233,0.048 0.0305,0.1104 0.01,0.1593 -0.11995,0.2807 -0.15802,0.076 -0.33543,0.2761 -0.057,0.064 -0.0669,0.1593 -0.11418,0.2309 -0.0414,0.063 -0.11326,0.1032 -0.14981,0.169 -0.0326,0.059 -0.0225,0.1348 -0.0523,0.1952 -0.0107,0.021 -0.0474,0.017 -0.0617,0.036 -0.0659,0.084 -0.12881,0.1711 -0.17597,0.2665 -0.0298,0.06 -0.0278,0.1325 -0.0523,0.1952 -0.0314,0.08 -0.0761,0.1539 -0.11418,0.2309 -0.0348,0.1301 -0.0621,0.2624 -0.10455,0.3903 -0.048,0.1446 -0.13481,0.2768 -0.16642,0.4259 -0.0498,0.2346 -0.0241,0.6804 -0.0401,0.9305 -0.008,0.119 -0.0447,0.2355 -0.0428,0.3546 0.002,0.1283 0.0629,0.2529 0.0548,0.3807 -0.0202,0.3131 -0.12883,-0.014 -0.11411,0.2309 0.006,0.1101 0.10686,0.012 0.01,0.1593 -0.0134,0.02 -0.0633,0.012 -0.0617,0.036 0.20238,0.3505 0.0535,0 0.01,0.1593 -0.006,0.023 0.0238,0.041 0.0357,0.062 0.0238,0.041 0.0688,0.076 0.0714,0.1237 0.004,0.067 -0.0348,0.1301 -0.0523,0.1951 -0.009,0.033 -0.008,0.07 -0.026,0.097 -0.0134,0.02 -0.0633,0.012 -0.0617,0.036 0.003,0.048 0.0745,0.076 0.0714,0.1237 -0.003,0.053 -0.067,0.084 -0.0879,0.1333 -0.0262,0.062 -0.0349,0.1301 -0.0523,0.1952 -0.009,0.033 -0.0178,0.065 -0.0259,0.097 0.0119,0.021 0.0418,0.039 0.0357,0.062 -0.006,0.023 -0.0555,0.013 -0.0617,0.036 -0.006,0.023 0.0238,0.041 0.0357,0.062 -0.0208,0.012 -0.0555,0.013 -0.0617,0.036 -0.0137,0.051 0.0305,0.1104 0.01,0.1593 -0.0294,0.069 -0.10832,0.1061 -0.14982,0.169 -0.0188,0.028 -0.0178,0.065 -0.0259,0.097 -0.0178,0.065 -0.0258,0.1332 -0.0523,0.1952 -0.0208,0.049 -0.0586,0.089 -0.0879,0.1333 -0.0297,0.045 -0.0528,0.093 -0.088,0.1333 -0.0158,0.017 -0.049,0.016 -0.0617,0.036 -0.0188,0.028 -0.008,0.07 -0.0259,0.097 -0.0247,0.037 -0.23166,0.111 -0.24741,0.1429 -0.0298,0.06 -0.0225,0.1348 -0.0523,0.1951 -0.0107,0.022 -0.0416,0.024 -0.0617,0.036 -0.0178,0.065 -0.048,0.128 -0.0523,0.1952 -10e-4,0.024 0.0418,0.039 0.0357,0.062 -0.0137,0.051 -0.0644,0.086 -0.088,0.1332 -0.0149,0.03 -0.011,0.067 -0.0259,0.097 -0.0233,0.048 -0.0742,0.082 -0.088,0.1333 -0.0137,0.052 0.0235,0.1079 0.01,0.1593 -0.006,0.023 -0.0416,0.024 -0.0617,0.036 -0.0297,0.045 -0.0845,0.08 -0.088,0.1333 -0.003,0.047 0.0837,0.078 0.0714,0.1238 -0.0198,0.073 -0.14079,0.094 -0.14982,0.169 -0.009,0.071 0.0927,0.1156 0.10715,0.1855 0.16238,0.7934 -0.0652,-0.023 -0.0428,0.3546 0.005,0.075 0.0465,0.1461 0.0455,0.2212 -9.1e-4,0.067 -0.0563,0.1279 -0.0522,0.1951 1.1e-4,0 0.15912,0.5548 0.16198,0.5663 0.0604,0.2422 0.0832,0.4901 0.17153,0.7258 0.0215,0.056 0.17686,0.2759 0.17857,0.3093 0.003,0.053 -0.0845,0.08 -0.0879,0.1332 -0.003,0.047 0.0476,0.082 0.0714,0.1238 0.0119,0.021 0.0238,0.041 0.0357,0.062 0.0212,0.037 0.2369,0.4263 0.25,0.433 0.0606,0.03 0.13317,0.026 0.1951,0.052 0.049,0.021 0.0817,0.074 0.13309,0.088 0.083,0.022 0.17216,0 0.25703,0.016 0.0668,0.01 0.12793,0.048 0.19517,0.052 0.0239,0 0.0384,-0.037 0.0617,-0.036 0.0672,0 0.13014,0.035 0.19517,0.052 0.10631,-0.01 0.21239,-0.021 0.3189,-0.019 0.0672,0 0.12775,0.051 0.1951,0.052 0.10652,0 0.2135,0 0.3189,-0.019 0.0238,0 0.0416,-0.024 0.0617,-0.036 0.0617,-0.036 0.12367,-0.071 0.18554,-0.1071 0.0617,-0.036 0.11869,-0.082 0.18561,-0.1072 0.1895,-0.071 0.4744,-0.065 0.66389,-0.1359 0.0669,-0.025 0.12367,-0.071 0.18554,-0.1071 0.12373,-0.071 0.24747,-0.1429 0.37114,-0.2143 0.30934,-0.1786 0.61862,-0.3571 0.92789,-0.5357 0.0696,-0.04 0.44146,-0.2747 0.49489,-0.2857 0.0521,-0.011 0.10624,-0.01 0.15945,-0.01 0.0736,-0.015 0.1482,-0.027 0.22126,-0.045 0.0952,-0.024 0.19014,-0.05 0.2832,-0.081 0.0225,-0.01 0.0387,-0.031 0.0617,-0.036 0.0521,-0.011 0.10826,0.01 0.15939,-0.01 0.0459,-0.013 0.0766,-0.065 0.12373,-0.071 0.0853,-0.012 0.17115,0.015 0.25704,0.016 0.0532,9e-4 0.10653,-0.016 0.15939,-0.01 0.1235,0.015 0.26719,0.072 0.39033,0.1046 0.0764,0.02 0.21879,0.074 0.29268,0.078 0.0529,0 0.10926,-0.027 0.15946,-0.01 0.16196,0.057 0.29589,0.1838 0.46169,0.2283 0.0731,0.019 0.14854,-0.065 0.22132,-0.045 0.46051,0.1234 -0.11938,0.194 0.36418,0.2021 0.0755,0 0.14855,-0.065 0.22126,-0.045 0.0731,0.019 0.10603,0.1084 0.1688,0.1499 0.0269,0.018 0.3874,0.1038 0.39027,0.1046 0.0654,0.017 0.13013,0.035 0.19517,0.052 0.0327,0.01 0.0642,0.028 0.0974,0.026 0.024,0 0.0387,-0.031 0.0617,-0.036 0.12559,-0.026 0.2534,-0.04 0.3807,-0.055 0.0527,-0.01 0.10822,0.01 0.15946,-0.01 0.0916,-0.026 0.15719,-0.1124 0.24741,-0.1429 0.0711,-0.024 0.15083,-0.019 0.22132,-0.045 0.11151,-0.042 0.20619,-0.119 0.30928,-0.1785 0.1856,-0.1072 0.37114,-0.2143 0.55675,-0.3215 0.0617,-0.036 0.13813,-0.054 0.1856,-0.1071 0.057,-0.064 0.0668,-0.1592 0.11411,-0.2309 0.52934,-0.8017 0.0243,0.1525 0.31631,-0.595 0.0387,-0.099 0.14845,-0.1636 0.17598,-0.2665 0.0138,-0.051 -0.0235,-0.1079 -0.01,-0.1593 0.0137,-0.051 0.0817,-0.08 0.088,-0.1334 0.009,-0.074 -0.057,-0.1466 -0.0455,-0.2211 0.0129,-0.085 0.1012,-0.146 0.11411,-0.2309 0.0115,-0.074 -0.0409,-0.146 -0.0455,-0.2211 -0.0109,-0.1823 0.1086,-0.012 0.0166,-0.2571 -0.0331,-0.089 -0.10974,-0.158 -0.14286,-0.2474 -0.0186,-0.05 -0.007,-0.1061 -0.01,-0.1593 -0.007,-0.1061 0.0102,-0.2165 -0.0192,-0.3188 -0.0261,-0.092 -0.0952,-0.165 -0.14286,-0.2475 -0.17857,-0.3093 -0.35714,-0.6186 -0.53571,-0.9279 -0.0595,-0.1031 -0.11905,-0.2062 -0.17858,-0.3093 -0.0238,-0.041 -0.058,-0.078 -0.0714,-0.1237 -0.0148,-0.051 0.005,-0.1082 -0.01,-0.1593 -0.0134,-0.046 -0.0476,-0.082 -0.0714,-0.1237 -0.0238,-0.041 -0.0476,-0.082 -0.0714,-0.1237 -0.14286,-0.2475 -0.28571,-0.4949 -0.42857,-0.7423 -0.0833,-0.1444 -0.16667,-0.2887 -0.25,-0.4331 -0.0357,-0.062 -0.0597,-0.1321 -0.10714,-0.1855 -0.0648,-0.074 -0.14225,-0.136 -0.20452,-0.2119 -0.0304,-0.037 -0.0386,-0.089 -0.0714,-0.1237 -0.0369,-0.038 -0.091,-0.055 -0.13309,-0.088 -0.0592,-0.047 -0.11635,-0.096 -0.16881,-0.15 -0.0641,-0.066 -0.0742,-0.1861 -0.14285,-0.2474 -0.025,-0.023 -0.0675,-0.011 -0.0974,-0.026 -0.0478,-0.024 -0.0817,-0.074 -0.1331,-0.088 -0.0229,-0.01 -0.0383,0.034 -0.0617,0.036 -0.067,0 -0.12826,-0.044 -0.19516,-0.052 -0.10891,-0.013 -0.21871,-0.017 -0.32802,-0.025 z"
         id="path4530"
         inkscape:connector-curvature="0" />
      <path
         style="fill:none;fill-rule:evenodd;stroke:#109e00;stroke-width:0.5;stroke-linecap:butt;stroke-linejoin:miter;stroke-miterlimit:4;stroke-dasharray:1.5, 1.50000000000000000;stroke-dashoffset:0;stroke-opacity:1"
         d="m 299.25988,991.31523 c -0.32478,-0.2939 -0.60466,-0.64682 -0.97442,-0.88166 -0.1444,-0.0917 -0.47452,0.17778 -0.57538,0.21556 -0.19944,0.0747 -0.42828,0.0488 -0.6259,0.12808 -0.12502,0.0502 -0.23327,0.13468 -0.34994,0.20204 -0.32078,0.1852 -0.64149,0.37036 -0.96226,0.55556 -0.47874,0.2764 -0.43878,0.21697 -0.86131,0.73056 -0.0478,0.0581 -0.11165,0.11431 -0.12443,0.18848 -0.0224,1.32704 0.10582,-0.0255 -0.25883,0.96593 -0.0419,0.11395 -0.009,0.24294 -0.0234,0.36345 -0.0118,0.0948 -0.0678,0.18094 -0.074,0.276 -0.005,0.0751 0.0147,0.15025 0.0135,0.22549 -0.002,0.12135 -0.0307,0.24224 -0.0234,0.36344 0.002,0.0337 0.0524,0.054 0.0505,0.0875 -0.006,0.095 -0.0626,0.18142 -0.0739,0.27597 -0.009,0.0746 0.005,0.15063 0.0135,0.22548 0.0217,0.17994 0.0667,0.35743 0.0776,0.53841 0.0117,0.196 -0.0217,0.39297 -0.01,0.58893 0.006,0.10648 0.0462,0.2081 0.064,0.31296 0.0295,0.17904 0.0335,0.36254 0.0775,0.53845 0.0164,0.0653 0.0798,0.11098 0.10101,0.17497 0.0342,0.10082 0.0347,0.21058 0.0641,0.31292 0.009,0.0323 0.0594,0.0549 0.0505,0.0875 -0.0198,0.0729 -0.10498,0.11578 -0.1245,0.18852 -0.009,0.0326 0.0337,0.0583 0.0505,0.0875 0.0505,0.0875 0.11931,0.16666 0.15152,0.26244 0.0482,0.14268 -0.003,0.30341 0.0271,0.45093 0.0225,0.11096 0.17954,0.23897 0.20203,0.34993 0.009,0.0467 -0.0465,0.0913 -0.037,0.138 0.0132,0.0661 0.0878,0.10883 0.10101,0.17496 0.009,0.0467 -0.0465,0.0913 -0.0369,0.13796 0.0225,0.11096 0.17953,0.23897 0.20203,0.34993 0.0299,0.14768 0.006,0.30188 0.027,0.45088 0.0444,0.3082 0.0821,0.2623 0.0776,0.5384 -0.002,0.1214 -0.0307,0.2423 -0.0234,0.3635 0.004,0.067 0.0878,0.1088 0.10101,0.175 0.0149,0.074 -0.002,0.1519 0.0135,0.2254 0.007,0.033 0.0486,0.054 0.0505,0.087 0.007,0.1213 -0.0307,0.2423 -0.0235,0.3635 0.002,0.034 0.0486,0.054 0.0505,0.088 0.003,0.048 -0.0401,0.091 -0.0369,0.1379 0.003,0.051 0.34435,0.5965 0.35355,0.6124 0.10102,0.175 0.20203,0.3499 0.30305,0.5249 0.0673,0.1167 0.12194,0.2416 0.20203,0.3499 0.28035,0.3816 0.63889,0.646 1.00654,0.9353 0.33163,0.2609 0.39298,0.3568 0.75394,0.4978 0.0884,0.035 0.1814,0.085 0.27602,0.074 0.3387,-0.04 0.63878,-0.2521 0.92533,-0.4176 0.1166,-0.067 0.22582,-0.1496 0.34988,-0.202 1.05369,-0.4445 -0.31565,0.2989 0.83789,-0.3671 0.49572,-0.2862 0.99143,-0.5724 1.48714,-0.8586 0.11667,-0.067 0.23328,-0.1347 0.34995,-0.202 0.0875,-0.051 0.20197,-0.071 0.26244,-0.1515 0.14782,-0.1976 0.24537,-0.6398 0.30933,-0.8785 0.037,-0.138 0.0847,-0.2735 0.11092,-0.414 0.031,-0.1655 0.0402,-0.3342 0.0604,-0.5014 0.0202,-0.1672 0.0496,-0.3335 0.0604,-0.5014 0.0127,-0.196 0.003,-0.3928 0.01,-0.589 0.005,-0.1215 0.024,-0.2421 0.0235,-0.36341 -9.4e-4,-0.15043 -0.0368,-0.30066 -0.0271,-0.45093 0.006,-0.095 0.0724,-0.18076 0.0739,-0.27596 10e-4,-0.10627 -0.0513,-0.20729 -0.064,-0.31297 -0.0357,-0.29905 -0.005,-0.6048 -0.0541,-0.90189 -0.1061,-0.63785 -0.0715,-0.17815 -0.26605,-0.66289 -0.0558,-0.13984 -0.15409,-0.5429 -0.17862,-0.71338 -0.0107,-0.0745 0.0106,-0.15414 -0.0135,-0.22548 -0.0322,-0.0958 -0.10101,-0.17496 -0.15152,-0.26244 -0.0168,-0.0292 -0.0435,-0.0546 -0.0505,-0.0875 -0.0149,-0.0738 10e-4,-0.1515 -0.0136,-0.22544 -0.007,-0.0329 -0.0524,-0.054 -0.0505,-0.0875 -10e-4,-0.002 0.12121,-0.51151 0.14791,-0.55197 0.0188,-0.0282 0.0582,-0.0336 0.0875,-0.0505 0.0414,-0.0628 0.0879,-0.12265 0.12443,-0.18848 0.029,-0.0521 0.19742,-0.43725 0.28592,-0.51501 0.0759,-0.0667 0.18982,-0.0813 0.26244,-0.15152 0.0344,-0.0332 0.0107,-0.0982 0.0369,-0.13796 0.30083,-0.45559 0.0918,-0.0807 0.38694,-0.34004 0.08,-0.0703 0.13196,-0.16872 0.21193,-0.239 0.10118,-0.0889 0.26053,-0.10124 0.34994,-0.20204 0.0313,-0.0354 0.006,-0.10244 0.0369,-0.13796 0.0894,-0.10081 0.24877,-0.11313 0.34994,-0.20204 0.08,-0.0703 0.13196,-0.16872 0.21194,-0.239 0.21062,-0.18511 0.2197,-0.002 0.38693,-0.34005 0.0149,-0.0302 -0.0693,-0.0592 -0.0505,-0.0875 0.0369,-0.0561 0.13782,-0.0448 0.17493,-0.101 0.0188,-0.0282 -0.0594,-0.0549 -0.0505,-0.0875 0.0198,-0.0729 0.11958,-0.11335 0.12443,-0.18848 0.002,-0.0242 -0.21819,-0.37791 -0.25254,-0.43741 -0.10102,-0.17496 -0.20203,-0.34993 -0.30305,-0.52489 -0.0505,-0.0875 -0.0669,-0.207 -0.15152,-0.26245 -0.30876,-0.20391 -0.46041,-0.0494 -0.77742,-0.13437 -0.073,-0.0193 -0.11596,-0.10485 -0.18845,-0.12448 -0.073,-0.0193 -0.15038,0.0184 -0.22551,0.0136 -0.16801,-0.0108 -0.33555,-0.0317 -0.50147,-0.0604 -0.0935,-0.0164 -0.18142,-0.0625 -0.27595,-0.074 -0.0746,-0.009 -0.15275,0.033 -0.22545,0.0135 -0.0327,-0.009 -0.0178,-0.0789 -0.0505,-0.0875 -0.30138,-0.0807 -0.15253,0.0638 -0.40046,0.11455 -0.047,0.01 -0.0919,-0.0247 -0.13801,-0.037 -0.10434,0.0214 -0.21059,0.0348 -0.31294,0.064 -0.0853,0.0244 -0.18533,0.107 -0.26244,0.15152 -0.29161,0.16836 -0.58322,0.33672 -0.87483,0.50508 -0.0395,0.0228 -0.22815,0.14947 -0.26244,0.15152 -0.17195,0.0103 -0.22023,-0.17937 -0.28953,-0.29941 -0.0168,-0.0292 -0.0223,-0.069 -0.0505,-0.0875 -0.20839,-0.13758 -0.0697,0.004 -0.22545,0.0135 -0.0474,0.003 -0.10222,-0.0683 -0.13801,-0.037 -0.16386,0.14321 -0.27029,0.34127 -0.40548,0.51192"
         id="path4532"
         inkscape:connector-curvature="0" />
    </g>
  </g>
</svg>
