<?xml version="1.0" encoding="UTF-8" standalone="no"?>
<!-- Created with Inkscape (http://www.inkscape.org/) -->

<svg
   xmlns:dc="http://purl.org/dc/elements/1.1/"
   xmlns:cc="http://creativecommons.org/ns#"
   xmlns:rdf="http://www.w3.org/1999/02/22-rdf-syntax-ns#"
   xmlns:svg="http://www.w3.org/2000/svg"
   xmlns="http://www.w3.org/2000/svg"
   xmlns:sodipodi="http://sodipodi.sourceforge.net/DTD/sodipodi-0.dtd"
   xmlns:inkscape="http://www.inkscape.org/namespaces/inkscape"
   width="130"
   height="120"
   viewBox="0 0 130 120"
   id="svg2"
   version="1.1"
   inkscape:version="0.91 r13725"
   sodipodi:docname="Rust_oblasti.svg">
  <defs
     id="defs4" />
  <sodipodi:namedview
     id="base"
     pagecolor="#ffffff"
     bordercolor="#666666"
     borderopacity="1.0"
     inkscape:pageopacity="0.0"
     inkscape:pageshadow="2"
     inkscape:zoom="3.3075057"
     inkscape:cx="48.400483"
     inkscape:cy="28.527325"
     inkscape:document-units="px"
     inkscape:current-layer="layer1"
     showgrid="true"
     units="px"
     inkscape:window-width="1920"
     inkscape:window-height="1017"
     inkscape:window-x="-8"
     inkscape:window-y="-8"
     inkscape:window-maximized="1" />
  <metadata
     id="metadata7">
    <rdf:RDF>
      <cc:Work
         rdf:about="">
        <dc:format>image/svg+xml</dc:format>
        <dc:type
           rdf:resource="http://purl.org/dc/dcmitype/StillImage" />
        <dc:title></dc:title>
      </cc:Work>
    </rdf:RDF>
  </metadata>
  <g
     inkscape:label="Vrstva 1"
     inkscape:groupmode="layer"
     id="layer1"
     transform="translate(0,-932.36227)">
    <g
       id="g4237">
      <rect
         y="937.36224"
         x="5"
         height="110"
         width="120"
         id="rect4140"
         style="opacity:1;fill:#ffffff;fill-opacity:1;fill-rule:evenodd;stroke:#000000;stroke-width:1;stroke-miterlimit:4;stroke-dasharray:none;stroke-dashoffset:0;stroke-opacity:1" />
      <circle
         r="2.5"
         cy="967.36224"
         cx="30"
         id="path4142"
         style="opacity:1;fill:#c50d0d;fill-opacity:1;fill-rule:evenodd;stroke:#c50d0d;stroke-width:1;stroke-miterlimit:4;stroke-dasharray:none;stroke-dashoffset:0;stroke-opacity:1" />
      <circle
         r="2.5"
         cy="962.36224"
         cx="105"
         id="path4142-8"
         style="opacity:1;fill:#c50d0d;fill-opacity:1;fill-rule:evenodd;stroke:#c50d0d;stroke-width:1;stroke-miterlimit:4;stroke-dasharray:none;stroke-dashoffset:0;stroke-opacity:1" />
      <circle
         r="2.5"
         cy="1012.3622"
         cx="70"
         id="path4142-1"
         style="opacity:1;fill:#c50d0d;fill-opacity:1;fill-rule:evenodd;stroke:#c50d0d;stroke-width:1;stroke-miterlimit:4;stroke-dasharray:none;stroke-dashoffset:0;stroke-opacity:1" />
      <circle
         r="2.5"
         cy="1017.3622"
         cx="20"
         id="path4142-2"
         style="opacity:1;fill:#c50d0d;fill-opacity:1;fill-rule:evenodd;stroke:#c50d0d;stroke-width:1;stroke-miterlimit:4;stroke-dasharray:none;stroke-dashoffset:0;stroke-opacity:1" />
      <path
         inkscape:connector-curvature="0"
         id="path4171"
         d="m 17.316871,1023.9284 c 0.06113,-1.0078 -0.81699,0.2519 -1.068943,0 -0.112676,-0.1127 -0.0812,-0.3392 -0.213788,-0.4276 -0.118589,-0.079 -0.300098,0.064 -0.427577,0 0,-0.2212 0.05039,-0.2955 -0.213789,-0.4276 -0.06374,-0.032 -0.142525,0 -0.213788,0 -0.07126,-0.071 -0.123648,-0.1687 -0.213789,-0.2137 -0.06374,-0.032 -0.163398,0.05 -0.213788,0 -0.05039,-0.05 0.05039,-0.1634 0,-0.2138 -0.05039,-0.05 -0.181919,0.064 -0.213789,0 -0.06374,-0.1275 0.06374,-0.3001 0,-0.4276 -0.06374,-0.1275 -0.308988,0.079 -0.427577,0 -0.167709,-0.1118 -0.285051,-0.2851 -0.427577,-0.4276 -0.07126,-0.071 -0.168718,-0.1236 -0.213788,-0.2138 -0.03187,-0.064 0.03187,-0.15 0,-0.2138 -0.04507,-0.09 -0.168718,-0.1236 -0.213789,-0.2138 -0.03187,-0.064 0.05039,-0.1634 0,-0.2138 -0.05039,-0.05 -0.163398,0.051 -0.213789,0 -0.05039,-0.05 0.03187,-0.15 0,-0.2137 -0.04507,-0.09 -0.168718,-0.1237 -0.213788,-0.2138 -0.07384,-0.1477 0.07504,-0.9939 0,-1.069 -0.05039,-0.05 -0.163398,0.05 -0.213789,0 -0.0069,-0.01 0,-0.5895 0,-0.6413 0,-0.9977 0,-1.9954 0,-2.9931 0,-0.4276 0,-0.8551 0,-1.2827 0,-0.2138 -0.05185,-0.434 0,-0.6414 0.0773,-0.3092 0.326797,-0.5528 0.427577,-0.8551 0.04507,-0.1352 -0.10078,-0.3268 0,-0.4276 0.05039,-0.05 0.163399,0.05 0.213789,0 0.51925,-0.5193 -0.06357,-0.3139 0.427577,-0.6414 0.132586,-0.088 0.314901,-0.1011 0.427577,-0.2138 0.05039,-0.05 -0.03953,-0.1545 0,-0.2138 0.002,0 0.834859,-0.85 0.855154,-0.8551 0.03441,-0.01 1.452409,0.029 1.49652,0 0.167709,-0.1118 0.259867,-0.3158 0.427577,-0.4276 0.02056,-0.014 1.23853,0 1.282731,0 0.783891,0 1.567783,0 2.351674,0 0.356314,0 0.719548,-0.07 1.068943,0 0.156254,0.031 0.272986,0.1752 0.427577,0.2138 0.177313,0.044 0.92907,-0.07 1.068942,0 0.06374,0.032 -0.05039,0.1634 0,0.2138 0.03318,0.033 0.558176,-0.028 0.641366,0 0.151171,0.05 0.276406,0.1634 0.427577,0.2138 0.189723,0.063 0.928951,-0.07 1.068943,0 0.09014,0.045 0.129934,0.1579 0.213788,0.2138 0.132586,0.088 0.314901,0.1011 0.427577,0.2138 0.05039,0.05 -0.05039,0.1634 0,0.2137 0.112677,0.1127 0.368397,0.066 0.427577,0.2138 0.132332,0.3309 0,0.7127 0,1.069 0,0.071 -0.03187,0.15 0,0.2138 0.04507,0.09 0.168718,0.1236 0.213789,0.2138 0.03187,0.064 -0.03187,0.15 0,0.2138 0.04507,0.09 0.181919,0.1181 0.213788,0.2137 0.04507,0.1352 0,0.2851 0,0.4276 0,0.071 -0.03187,0.1501 0,0.2138 0.04507,0.09 0.181919,0.1182 0.213789,0.2138 0.04507,0.1352 -0.03457,0.2893 0,0.4276 0.03865,0.1546 0.163398,0.2764 0.213789,0.4275 0.04205,0.1262 0,0.9495 0,1.069 0,0.5701 0,1.1402 0,1.7103 0,0.1341 0.02641,0.8288 0,0.8552 -0.05039,0.05 -0.163399,-0.05 -0.213789,0 -0.05039,0.05 0.03187,0.15 0,0.2137 -0.04507,0.09 -0.142526,0.1426 -0.213789,0.2138 -0.259486,0.2595 -0.545998,0.4737 -0.641365,0.8552 0,1.2114 0.142526,0.071 -0.213789,0.4276 -0.106894,0.1069 0.106895,0.5344 0,0.6413 -0.112676,0.1127 -0.3149,0.1011 -0.427577,0.2138 -0.05039,0.05 0.05039,0.1634 0,0.2138 -0.05039,0.05 -0.150049,-0.032 -0.213788,0 -0.09014,0.045 -0.123648,0.1687 -0.213789,0.2138 -0.06374,0.032 -0.163398,-0.05 -0.213788,0 -0.112677,0.1127 -0.101112,0.3149 -0.213789,0.4276 -0.05039,0.05 -0.150049,-0.032 -0.213788,0 -0.09014,0.045 -0.123648,0.1687 -0.213789,0.2138 -0.06374,0.032 -0.163398,-0.05 -0.213788,0 -0.05039,0.05 0.05039,0.1634 0,0.2138 -0.05039,0.05 -0.163399,-0.05 -0.213789,0 -0.05039,0.05 0.05039,0.1634 0,0.2137 -0.05039,0.05 -0.150049,-0.032 -0.213788,0 -0.180283,0.09 -0.247295,0.3375 -0.427578,0.4276 -0.127478,0.064 -0.300098,-0.064 -0.427577,0 -0.09014,0.045 -0.123647,0.1687 -0.213788,0.2138 -0.114956,0.058 -0.312622,-0.058 -0.427577,0 -0.180283,0.09 -0.232034,0.3787 -0.427577,0.4276 -0.345676,0.086 -0.723267,-0.086 -1.068943,0 -0.154591,0.039 -0.276406,0.1634 -0.427577,0.2138 -0.06761,0.023 -0.150049,-0.032 -0.213789,0 -0.511936,0.2559 0.134729,0.4275 -0.427577,0.4275 -0.616596,0 -0.283438,0.017 -1.068942,0.2138 -0.168445,0.042 -0.715697,0 -0.855154,0 -0.07126,0 -0.163398,0.05 -0.213789,0 -0.05039,-0.05 0,-0.1425 0,-0.2138 0,-0.285 0,-0.5701 0,-0.8551 z"
         style="fill:none;fill-rule:evenodd;stroke:#109e00;stroke-width:0.5;stroke-linecap:butt;stroke-linejoin:miter;stroke-miterlimit:4;stroke-dasharray:1.5, 1.50000000000000000;stroke-dashoffset:0;stroke-opacity:1" />
      <path
         inkscape:connector-curvature="0"
         id="path4173"
         d="m 13.896255,1004.9012 c 0.285051,-0.3563 0.532497,-0.7463 0.855154,-1.0689 0.05039,-0.05 0.142525,0 0.213788,0 0.641366,0 1.282731,0 1.924097,0 0.855154,0 1.710308,0 2.565462,0 0.142526,0 0.285052,0 0.427577,0 0.07126,0 0.163399,-0.05 0.213789,0 0.112676,0.1126 0.101112,0.3149 0.213789,0.4275 0.02641,0.026 0.721089,0 0.855154,0 0.688175,0 -0.36496,-0.05 0.427577,0.2138 0.09778,0.033 0.760023,-0.048 0.855154,0 0.180282,0.09 0.247295,0.3375 0.427577,0.4276 0.127479,0.064 0.300098,-0.064 0.427577,0 0.09014,0.045 0.123647,0.1687 0.213789,0.2138 0.06374,0.032 0.163398,-0.05 0.213788,0 0.05039,0.05 -0.05929,0.1743 0,0.2138 0.354486,0.2363 0.528111,0.2138 0.855154,0.2138 0.07126,0 0.150049,-0.032 0.213789,0 0.180282,0.09 0.236358,0.3638 0.427577,0.4276 0.973226,0 0.01223,-0.1008 0.641365,0.2137 0.06374,0.032 0.163398,-0.05 0.213789,0 0.442336,0.4424 -0.675948,-0.017 0.213788,0.4276 0.09513,0.048 0.75737,-0.033 0.855155,0 0.16222,0.054 0.65867,0.7569 0.855154,0.8552 0.06374,0.032 0.163398,-0.05 0.213788,0 0.05039,0.05 -0.03187,0.15 0,0.2138 0.04507,0.09 0.142526,0.1425 0.213789,0.2138 0.07126,0.071 0.123647,0.1687 0.213788,0.2137 0.06374,0.032 0.163398,-0.05 0.213789,0 0.112676,0.1127 0.0812,0.3392 0.213788,0.4276 0.118589,0.079 0.300099,-0.064 0.427577,0 0.06374,0.032 -0.03187,0.1501 0,0.2138 0.04507,0.09 0.142526,0.1425 0.213789,0.2138 0,0.1425 -0.04507,0.2924 0,0.4276 0.06374,0.1912 0.337436,0.2473 0.427577,0.4275 0.06374,0.1275 -0.100781,0.3268 0,0.4276 0.05039,0.05 0.163398,-0.05 0.213789,0 0.05039,0.05 0,0.1425 0,0.2138 0,0.2335 -0.04609,0.9307 0,1.0689 0.05039,0.1512 0.163398,0.2765 0.213788,0.4276 0.04617,0.1385 0,0.8939 0,1.069 0,0.6413 0,1.2827 0,1.9241 0,0.1404 -0.04021,0.5207 0,0.6413 0.05039,0.1512 0.175141,0.273 0.213789,0.4276 0.0018,0.01 -0.0011,0.6402 0,0.6414 0.112676,0.1127 0.3149,0.1011 0.427577,0.2138 0.100781,0.1007 -0.06374,0.3001 0,0.4276 0.04507,0.09 0.168718,0.1236 0.213788,0.2137 0.02811,0.056 0,0.7434 0,0.8552 0,0.5701 0,1.1402 0,1.7103 0,0.7839 0,1.5678 0,2.3517 0,0.084 0.04565,0.9776 0,1.0689 -0.04507,0.09 -0.168718,0.1237 -0.213788,0.2138 -0.06719,0.1344 0.06719,0.7208 0,0.8552 -0.03187,0.064 -0.163398,-0.05 -0.213789,0 -0.05039,0.05 0.06374,0.1819 0,0.2137 -1.211468,0 -0.07126,-0.1425 -0.427577,0.2138 -0.05039,0.05 -0.163398,-0.05 -0.213788,0 -0.05039,0.05 0.03187,0.1501 0,0.2138 -0.04507,0.09 -0.157886,0.13 -0.213789,0.2138 -0.08839,0.1326 -0.125398,0.295 -0.213789,0.4276 -0.164452,0.2467 -0.476912,0.3947 -0.641365,0.6414 -0.08839,0.1325 -0.101112,0.3149 -0.213789,0.4275 -0.05039,0.05 -0.163398,-0.05 -0.213788,0 -0.05039,0.05 0.03187,0.1501 0,0.2138 -0.04507,0.09 -0.168718,0.1237 -0.213789,0.2138 -0.03187,0.064 0.05039,0.1634 0,0.2138 -0.05039,0.05 -0.163398,-0.05 -0.213788,0 -0.04371,0.044 0.04238,0.5566 0,0.6414 -0.04507,0.09 -0.168718,0.1236 -0.213789,0.2138 -0.03187,0.064 0,0.1425 0,0.2137 0,0.071 0,0.1426 0,0.2138 0,0.2262 0.03671,1.3864 0,1.4966 -0.03187,0.096 -0.168718,0.1236 -0.213788,0.2137 -0.03187,0.064 0.02253,0.1462 0,0.2138 -0.05039,0.1512 -0.175141,0.273 -0.213789,0.4276 -0.03457,0.1383 0.06374,0.3001 0,0.4276 -0.03187,0.064 -0.163398,-0.05 -0.213788,0 -0.100781,0.1008 0.04507,0.2923 0,0.4276 -0.05039,0.1511 -0.142526,0.285 -0.213789,0.4275 -0.07126,0.1426 -0.125398,0.295 -0.213788,0.4276 -0.111807,0.1677 -0.363838,0.2364 -0.427578,0.4276 -0.169348,0.508 0.253077,0.3883 -0.213788,0.8551 -0.05039,0.05 -0.163398,-0.05 -0.213789,0 -0.10078,0.1008 0.06374,0.3001 0,0.4276 -0.04507,0.09 -0.157885,0.13 -0.213788,0.2138 -0.08839,0.1326 -0.125398,0.295 -0.213789,0.4276 -0.0559,0.084 -0.168718,0.1236 -0.213788,0.2138 -0.03187,0.064 0.05039,0.1634 0,0.2138 -0.05039,0.05 -0.163398,-0.05 -0.213789,0 -0.100781,0.1007 0.06374,0.3001 0,0.4275 -0.04507,0.09 -0.168718,0.1237 -0.213788,0.2138 -0.05519,0.1104 0.05519,0.3172 0,0.4276 -0.122546,0.2451 -0.446073,0.2974 -0.641366,0.4276 -0.167709,0.1118 -0.247295,0.3374 -0.427577,0.4276 -0.05621,0.028 -0.74336,0 -0.855154,0 -0.08451,0 -0.977637,0.046 -1.068943,0 -0.09014,-0.045 -0.123647,-0.1688 -0.213788,-0.2138 -0.06374,-0.032 -0.150049,0.032 -0.213789,0 -0.09014,-0.045 -0.123647,-0.1687 -0.213788,-0.2138 -0.06374,-0.032 -0.150049,0.032 -0.213789,0 -0.09014,-0.045 -0.129934,-0.1579 -0.213788,-0.2138 -0.132586,-0.088 -0.314901,-0.1011 -0.427577,-0.2138 -0.05039,-0.05 0,-0.1425 0,-0.2138 -0.07126,-0.071 -0.129934,-0.1579 -0.213789,-0.2138 -0.132586,-0.088 -0.294991,-0.1254 -0.427577,-0.2138 -0.08385,-0.056 -0.123647,-0.1687 -0.213789,-0.2137 -0.06374,-0.032 -0.181918,0.064 -0.213788,0 -0.06374,-0.1275 0.06374,-0.3001 0,-0.4276 -0.03187,-0.064 -0.163398,0.05 -0.213789,0 -0.05039,-0.05 0.05039,-0.1634 0,-0.2138 -0.05039,-0.05 -0.150049,0.032 -0.213788,0 -0.09014,-0.045 -0.123648,-0.1687 -0.213789,-0.2138 -0.06374,-0.032 -0.163398,0.05 -0.213788,0 -0.05039,-0.05 0.05039,-0.1634 0,-0.2138 -0.05039,-0.05 -0.150049,0.032 -0.213789,0 -0.09014,-0.045 -0.129933,-0.1579 -0.213788,-0.2138 -0.132586,-0.088 -0.294991,-0.1254 -0.427577,-0.2138 -0.09062,-0.06 -0.597138,-0.5529 -0.641366,-0.6413 -0.263275,-0.5266 0.620571,0.193 -0.213788,-0.6414 -0.05039,-0.05 -0.163399,0.05 -0.213789,0 -0.05039,-0.05 0.05039,-0.1634 0,-0.2138 -0.100781,-0.1008 -0.300098,0.064 -0.427577,0 -0.09014,-0.045 -0.123647,-0.1687 -0.213789,-0.2138 -0.06374,-0.032 -0.150049,0.032 -0.213788,0 -0.09014,-0.045 -0.123647,-0.1687 -0.213789,-0.2138 -0.06374,-0.032 -0.150049,0.032 -0.213788,0 -0.180282,-0.09 -0.259868,-0.3157 -0.427577,-0.4275 -0.132586,-0.088 -0.276406,-0.1634 -0.427577,-0.2138 -0.06761,-0.023 -0.154495,0.039 -0.213789,0 -0.142526,-0.1426 -0.285051,-0.2851 -0.427577,-0.4276 -0.07126,0 -0.150049,0.032 -0.213788,0 -0.04092,-0.021 -0.834693,-0.8142 -0.855155,-0.8552 -0.03187,-0.064 0.05039,-0.1634 0,-0.2137 -0.05039,-0.05 -0.146182,0.023 -0.213788,0 -0.151171,-0.05 -0.285051,-0.1426 -0.427577,-0.2138 -0.142526,-0.071 -0.339187,-0.081 -0.427577,-0.2138 -0.07906,-0.1186 0,-0.2851 0,-0.4276 0,-0.071 0.05039,-0.1634 0,-0.2138 -0.05039,-0.05 -0.163398,0.05 -0.213789,0 -0.100781,-0.1008 0.06374,-0.3001 0,-0.4276 -0.04507,-0.09 -0.168718,-0.1236 -0.213788,-0.2138 -0.06374,-0.1274 0.100781,-0.3268 0,-0.4275 -0.112677,-0.1127 -0.314901,-0.1011 -0.427577,-0.2138 -0.05039,-0.05 0,-0.1425 0,-0.2138 0,-0.2138 0.05185,-0.434 0,-0.6414 -0.02444,-0.098 -0.181919,-0.1182 -0.213789,-0.2138 -0.04054,-0.1216 0,-0.8676 0,-1.0689 0,-0.071 0.02254,-0.1462 0,-0.2138 -0.05039,-0.1512 -0.175141,-0.273 -0.213788,-0.4276 -0.05537,-0.2214 0,-0.61 0,-0.8551 0,-0.5701 0,-1.1402 0,-1.7103 0,-0.051 0.02396,-0.8073 0,-0.8552 -0.04507,-0.09 -0.181919,-0.1182 -0.213789,-0.2138 -0.04507,-0.1352 0,-0.285 0,-0.4276 0,-0.071 0.03187,-0.15 0,-0.2138 -0.128273,-0.2565 -0.5130924,-0.3848 -0.6413655,-0.6413 -0.03187,-0.064 0.03187,-0.1501 0,-0.2138 -0.7090473,-0.709 0.1007808,0.2016 -0.2137886,-0.4276 -0.04507,-0.09 -0.1819188,-0.1182 -0.2137885,-0.2138 -0.042377,-0.1271 0,-1.0302 0,-1.2827 0,-0.071 0.03187,-0.15 0,-0.2138 -0.1282731,-0.2565 -0.5130925,-0.3848 -0.6413656,-0.6413 -0.057193,-0.1144 0.057193,-0.3133 0,-0.4276 -0.045071,-0.09 -0.1687179,-0.1237 -0.2137885,-0.2138 -0.03187,-0.064 0.03187,-0.1501 0,-0.2138 -0.045071,-0.09 -0.1819188,-0.1182 -0.2137886,-0.2138 -0.026132,-0.078 0,-1.2461 0,-1.2827 0,-0.071 0.050391,-0.1634 0,-0.2138 -0.05039,-0.05 -0.163398,0.05 -0.2137885,0 -0.05039,-0.05 0,-0.1425 0,-0.2138 0,-0.7126 0,-1.4253 0,-2.1379 0,-0.4988 0,-0.9977 0,-1.4965 0,-0.2138 0,-0.4276 0,-0.6414 0,-0.071 -0.03187,-0.15 0,-0.2138 0.2363491,-0.4727 0.1326864,-0.066 0.4275771,-0.2138 0.5769578,-0.2884 -0.00738,-0.096 0.2137885,-0.4275 0.1118064,-0.1677 0.2663277,-0.3067 0.4275771,-0.4276 0.1274788,-0.096 0.294991,-0.1254 0.427577,-0.2138 0.083855,-0.056 0.1236474,-0.1687 0.2137886,-0.2138 0.063739,-0.032 0.1633981,0.05 0.2137885,0 0.05039,-0.05 -0.03187,-0.15 0,-0.2138 0.04507,-0.09 0.168718,-0.1236 0.213789,-0.2138 0.03187,-0.064 -0.05039,-0.1634 0,-0.2138 0.05039,-0.05 0.150049,0.032 0.213788,0 0.09014,-0.045 0.129934,-0.1578 0.213789,-0.2137 0.132586,-0.088 0.294991,-0.1254 0.427577,-0.2138 0.08385,-0.056 0.142525,-0.1426 0.213788,-0.2138 0.07126,-0.071 0.157886,-0.1299 0.213789,-0.2138 0.08839,-0.1326 0.101112,-0.3149 0.213788,-0.4276 0.05039,-0.05 0.163398,0.05 0.213789,0 0.05039,-0.05 -0.03187,-0.15 0,-0.2138 0.03823,-0.076 0.766247,-0.7959 0.855154,-0.8551 0.345742,-0.2305 0.712628,-0.4276 1.068943,-0.6414 z"
         style="fill:none;fill-rule:evenodd;stroke:#109e00;stroke-width:0.5;stroke-linecap:butt;stroke-linejoin:miter;stroke-miterlimit:4;stroke-dasharray:1.5, 1.50000000000000000;stroke-dashoffset:0;stroke-opacity:1" />
      <path
         inkscape:connector-curvature="0"
         id="path4175"
         d="m 5.7722904,1002.3357 c 0.7838912,0 1.5677825,0 2.3516738,0 0.2137885,0 0.4275771,0 0.6413656,0 0.1425257,0 0.2923653,0.045 0.4275771,0 0.1912182,-0.064 0.2472947,-0.3374 0.427577,-0.4275 0.1103795,-0.055 0.3171976,0.055 0.4275771,0 0.09014,-0.045 0.129934,-0.1579 0.213789,-0.2138 0.132586,-0.088 0.276405,-0.1634 0.427577,-0.2138 0.135211,-0.045 0.326796,0.1008 0.427577,0 0.112676,-0.1127 0.125398,-0.295 0.213788,-0.4276 0.354524,-0.5318 0.04913,-0.024 0.427577,-0.2138 0.09014,-0.045 0.123648,-0.1687 0.213789,-0.2138 0.06374,-0.032 0.150049,0.032 0.213788,0 0.09014,-0.045 0.123648,-0.1687 0.213789,-0.2137 0.06374,-0.032 0.142526,0 0.213788,0 0.142526,0 0.292366,0.045 0.427577,0 0.09561,-0.032 0.123648,-0.1688 0.213789,-0.2138 0.127479,-0.064 0.326796,0.1007 0.427577,0 0.442336,-0.44237 -0.675948,0.017 0.213789,-0.42761 0.17103,-0.0855 0.470334,0.0855 0.641365,0 0.09014,-0.0451 0.123648,-0.16872 0.213789,-0.21379 0.08476,-0.0424 0.597659,0.0437 0.641365,0 0.05039,-0.0504 -0.05039,-0.1634 0,-0.21379 0.07504,-0.075 0.921272,0.0738 1.068943,0 0.09014,-0.0451 0.118179,-0.18192 0.213788,-0.21379 0.118229,-0.0394 1.067435,0 1.282732,0 0.926417,0 1.852834,0 2.779251,0 0.712628,0 1.425256,0 2.137885,0 0.07126,0 0.142526,0 0.213788,0 0.07126,0 0.163399,-0.0504 0.213789,0 0.05039,0.0504 -0.05039,0.1634 0,0.21379 0.05039,0.0504 0.154494,-0.0395 0.213789,0 0.167709,0.11181 0.259867,0.31577 0.427577,0.42758 0.118588,0.0791 0.326796,-0.10078 0.427577,0 0.05039,0.0504 -0.05039,0.16339 0,0.21378 0.05039,0.0504 0.150049,-0.0319 0.213788,0 0.09014,0.045 0.142526,0.14253 0.213789,0.21383 0.285051,0.285 0.570102,0.5701 0.855154,0.8551 0.07126,0.071 0.142526,0.1425 0.213788,0.2138 0.07126,0.071 0.123648,0.1687 0.213789,0.2138 0.06374,0.032 0.150049,-0.032 0.213788,0 0.06468,0.032 0.822813,0.7905 0.855155,0.8551 0,0.5702 -0.07126,-0.071 0.213788,0.2138 0.05039,0.05 -0.05039,0.1634 0,0.2138 0.05039,0.05 0.150049,-0.032 0.213789,0 0.09014,0.045 0.123647,0.1687 0.213788,0.2138 0.06374,0.032 0.163398,-0.05 0.213789,0 0.442336,0.4424 -0.675948,-0.017 0.213788,0.4276 0.06374,0.032 0.163398,-0.05 0.213789,0 0.05039,0.05 -0.03187,0.15 0,0.2138 0.09014,0.1803 0.31577,0.2598 0.427577,0.4276 0.08839,0.1325 0.125398,0.2949 0.213788,0.4275 0.0559,0.084 0.142526,0.1426 0.213789,0.2138 0.07126,0.071 0.123647,0.1687 0.213788,0.2138 0.06374,0.032 0.163398,-0.05 0.213789,0 0.05039,0.05 -0.03187,0.1501 0,0.2138 0.04507,0.09 0.168718,0.1236 0.213788,0.2138 0.03187,0.064 -0.05039,0.1634 0,0.2138 0.05039,0.05 0.163399,-0.05 0.213789,0 0.442336,0.4423 -0.675948,-0.017 0.213789,0.4276 0.127478,0.064 0.326796,-0.1008 0.427577,0 0.05039,0.05 -0.05039,0.1634 0,0.2137 0.10078,0.1008 0.300098,-0.064 0.427577,0 0.889736,0.4449 -0.228548,-0.015 0.213788,0.4276 0.112677,0.1127 0.294991,0.1254 0.427577,0.2138 0.423528,-0.021 0.101112,0.3149 0.213789,0.4276 0.05039,0.05 0.150049,-0.032 0.213788,0 0.09014,0.045 0.142526,0.1425 0.213789,0.2138 0.142526,0.1425 0.259867,0.3157 0.427577,0.4276 0.05929,0.039 0.150049,-0.032 0.213788,0 0.09014,0.045 0.142526,0.1425 0.213789,0.2137 0.142526,0 0.292365,-0.045 0.427577,0 0.02656,0.01 0.623027,0.6047 0.641366,0.6414 0.03187,0.064 -0.03953,0.1545 0,0.2138 0.826377,1.2396 0.102833,0.1583 0.641365,0.4276 0.245091,0.1225 0.297382,0.446 0.427577,0.6413 0.0559,0.084 0.168718,0.1237 0.213789,0.2138 0.03187,0.064 -0.03187,0.1501 0,0.2138 0.04507,0.09 0.168718,0.1237 0.213788,0.2138 0.02396,0.048 0,0.8043 0,0.8552 0,0.4275 0,0.8551 0,1.2827 0,1.7816 0,3.5631 0,5.3447 0,1.4965 0,2.993 0,4.4896 0,0.078 0.0086,0.8465 0,0.8551 -0.112676,0.1127 -0.294991,0.1254 -0.427577,0.2138 -0.09062,0.06 -0.597138,0.5529 -0.641365,0.6414 -0.03187,0.064 0.03187,0.15 0,0.2138 -0.04507,0.09 -0.168718,0.1236 -0.213789,0.2137 -0.03187,0.064 0.03187,0.1501 0,0.2138 -0.04507,0.09 -0.142526,0.1426 -0.213788,0.2138 -0.07126,0.071 -0.123648,0.1687 -0.213789,0.2138 -0.06374,0.032 -0.163398,-0.05 -0.213788,0 -0.05039,0.05 0,0.1425 0,0.2138 0,0.1425 0,0.2851 0,0.4276 0,0.059 0,0.5049 0,0.6413 0,0.071 0.05039,0.1634 0,0.2138 -0.05039,0.05 -0.163399,-0.05 -0.213789,0 -0.100781,0.1008 0.06374,0.3001 0,0.4276 -0.04507,0.09 -0.168718,0.1237 -0.213788,0.2138 -0.03187,0.064 0.05039,0.1634 0,0.2138 -0.05039,0.05 -0.169271,-0.056 -0.213789,0 -0.25958,0.3245 -0.410871,0.7232 -0.641366,1.0689 -0.0559,0.084 -0.168718,0.1237 -0.213788,0.2138 -0.03187,0.064 0.05039,0.1634 0,0.2138 -0.285052,0.2851 -0.205143,-0.4535 -0.427577,0.2138 -0.04507,0.1352 0.04507,0.2924 0,0.4276 -0.03187,0.096 -0.168718,0.1236 -0.213789,0.2138 -0.03187,0.064 0.03187,0.15 0,0.2138 -0.128273,0.2565 -0.513092,0.3848 -0.641365,0.6413 -0.06374,0.1275 0.100781,0.3268 0,0.4276 -0.05039,0.05 -0.150049,-0.032 -0.213789,0 -0.09014,0.045 -0.142526,0.1425 -0.213788,0.2138 -0.07126,0.071 -0.181919,0.1182 -0.213789,0.2138 -0.04848,0.1454 0.05668,0.9556 0,1.0689 -0.04507,0.09 -0.168718,0.1237 -0.213788,0.2138 -0.06307,0.1261 0.04902,0.4943 0,0.6414 -0.05039,0.1511 -0.175141,0.273 -0.213789,0.4275 -0.0018,0.01 0.0011,0.6403 0,0.6414 -0.05039,0.05 -0.163398,-0.05 -0.213789,0 -0.05144,0.051 0.05145,0.8037 0,0.8552 -0.05039,0.05 -0.181918,-0.064 -0.213788,0 -0.06374,0.1274 0.06374,0.3001 0,0.4275 -0.03187,0.064 -0.163398,-0.05 -0.213789,0 -0.10078,0.1008 0.04507,0.2924 0,0.4276 -0.05039,0.1512 -0.163398,0.2764 -0.213788,0.4276 -0.02773,0.083 0.03318,0.6082 0,0.6414 -0.05039,0.05 -0.142526,0 -0.213789,0 -0.07126,0.1425 -0.163398,0.2764 -0.213788,0.4275 -0.02254,0.068 0.05039,0.1634 0,0.2138 -0.142526,0.071 -0.285052,0.1426 -0.427577,0.2138 0,0.071 0.05039,0.1634 0,0.2138 -0.05039,0.05 -0.150049,-0.032 -0.213789,0 -0.09014,0.045 -0.142525,0.1425 -0.213788,0.2138 -0.07126,0.071 -0.157886,0.1299 -0.213789,0.2138 -0.08839,0.1326 -0.125398,0.295 -0.213788,0.4276 -0.16771,0.2515 -0.45996,0.3994 -0.641366,0.6413 -0.09561,0.1275 -0.101112,0.3149 -0.213789,0.4276 -0.112676,0.1127 -0.300098,0.1182 -0.427577,0.2138 -0.09156,0.069 -0.725534,0.7903 -0.855154,0.8551 -0.06374,0.032 -0.143909,-0.014 -0.213788,0 -0.288119,0.058 -0.567036,0.1562 -0.855154,0.2138 -0.139758,0.028 -0.285052,0 -0.427577,0 -0.285052,0 -0.570103,0 -0.855155,0 -0.213788,0 -0.438548,-0.068 -0.641365,0 -0.09561,0.032 -0.142526,0.1426 -0.213789,0.2138 -0.213788,0.071 -0.422741,0.1592 -0.641365,0.2138 -0.18583,0.046 -0.643764,0 -0.855154,0 -0.49884,0 -0.99768,0 -1.49652,0 -0.07126,0 -0.142526,0 -0.213789,0 -0.07126,0 -0.163398,-0.05 -0.213788,0 -0.05039,0.05 0.05039,0.1634 0,0.2138 -0.100781,0.1008 -0.300098,-0.064 -0.427577,0 -0.09014,0.045 -0.123648,0.1687 -0.213789,0.2138 -0.171031,0.085 -0.470335,-0.085 -0.641365,0 -0.293275,0.1466 -0.134303,0.2809 -0.427577,0.4276 -0.12614,0.063 -0.494315,-0.049 -0.641366,0 -0.151171,0.05 -0.276406,0.1634 -0.427577,0.2138 -0.135212,0.045 -0.300098,-0.064 -0.427577,0 -0.180282,0.09 -0.259868,0.3157 -0.427577,0.4275 -0.132586,0.088 -0.314901,0.1011 -0.427577,0.2138 -0.05039,0.05 0.03953,0.1545 0,0.2138 -0.10541,0.1581 -0.767221,0.6793 -0.855154,0.8552 -0.03963,0.079 0.03538,1.2827 0,1.2827 -0.07126,0 0,-0.2851 0,-0.2138 0,0.2138 0,0.4276 0,0.6414"
         style="fill:none;fill-rule:evenodd;stroke:#109e00;stroke-width:0.5;stroke-linecap:butt;stroke-linejoin:miter;stroke-miterlimit:4;stroke-dasharray:1.5, 1.50000000000000000;stroke-dashoffset:0;stroke-opacity:1" />
      <path
         inkscape:connector-curvature="0"
         id="path4177"
         d="m 66.91581,1018.7975 c -0.427577,-0.071 -0.855154,-0.1426 -1.282731,-0.2138 -0.213788,-0.071 -0.420389,-0.1696 -0.641365,-0.2138 -0.139758,-0.028 -0.308989,0.079 -0.427577,0 -0.132586,-0.088 -0.101112,-0.3149 -0.213789,-0.4276 -0.05039,-0.05 -0.150049,0.032 -0.213788,0 -0.180283,-0.09 -0.236359,-0.3638 -0.427577,-0.4276 -1.211469,0 -0.07126,0.1426 -0.427578,-0.2137 -0.05039,-0.051 -0.163398,0.05 -0.213788,0 -0.05039,-0.051 0.03187,-0.1501 0,-0.2138 -0.09014,-0.1803 -0.337436,-0.2473 -0.427577,-0.4276 -0.03187,-0.064 0.03953,-0.1545 0,-0.2138 -0.111807,-0.1677 -0.259868,-0.3158 -0.427577,-0.4276 -0.05929,-0.039 -0.174259,0.059 -0.213789,0 -0.298503,-0.4477 -0.213788,-0.998 -0.213788,-1.4965 0,-0.1425 0.04507,-0.2924 0,-0.4276 -0.03187,-0.096 -0.181919,-0.1182 -0.213789,-0.2138 -0.04465,-0.1339 0,-1.3337 0,-1.4965 0,-0.2138 0,-0.4276 0,-0.6414 0,-0.071 0,-0.1425 0,-0.2138 0,-0.071 -0.03187,-0.15 0,-0.2137 0.534834,-1.0697 -0.14092,1.7735 0.427577,-1.069 0.04276,-0.2138 -0.08552,-0.4276 0,-0.6413 0.09543,-0.2386 0.312669,-0.4116 0.427577,-0.6414 0.03187,-0.064 -0.03187,-0.1501 0,-0.2138 0.04507,-0.09 0.197221,-0.1144 0.213789,-0.2138 0.05858,-0.3515 -0.112677,-0.7309 0,-1.0689 0.05039,-0.1512 0.294991,-0.1254 0.427577,-0.2138 0.08385,-0.056 0.123647,-0.1687 0.213788,-0.2138 0.06374,-0.032 0.15005,0.032 0.213789,0 0.180282,-0.09 0.247295,-0.3374 0.427577,-0.4276 0.06374,-0.032 0.142526,0 0.213789,0 0.142525,-0.071 0.290936,-0.1318 0.427577,-0.2138 0.220325,-0.1322 0.397609,-0.3463 0.641365,-0.4275 0.202818,-0.068 0.427577,0 0.641366,0 0.285051,0 0.573981,0.047 0.855154,0 0.15718,-0.026 0.276406,-0.1634 0.427577,-0.2138 0.06761,-0.023 0.142526,0 0.213789,0 0.142525,0 0.285051,0 0.427577,0 0.285051,0 0.570102,0 0.855154,0 0.570102,0 1.140205,0 1.710308,0 0.213789,0 0.430486,-0.035 0.641366,0 0.222286,0.037 0.422741,0.1591 0.641365,0.2138 0.06914,0.017 0.146183,-0.023 0.213789,0 0.151171,0.05 0.272986,0.1751 0.427577,0.2137 0.13827,0.035 0.292365,-0.045 0.427577,0 0.328402,0.1095 0.165654,0.4668 0.427577,0.6414 0.118588,0.079 0.292365,-0.045 0.427577,0 0.01337,0 0.386044,0.3944 0.427577,0.4276 0.278235,0.2226 0.576919,0.4188 0.855154,0.6414 0.0787,0.063 0.129934,0.1578 0.213789,0.2137 0.132586,0.088 0.356314,0.071 0.427577,0.2138 0.09561,0.1912 -0.03515,0.4305 0,0.6414 0.03705,0.2223 0.113007,0.4398 0.213788,0.6414 0.185831,0.3716 0.455535,0.6972 0.641366,1.0689 0.03187,0.064 -0.02647,0.1476 0,0.2138 0.118361,0.2959 0.326796,0.5528 0.427577,0.8551 0.04507,0.1353 0,0.2851 0,0.4276 0,0.2138 -0.05185,0.434 0,0.6414 0.02444,0.098 0.181919,0.1182 0.213788,0.2138 0.03262,0.098 0,0.9496 0,1.0689 0,0.2138 0,0.4276 0,0.6414 0,0.1425 0.02795,0.2878 0,0.4276 -0.05762,0.2881 -0.142525,0.5701 -0.213788,0.8551 -0.07126,0.2851 -0.08239,0.5924 -0.213789,0.8552 -0.03187,0.064 -0.174259,-0.059 -0.213788,0 -0.125003,0.1875 -0.09785,0.4481 -0.213789,0.6413 -0.103702,0.1729 -0.31577,0.2599 -0.427577,0.4276 -0.03953,0.059 0.05039,0.1634 0,0.2138 -0.100781,0.1008 -0.326796,-0.1008 -0.427577,0 -0.112676,0.1127 -0.101112,0.3149 -0.213788,0.4276 -0.0077,0.01 -0.818131,0.4053 -0.855154,0.4276 -0.304931,0.1829 -0.702425,0.5191 -1.068943,0.6413 -0.278746,0.093 -0.582345,0.1047 -0.855154,0.2138 -1.086602,0.4347 1.078235,0 -0.641366,0.4276 -0.13827,0.035 -0.287819,-0.028 -0.427577,0 -0.220977,0.044 -0.420389,0.1696 -0.641365,0.2138 -0.240801,0.048 -0.597875,0 -0.855155,0 -0.356314,0 -0.712628,0 -1.068942,0 -0.07126,0 -0.163398,0.05 -0.213789,0 -0.05039,-0.05 0.05039,-0.1634 0,-0.2138 -0.100781,-0.1008 -0.300098,0.064 -0.427577,0 -0.254542,-0.1273 -0.298332,-0.4276 -0.213788,-0.4276 0.07126,0 0,0.2851 0,0.2138 0,-0.8307 0.10078,-0.3268 -0.855155,-1.2827 z"
         style="fill:none;fill-rule:evenodd;stroke:#109e00;stroke-width:0.5;stroke-linecap:butt;stroke-linejoin:miter;stroke-miterlimit:4;stroke-dasharray:1.5, 1.50000000000000000;stroke-dashoffset:0;stroke-opacity:1" />
      <path
         inkscape:connector-curvature="0"
         id="path4179"
         d="m 65.846868,1026.4939 c -1.586121,-0.3966 -0.152861,0.079 -1.710308,-0.8552 -0.06111,-0.037 -0.142526,0 -0.213789,0 -0.142526,0 -0.295245,0.053 -0.427577,0 -0.213789,-0.1425 -0.427577,-0.285 -0.641366,-0.4276 0,-0.071 0.05039,-0.1634 0,-0.2138 -0.393995,-0.394 -0.647188,-0.3883 -1.068942,-0.6413 -0.220326,-0.1322 -0.402801,-0.3322 -0.641366,-0.4276 -0.132332,-0.053 -0.300098,0.064 -0.427577,0 -0.180282,-0.09 -0.285051,-0.2851 -0.427577,-0.4276 -0.07126,-0.071 -0.157885,-0.1299 -0.213789,-0.2138 -0.08839,-0.1326 -0.0812,-0.3392 -0.213788,-0.4275 -0.118589,-0.079 -0.292365,0.045 -0.427577,0 -0.09561,-0.032 -0.129934,-0.1579 -0.213789,-0.2138 -0.132586,-0.088 -0.3149,-0.1011 -0.427577,-0.2138 -0.656203,-0.6562 0.124909,-0.1778 -0.213788,-0.8552 -0.03187,-0.064 -0.163398,0.05 -0.213789,0 -0.05039,-0.05 0.03187,-0.15 0,-0.2138 -0.04507,-0.09 -0.189345,-0.116 -0.213788,-0.2138 -0.05185,-0.2074 0.05185,-0.4339 0,-0.6413 -0.04889,-0.1956 -0.378691,-0.2321 -0.427577,-0.4276 -0.05185,-0.2074 0.04193,-0.4317 0,-0.6414 -0.03125,-0.1562 -0.142526,-0.285 -0.213789,-0.4275 -0.07126,-0.1426 -0.125398,-0.295 -0.213788,-0.4276 -0.0559,-0.084 -0.168718,-0.1237 -0.213789,-0.2138 -0.100781,-0.2016 -0.130095,-0.4321 -0.213789,-0.6414 -0.07126,-0.1425 -0.142525,-0.285 -0.213788,-0.4275 -0.07126,-0.071 -0.168718,-0.1237 -0.213789,-0.2138 -0.03187,-0.064 0.01728,-0.1447 0,-0.2138 -0.05466,-0.2187 -0.169593,-0.4204 -0.213788,-0.6414 -0.04243,-0.2121 0,-0.8443 0,-1.0689 0,-0.9977 0,-1.9954 0,-2.9931 0,-0.6414 0,-1.2827 0,-1.9241 0,-0.1565 -0.04247,-1.0704 0,-1.2827 0.04419,-0.221 0.169593,-0.4204 0.213788,-0.6414 0.04193,-0.2096 -0.06761,-0.4385 0,-0.6413 0.05039,-0.1512 0.142526,-0.2851 0.213789,-0.4276 0.07126,-0.1425 0.101112,-0.3149 0.213788,-0.4276 0.05039,-0.05 0.177125,0.061 0.213789,0 0.197444,-0.3291 0.214704,-0.7496 0.427577,-1.0689 0.01548,-0.023 0.769987,-0.3708 0.855154,-0.4276 0.184478,-0.123 0.474379,-0.4744 0.641366,-0.6414 0.490182,-0.4902 -0.09014,0.1352 0.427577,-0.6413 0.111806,-0.1678 0.315771,-0.2599 0.427577,-0.4276 0.08839,-0.1326 0.101112,-0.3149 0.213788,-0.4276 0.112677,-0.1127 0.314901,-0.1011 0.427578,-0.2138 0.112676,-0.1127 0.101112,-0.3149 0.213788,-0.4276 0.05039,-0.05 0.142526,0 0.213789,0 0.213788,0 0.43396,0.052 0.641365,0 0.24606,-0.061 0.29585,-0.5425 0.427577,-0.6413 0.180283,-0.1352 0.448127,-0.098 0.641366,-0.2138 0.172838,-0.1037 0.259867,-0.3158 0.427577,-0.4276 0.05929,-0.039 0.146183,0.023 0.213788,0 0.151172,-0.05 0.285052,-0.1425 0.427578,-0.2138 0.142525,-0.071 0.300098,-0.1182 0.427577,-0.2138 0.161249,-0.1209 0.259867,-0.3157 0.427577,-0.4275 0.05929,-0.04 0.150049,0.032 0.213788,0 0.09014,-0.045 0.142526,-0.1426 0.213789,-0.2138 0.142525,0 0.289307,0.034 0.427577,0 0.154591,-0.039 0.271323,-0.1826 0.427577,-0.21383 1.630915,0 -0.168648,0.0956 1.068942,-0.21378 0.207406,-0.0519 0.427578,0 0.641366,0 0.570103,0 1.140206,0 1.710308,0 0.712629,0 1.425257,0 2.137886,0 0.213788,0 0.450147,-0.0956 0.641365,0 0.180283,0.0901 0.247295,0.33741 0.427577,0.42761 0.262805,0.1314 0.582345,0.1046 0.855154,0.2138 0.09357,0.037 0.123648,0.1687 0.213789,0.2137 0.201562,0.1008 0.439804,0.113 0.641366,0.2138 0.270423,0.1352 0.370942,0.5062 0.641365,0.6414 0.127479,0.064 0.308989,-0.079 0.427577,0 0.132586,0.088 0.0812,0.3392 0.213789,0.4276 0.118588,0.079 0.308988,-0.079 0.427577,0 0.132586,0.088 0.06262,0.3772 0.213788,0.4275 0.33803,0.1127 0.712629,0 1.068943,0 0.142526,0 0.308989,-0.079 0.427577,0 0.132586,0.088 0.131804,0.291 0.213789,0.4276 0.132195,0.2204 0.267066,0.4408 0.427577,0.6414 0.142525,0.1425 0.285051,0.285 0.427577,0.4276 0.07126,0 0.154494,-0.04 0.213788,0 0.634691,0.4231 0.283356,0.4971 0.855154,1.0689 0.05039,0.05 0.163398,-0.05 0.213789,0 0.112676,0.1127 0.125398,0.295 0.213788,0.4276 0.0559,0.084 0.181919,0.1182 0.213789,0.2138 0.04507,0.1352 -0.03457,0.2893 0,0.4276 0.258093,1.0323 0.101596,-0.011 0.427577,0.6413 0.06944,0.1389 -0.06781,0.9334 0,1.069 0.04507,0.09 0.168718,0.1236 0.213789,0.2138 0.03187,0.064 0,0.1425 0,0.2137 0,0.1426 -0.04507,0.2924 0,0.4276 0.03187,0.096 0.168718,0.1237 0.213788,0.2138 0.05652,0.113 -0.02604,0.751 0,0.8552 0.03865,0.1545 0.175141,0.2729 0.213789,0.4275 0.03457,0.1383 0,0.2851 0,0.4276 0,0.4276 0,0.8552 0,1.2827 0,0.9977 0,1.9954 0,2.9931 0,0.5701 0,1.1402 0,1.7103 0,0.071 0,0.1425 0,0.2138 0,0.071 0.03187,0.15 0,0.2138 -0.04507,0.09 -0.157886,0.1299 -0.213789,0.2138 -0.07126,0.1425 -0.142526,0.285 -0.213788,0.4275 0,0.071 0.03187,0.1501 0,0.2138 -0.09014,0.1803 -0.315771,0.2599 -0.427577,0.4276 -0.08839,0.1326 -0.175141,0.273 -0.213789,0.4276 -0.03457,0.1382 0.07906,0.309 0,0.4276 -0.08839,0.1325 -0.300098,0.1181 -0.427577,0.2137 -0.161249,0.121 -0.285051,0.2851 -0.427577,0.4276 -0.142526,0.1425 -0.30664,0.2663 -0.427577,0.4276 -0.09561,0.1275 -0.125398,0.295 -0.213789,0.4276 -0.129743,0.1946 -0.546621,0.4518 -0.641365,0.6413 -0.03187,0.064 0.05039,0.1634 0,0.2138 -0.112677,0.1127 -0.314901,0.1011 -0.427577,0.2138 -0.05039,0.05 0.05039,0.1634 0,0.2138 -0.05039,0.05 -0.146183,-0.022 -0.213789,0 -0.151171,0.05 -0.314901,0.1011 -0.427577,0.2138 -0.05039,0.05 0.05039,0.1634 0,0.2138 -0.05039,0.05 -0.163398,-0.05 -0.213789,0 -0.05039,0.05 0.05039,0.1634 0,0.2138 -0.112676,0.1127 -0.294991,0.1254 -0.427577,0.2138 -0.08385,0.056 -0.123647,0.1687 -0.213788,0.2138 -0.06374,0.032 -0.142526,0 -0.213789,0 -0.142525,0.071 -0.294991,0.1253 -0.427577,0.2137 -0.08385,0.056 -0.123647,0.1688 -0.213788,0.2138 -0.06374,0.032 -0.142526,0 -0.213789,0 -0.213788,0.071 -0.448127,0.098 -0.641365,0.2138 -0.172838,0.1037 -0.259868,0.3158 -0.427577,0.4276 -0.118589,0.079 -0.300099,-0.064 -0.427578,0 -0.180282,0.09 -0.236358,0.3638 -0.427577,0.4276 -0.135211,0.045 -0.285051,0 -0.427577,0 -0.07126,0 -0.150049,-0.032 -0.213788,0 -0.09014,0.045 -0.142526,0.1425 -0.213789,0.2138 -0.142525,0 -0.292365,-0.045 -0.427577,0 -0.09561,0.032 -0.123647,0.1687 -0.213788,0.2137 -0.213789,0.1069 -0.427577,-0.2137 -0.641366,0 -0.100781,0.1008 0.06374,0.3001 0,0.4276 -0.04437,0.089 -0.566741,-0.075 -0.641365,0 -0.05039,0.05 0.05039,0.1634 0,0.2138 -0.07623,0.5252 -0.453861,0.089 -0.641366,0.2138 -0.16771,0.1118 -0.259868,0.3158 -0.427577,0.4276 -0.07855,0.052 -0.603489,-0.076 -0.641366,0 -0.06374,0.1275 0.06374,0.3001 0,0.4276 -0.01765,0.035 -0.584486,0 -0.641365,0 -0.783892,0 -1.567783,0 -2.351674,0 z"
         style="fill:none;fill-rule:evenodd;stroke:#109e00;stroke-width:0.5;stroke-linecap:butt;stroke-linejoin:miter;stroke-miterlimit:4;stroke-dasharray:1.5, 1.50000000000000000;stroke-dashoffset:0;stroke-opacity:1" />
      <path
         inkscape:connector-curvature="0"
         id="path4181"
         d="m 66.060656,1030.5558 c -0.741451,-0.3623 -1.580848,-0.3844 -2.351673,-0.6413 -0.151172,-0.05 -0.276406,-0.1634 -0.427578,-0.2138 -0.135211,-0.045 -0.289306,0.035 -0.427577,0 -1.779473,-0.4449 0.258066,0.015 -1.068942,-0.4276 -0.278746,-0.093 -0.582345,-0.1047 -0.855154,-0.2138 -0.09357,-0.037 -0.123648,-0.1687 -0.213789,-0.2138 -0.201562,-0.1007 -0.434234,-0.125 -0.641366,-0.2138 -0.439393,-0.1883 -0.855154,-0.4275 -1.282731,-0.6413 -0.427577,-0.2138 -0.87281,-0.3954 -1.282731,-0.6414 -0.213788,-0.1425 -0.427577,-0.285 -0.641366,-0.4276 -0.07126,-0.071 -0.129933,-0.1579 -0.213788,-0.2138 -0.132586,-0.088 -0.294991,-0.1254 -0.427577,-0.2137 -0.402381,-0.2683 -0.140275,-0.4543 -0.641366,-0.8552 -0.175971,-0.1408 -0.448127,-0.098 -0.641365,-0.2138 -0.114841,-0.069 -1.274039,-1.2719 -1.282731,-1.2827 -0.09954,-0.1244 -0.101113,-0.3149 -0.213789,-0.4276 -0.112676,-0.1127 -0.285051,-0.1425 -0.427577,-0.2138 -0.213789,-0.285 -0.389413,-0.6032 -0.641366,-0.8551 -0.112676,-0.1127 -0.3149,-0.1012 -0.427577,-0.2138 -0.112676,-0.1127 -0.131804,-0.291 -0.213788,-0.4276 -0.132196,-0.2203 -0.295382,-0.421 -0.427577,-0.6414 -0.163969,-0.2733 -0.285052,-0.5701 -0.427577,-0.8551 -0.07126,-0.1426 -0.175141,-0.273 -0.213789,-0.4276 -0.03457,-0.1383 0.03457,-0.2893 0,-0.4276 -0.03865,-0.1546 -0.182538,-0.2713 -0.213788,-0.4276 0,-1.6309 0.09561,0.1687 -0.213789,-1.0689 -0.03457,-0.1383 0.05293,-0.2952 0,-0.4276 -0.09543,-0.2385 -0.285051,-0.4276 -0.427577,-0.6413 -0.142526,-0.2851 -0.315675,-0.5568 -0.427577,-0.8552 -0.493856,-0.3655 -0.0947,-0.8659 -0.213789,-1.2827 -0.105427,-0.369 -0.334501,-0.6967 -0.427577,-1.069 -0.05185,-0.2074 0.05185,-0.4339 0,-0.6413 -0.02444,-0.098 -0.142525,-0.1426 -0.213788,-0.2138 -0.07126,-0.2851 -0.156165,-0.5671 -0.213789,-0.8552 -0.01398,-0.07 0,-0.1425 0,-0.2138 0,-0.285 0,-0.5701 0,-0.8551 0,-0.3563 0,-0.7127 0,-1.069 0,-0.1425 0.03457,-0.2893 0,-0.4275 -0.03865,-0.1546 -0.163398,-0.2764 -0.213788,-0.4276 -0.02254,-0.068 0,-0.1425 0,-0.2138 0,-0.2138 0,-0.4276 0,-0.6414 0,-0.7126 0,-1.4252 0,-2.1379 0,-0.8551 0,-1.7103 0,-2.5654 0,-0.325 0,-0.7594 0,-1.069 0,-0.1425 -0.02795,-0.2878 0,-0.4275 0.04419,-0.221 0.142525,-0.4276 0.213788,-0.6414 0.07126,-0.2138 0.113008,-0.4398 0.213789,-0.6414 0.09014,-0.1803 0.337436,-0.2473 0.427577,-0.4275 0.08349,-0.167 0.240774,-0.88219 0.427577,-1.06899 0.112676,-0.11268 0.3149,-0.10111 0.427577,-0.21379 0.112676,-0.11268 0.118179,-0.3001 0.213788,-0.42758 0.120938,-0.16125 0.337436,-0.24729 0.427578,-0.42757 0.06374,-0.12748 -0.06374,-0.3001 0,-0.42758 0.09014,-0.18028 0.30664,-0.26633 0.427577,-0.42758 0.09561,-0.12748 0.101112,-0.3149 0.213788,-0.42758 0.181685,-0.18168 0.45968,-0.24589 0.641366,-0.42757 0.05039,-0.0504 -0.0593,-0.17426 0,-0.21379 0.187505,-0.125 0.448127,-0.0978 0.641365,-0.21379 0.172838,-0.1037 0.266328,-0.30664 0.427577,-0.42758 0.127479,-0.0956 0.314901,-0.10111 0.427577,-0.21379 0.112677,-0.11267 0.0812,-0.33918 0.213789,-0.42757 0.118589,-0.0791 0.292365,0.0451 0.427577,0 0.191218,-0.0637 0.232033,-0.37869 0.427577,-0.42758 0.207405,-0.0519 0.458044,0.10999 0.641366,0 0.220326,-0.1322 0.207251,-0.50917 0.427577,-0.64137 0.183322,-0.10999 0.43396,0.0519 0.641365,0 0.09777,-0.0244 0.129934,-0.15788 0.213789,-0.21378 0.132586,-0.0884 0.272986,-0.17514 0.427577,-0.21379 0.212835,-0.0532 1.149925,0.0664 1.282731,0 0.06374,-0.0319 0,-0.14253 0,-0.21379 0.142526,-0.0713 0.271323,-0.18254 0.427577,-0.21379 0.209637,-0.0419 0.429228,0.0265 0.641366,0 0.360564,-0.0451 0.708378,-0.16872 1.068942,-0.21379 0.282851,-0.0354 0.570103,0 0.855155,0 0.641365,0 1.282731,0 1.924096,0 1.282732,0 2.565463,0 3.848194,0 0.49884,0 0.99768,0 1.49652,0 0.142525,0 0.292365,-0.0451 0.427577,0 0.697869,0.23263 0.179206,0.27929 1.068942,0.42758 0.21088,0.0352 0.442868,-0.0794 0.641366,0 0.187145,0.0749 0.266328,0.30664 0.427577,0.42758 0.286498,0.21487 0.760973,0.30439 1.068943,0.42757 0.799974,0.31999 0.06508,0.13944 1.068942,0.64137 0.13561,0.0678 0.930061,-0.0694 1.068943,0 0.09014,0.0451 0.142526,0.14252 0.213789,0.21379 0.142525,0.14252 0.259867,0.31577 0.427577,0.42757 0.05929,0.0395 0.150049,-0.0319 0.213788,0 0.487889,0.24395 0.588958,0.48138 1.068943,0.64137 0.06761,0.0225 0.147622,-0.0265 0.213788,0 0.731905,-0.32839 0.697281,0.45553 1.068943,0.64137 0.06374,0.0319 0.14391,-0.014 0.213789,0 0.288118,0.0576 0.576408,0.12087 0.855154,0.21378 0.151171,0.0504 0.276405,0.1634 0.427577,0.21379 0.135211,0.0451 0.289307,-0.0346 0.427577,0 0.218624,0.0547 0.420389,0.1696 0.641365,0.21379 0.279516,0.0559 0.570103,0 0.855155,0 0.07126,0 0.146182,-0.0225 0.213788,0 0.151171,0.0504 0.271323,0.18254 0.427577,0.21379 0.209637,0.0419 0.427577,0 0.641366,0 0.641365,0 1.282731,0 1.924096,0 0.570103,0 1.140206,0 1.710309,0 0.140482,0 0.520746,-0.0402 0.641365,0 0.855154,0.28505 0.07126,0.0713 0.641366,0.64137 0.05039,0.0504 0.154494,-0.0395 0.213788,0 0.16771,0.1118 0.25474,0.32387 0.427578,0.42757 0.193238,0.11595 0.482017,0.0544 0.641365,0.21379 0.225353,0.22535 0.228489,0.60629 0.427577,0.85516 0.09954,0.12443 0.314901,0.10111 0.427577,0.21378 0.112677,0.11273 0.101112,0.31493 0.213789,0.42763 0.112676,0.1126 0.331968,0.086 0.427577,0.2137 0.135212,0.1803 0.09435,0.4503 0.213788,0.6414 0.241841,0.387 0.602042,0.6893 0.855155,1.0689 0.03953,0.059 -0.02254,0.1462 0,0.2138 0.05039,0.1512 0.163398,0.2764 0.213788,0.4276 0.04507,0.1352 -0.03457,0.2893 0,0.4276 0.05466,0.2186 0.169593,0.4204 0.213789,0.6414 0.04193,0.2096 0,0.4275 0,0.6413 0,0.4276 0,0.8552 0,1.2828 0,0.3563 0,0.7126 0,1.0689 0,0.1425 0.03457,0.2893 0,0.4276 -0.23635,0.9454 -0.132687,0.3317 -0.427577,1.0689 -0.08369,0.2092 -0.113008,0.4398 -0.213789,0.6414 -0.04507,0.09 -0.181919,0.1182 -0.213789,0.2138 -0.04507,0.1352 0.04507,0.2923 0,0.4275 -0.03187,0.096 -0.142525,0.1426 -0.213788,0.2138 -0.213789,0.2138 -0.518573,0.3651 -0.641366,0.6414 -0.176051,0.3961 -0.108655,0.8622 -0.213788,1.2827 -0.151675,0.6067 -0.918733,1.0415 -1.282731,1.4965 -0.199089,0.2489 -0.250796,0.59 -0.427577,0.8552 -0.0559,0.084 -0.157886,0.1299 -0.213789,0.2138 -0.08839,0.1326 -0.125398,0.295 -0.213789,0.4276 -0.0559,0.084 -0.142525,0.1425 -0.213788,0.2138 -0.07126,0.1425 -0.125398,0.2949 -0.213789,0.4275 -0.0559,0.084 -0.168718,0.1237 -0.213788,0.2138 -0.03187,0.064 0.05039,0.1634 0,0.2138 -0.05039,0.05 -0.163398,-0.05 -0.213789,0 -0.0011,10e-4 0.0018,0.6342 0,0.6414 -0.03865,0.1546 -0.17514,0.273 -0.213788,0.4276 -0.03457,0.1382 0,0.285 0,0.4275 0,0.2851 0,0.5701 0,0.8552 0,1.2827 0,2.5654 0,3.8482 0,0.3563 0,0.7126 0,1.0689 0,0.2138 0.06761,0.4386 0,0.6414 -0.03187,0.096 -0.181919,0.1182 -0.213789,0.2138 -0.07572,0.2272 0.07572,0.628 0,0.8551 -0.07126,0.1426 -0.142525,0.2851 -0.213788,0.4276 -0.07126,0 -0.181919,-0.064 -0.213789,0 -0.06374,0.1275 0.05293,0.2953 0,0.4276 -0.09543,0.2386 -0.295381,0.421 -0.427577,0.6414 -0.08198,0.1366 -0.163398,0.2764 -0.213788,0.4275 -0.02254,0.068 0.03953,0.1545 0,0.2138 -0.111807,0.1677 -0.352719,0.2405 -0.427577,0.4276 -0.0794,0.1985 0.109993,0.458 0,0.6414 -0.132196,0.2203 -0.459681,0.2459 -0.641366,0.4275 -0.05039,0.05 0.02253,0.1462 0,0.2138 -0.12943,0.3883 -0.182971,0.3968 -0.427577,0.6414 -0.07126,0.071 -0.123647,0.1687 -0.213789,0.2138 -0.29489,0.1474 -0.191228,-0.2589 -0.427577,0.2138 -0.100781,0.2015 -0.07858,0.4611 -0.213788,0.6413 -0.09561,0.1275 -0.314901,0.1012 -0.427577,0.2138 -0.05039,0.05 0.05039,0.1634 0,0.2138 -0.112677,0.1127 -0.290937,0.1318 -0.427577,0.2138 -0.220326,0.1322 -0.435812,0.2734 -0.641366,0.4276 -0.461228,0.3459 0.03771,0.2842 -0.855154,0.6413 -0.132332,0.053 -0.289307,-0.035 -0.427577,0 -0.415044,0.1038 -0.685767,0.4881 -1.068943,0.6414 -0.593857,0.2376 -0.356314,-0.3563 -1.068942,0 -0.142526,0.071 -0.0812,0.3392 -0.213789,0.4276 -0.03163,0.021 -0.741262,-0.019 -0.855154,0 -0.289827,0.048 -0.567036,0.1562 -0.855154,0.2138 -0.19241,0.038 -0.44468,0 -0.641366,0 -0.49884,0 -0.99768,0 -1.49652,0 -0.111794,0 -0.79894,0.028 -0.855154,0 -0.09014,-0.045 -0.118179,-0.1819 -0.213788,-0.2138 -0.320683,-0.1069 -0.74826,0.1069 -1.068943,0 -0.667302,-0.2224 0.07126,-0.1425 -0.213788,-0.4276 -0.05145,-0.052 -0.80371,0.051 -0.855155,0 -0.05039,-0.05 0.05039,-0.1634 0,-0.2138 -0.10078,-0.1008 -0.308988,0.079 -0.427577,0 -0.167709,-0.1118 -0.259867,-0.3157 -0.427577,-0.4276 -0.118588,-0.079 -0.300098,0.064 -0.427577,0 -0.09014,-0.045 -0.142525,-0.1425 -0.213788,-0.2137 0,-0.071 0.06374,-0.182 0,-0.2138 -0.171031,-0.086 -0.470335,0.085 -0.641366,0 -0.09014,-0.045 -0.123647,-0.1687 -0.213788,-0.2138 -0.09681,-0.048 -0.577805,0.053 -0.641366,0 -0.38711,-0.3226 -0.712628,-0.7126 -1.068943,-1.069 z"
         style="fill:none;fill-rule:evenodd;stroke:#109e00;stroke-width:0.5;stroke-linecap:butt;stroke-linejoin:miter;stroke-miterlimit:4;stroke-dasharray:1.5, 1.50000000000000000;stroke-dashoffset:0;stroke-opacity:1" />
      <path
         inkscape:connector-curvature="0"
         id="path4183"
         d="m 32.923434,972.61914 c -1.425257,0 -2.850514,0 -4.275771,0 -0.170594,0 -0.940681,0.0427 -1.068942,0 -0.151172,-0.0504 -0.276406,-0.1634 -0.427577,-0.21379 -0.06761,-0.0225 -0.15005,0.0319 -0.213789,0 -0.889737,-0.44486 0.228548,0.0148 -0.213789,-0.42757 -0.05039,-0.0504 -0.146182,0.0225 -0.213788,0 -0.151171,-0.0504 -0.294991,-0.1254 -0.427577,-0.21379 -0.16771,-0.11181 -0.247295,-0.33744 -0.427577,-0.42758 -0.06374,-0.0319 -0.163398,0.0504 -0.213789,0 -0.05039,-0.0504 0.05039,-0.1634 0,-0.21379 -0.112676,-0.11267 -0.294991,-0.12539 -0.427577,-0.21379 -0.326949,-0.21796 -0.167952,-0.29519 -0.427577,-0.64136 -0.120937,-0.16125 -0.315771,-0.25987 -0.427577,-0.42758 -0.03953,-0.0593 0.03187,-0.15005 0,-0.21379 -0.04507,-0.0901 -0.15332,-0.13316 -0.213788,-0.21379 -0.154166,-0.20555 -0.31267,-0.41155 -0.427577,-0.64136 -0.03187,-0.0637 0,-0.14253 0,-0.21379 0,-0.17503 0.04617,-0.93042 0,-1.06894 -0.05039,-0.15117 -0.163399,-0.27641 -0.213789,-0.42758 -0.04128,-0.12384 0,-0.66989 0,-0.85515 0,-0.78389 0,-1.56779 0,-2.35168 0,-0.14252 0,-0.28505 0,-0.42757 0,-0.0713 -0.05039,-0.1634 0,-0.21379 0.112676,-0.11268 0.314901,-0.10111 0.427577,-0.21379 0.260391,-0.26039 0.100143,-0.47765 0.427577,-0.64137 0.201562,-0.10078 0.453861,-0.0888 0.641366,-0.21379 0.05929,-0.0395 0,-0.14252 0,-0.21378 0.142525,-0.14253 0.247294,-0.33744 0.427577,-0.42758 0.191218,-0.0956 0.450147,0.0956 0.641365,0 0.09014,-0.0451 0.123648,-0.16872 0.213789,-0.21379 0.127479,-0.0637 0.287819,0.0279 0.427577,0 0.551666,0.22108 0.840778,-0.33919 1.282731,-0.42758 0.349395,-0.0699 0.712629,0 1.068943,0 0.712628,0 1.425257,0 2.137885,0 0.712629,0 1.425257,0 2.137885,0 0.61357,0 1.131726,-0.0755 1.710309,0.21379 0.09014,0.0451 0.129933,0.15789 0.213788,0.21379 0.132586,0.0884 0.290937,0.1318 0.427577,0.21379 0.220326,0.13219 0.41155,0.31267 0.641366,0.42758 0.06374,0.0319 0.163398,-0.0504 0.213788,0 0.442177,0.44217 0.262093,0.5707 0.641366,0.85515 0.205553,0.15417 0.42104,0.29538 0.641366,0.42758 0.13664,0.082 0.3149,0.10111 0.427577,0.21379 0.04371,0.0437 -0.04238,0.5566 0,0.64136 0.04507,0.0901 0.189345,0.11602 0.213788,0.21379 0.05185,0.20741 0,0.42758 0,0.64137 0,0.49884 0,0.99767 0,1.49652 0,0.99768 0,1.99535 0,2.99303 0,0.24953 0.0417,1.11594 0,1.28274 -0.06217,0.24869 -0.555151,0.95399 -0.641365,1.06894 -0.120937,0.16125 -0.337436,0.24729 -0.427577,0.42758 -0.03187,0.0637 0.05039,0.16339 0,0.21378 -0.05039,0.0504 -0.154495,-0.0395 -0.213789,0 -0.16771,0.11181 -0.259868,0.31577 -0.427577,0.42758 -0.04594,0.0306 -0.717327,0 -0.855154,0 -0.49884,0 -0.99768,0 -1.49652,0 -0.142526,0 -0.287819,0.0279 -0.427577,0 -0.288118,-0.0576 -0.570103,-0.14252 -0.855154,-0.21379 z"
         style="fill:none;fill-rule:evenodd;stroke:#109e00;stroke-width:0.5;stroke-linecap:butt;stroke-linejoin:miter;stroke-miterlimit:4;stroke-dasharray:1.5, 1.50000000000000000;stroke-dashoffset:0;stroke-opacity:1" />
      <path
         inkscape:connector-curvature="0"
         id="path4185"
         d="m 34.633742,980.52932 c -0.853398,-0.0387 -1.71382,0.0774 -2.565462,0 -1.47812,-0.13438 0.04498,-0.2048 -1.068943,-0.42758 -0.209637,-0.0419 -0.430486,0.0352 -0.641365,0 -0.222287,-0.037 -0.419079,-0.17674 -0.641366,-0.21379 -0.421759,-0.0703 -0.863457,0.0838 -1.282731,0 -0.156254,-0.0312 -0.279626,-0.15461 -0.427577,-0.21379 -0.209235,-0.0837 -0.427577,-0.14252 -0.641366,-0.21379 -0.213788,-0.0712 -0.419079,-0.17674 -0.641366,-0.21378 -0.210879,-0.0351 -0.430485,0.0352 -0.641365,0 -0.231779,-0.0386 -0.83632,-0.2725 -1.068943,-0.42758 -0.08385,-0.0559 -0.123647,-0.16872 -0.213788,-0.21379 -0.201562,-0.10078 -0.432131,-0.13009 -0.641366,-0.21379 -0.147951,-0.0592 -0.276406,-0.1634 -0.427577,-0.21379 -0.06761,-0.0225 -0.152681,0.0367 -0.213788,0 -0.305537,-0.18332 -0.56521,-0.43426 -0.855155,-0.64136 -0.209082,-0.14935 -0.435812,-0.27341 -0.641365,-0.42758 -0.08063,-0.0605 -0.123648,-0.16872 -0.213789,-0.21379 -0.343247,-0.17162 -0.704874,-0.30622 -1.068942,-0.42757 -0.06761,-0.0225 -0.163398,0.0504 -0.213789,0 -0.181685,-0.18169 -0.245892,-0.45969 -0.427577,-0.64137 -0.05039,-0.0504 -0.146183,0.0225 -0.213789,0 -1.548559,-0.51619 0.337061,0.0616 -0.641365,-0.42758 -0.06374,-0.0319 -0.154494,0.0395 -0.213789,0 -1.239566,-0.82637 -0.158311,-0.10283 -0.427577,-0.64136 -0.04507,-0.0901 -0.142525,-0.14253 -0.213788,-0.21379 -0.07126,-0.0713 -0.123648,-0.16872 -0.213789,-0.21379 -0.06374,-0.0319 -0.163398,0.0504 -0.213788,0 -0.112677,-0.11268 -0.182538,-0.27132 -0.213789,-0.42758 -0.03918,-0.19588 0,-1.28722 0,-1.49652 0,-0.21378 0.109993,-0.45804 0,-0.64136 -0.132195,-0.22033 -0.4872,-0.22203 -0.641365,-0.42758 -0.08552,-0.11402 0,-0.28505 0,-0.42758 0,-0.28505 0,-0.5701 0,-0.85515 0,-1.49652 0,-2.99304 0,-4.48956 0,-0.85515 0,-1.71031 0,-2.56546 0,-0.21379 0,-0.42758 0,-0.64137 0,-0.28505 -0.04686,-0.57398 0,-0.85515 0.0262,-0.15718 0.163398,-0.27641 0.213788,-0.42758 0.09292,-0.27874 0.120873,-0.57641 0.213789,-0.85515 0.05039,-0.15117 0.17514,-0.27299 0.213788,-0.42758 0.03457,-0.13827 -0.03915,-0.29053 0,-0.42758 0.105428,-0.36899 0.255954,-0.72569 0.427577,-1.06894 0.04507,-0.0901 0.142526,-0.14253 0.213789,-0.21379 0.327177,-0.32718 0.675359,-0.61945 0.855154,-1.06894 0.05293,-0.13233 -0.08552,-0.31356 0,-0.42758 0.154165,-0.20555 0.45968,-0.24589 0.641365,-0.42757 0.363371,-0.36337 0.534134,-0.88146 0.855155,-1.28274 0.339764,-0.4247 0.866952,-0.7571 1.282731,-1.06894 0.285051,-0.21379 0.545787,-0.46458 0.855154,-0.64136 0.195661,-0.11181 0.432131,-0.1301 0.641366,-0.21379 0.147951,-0.0592 0.279625,-0.15461 0.427577,-0.21379 0.209234,-0.0837 0.434233,-0.12502 0.641365,-0.21379 0.292929,-0.12554 0.552812,-0.3268 0.855154,-0.42758 0.135212,-0.0451 0.289307,0.0346 0.427577,0 0.154591,-0.0387 0.279626,-0.1546 0.427577,-0.21378 0.41847,-0.16739 0.879608,-0.22602 1.282732,-0.42758 0.459631,-0.22982 0.810397,-0.65273 1.282731,-0.85516 0.270067,-0.11574 0.605991,-0.0581 0.855154,-0.21378 0.341848,-0.21366 0.570103,-0.57011 0.855154,-0.85516 0.213789,-0.21379 0.378859,-0.49136 0.641366,-0.64136 0.255111,-0.14578 0.603202,-0.0626 0.855154,-0.21379 0.13664,-0.082 0.07126,-0.35632 0.213788,-0.42758 0.191219,-0.0956 0.431729,0.0419 0.641366,0 0.156254,-0.0312 0.276406,-0.1634 0.427577,-0.21379 0.278746,-0.0929 0.576408,-0.12087 0.855154,-0.21379 0.302343,-0.10078 0.542646,-0.36507 0.855154,-0.42757 0.209637,-0.0419 0.427577,0 0.641366,0 0.07126,0 0.144653,0.0173 0.213788,0 0.218625,-0.0547 0.419079,-0.17674 0.641366,-0.21379 0.287038,-0.0478 1.386064,0 1.710308,0 0.427577,0 0.855154,0 1.282731,0 0.285052,0 0.575639,-0.0559 0.855155,0 0.434698,0.0869 0.967422,0.32605 1.282731,0.64136 0.530007,0.53001 0.303962,0.56284 0.641365,1.06895 0.193677,0.29051 0.877721,1.11407 1.068943,1.49652 0.171624,0.34324 0.255953,0.72569 0.427577,1.06894 0.114908,0.22981 0.312669,0.41155 0.427577,0.64136 0.171624,0.34325 0.241206,0.73348 0.427577,1.06895 0.173042,0.31147 0.464584,0.54578 0.641366,0.85515 0.187944,0.3289 0.313976,1.19358 0.427577,1.49652 1.238775,2.47755 -0.05245,-0.42361 0.427577,1.49652 0.09308,0.3723 0.334501,0.69664 0.427577,1.06894 0.05185,0.20741 0,0.42758 0,0.64137 0,0.35631 0,0.71263 0,1.06894 0,0.21379 -0.07507,0.44119 0,0.64137 0.145902,0.38907 0.455535,0.69728 0.641366,1.06894 0.03187,0.0637 0,0.14252 0,0.21379 0,0.49884 0,0.99768 0,1.49652 0,1.42525 0,2.85051 0,4.27577 0,0.99768 0,1.99536 0,2.99304 0,0.14044 0.02514,0.80488 0,0.85515 -0.09014,0.18028 -0.30664,0.26633 -0.427578,0.42758 -0.09561,0.12748 -0.142525,0.28505 -0.213788,0.42758 -0.07126,0.14252 -0.154608,0.27962 -0.213789,0.42757 -0.07126,0.21379 -0.142525,0.42758 -0.213788,0.64137 0,0.14252 0.04507,0.29236 0,0.42757 -0.03187,0.0956 -0.157885,0.12994 -0.213789,0.21379 -0.02655,0.0398 -0.413877,0.84146 -0.427577,0.85516 -0.05039,0.0504 -0.163398,-0.0504 -0.213788,0 -0.05039,0.0504 0.05039,0.1634 0,0.21379 -0.112677,0.11267 -0.339187,0.0812 -0.427577,0.21379 -0.07906,0.11858 0.03457,0.2893 0,0.42757 -0.03865,0.15459 -0.125398,0.29499 -0.213789,0.42758 -0.0559,0.0838 -0.142526,0.14252 -0.213788,0.21379 -0.07126,0.0713 -0.123648,0.16872 -0.213789,0.21379 -0.06374,0.0319 -0.163398,-0.0504 -0.213788,0 -0.05039,0.0504 0.03187,0.15005 0,0.21378 -0.04507,0.0901 -0.157886,0.12994 -0.213789,0.21379 -0.08839,0.13259 -0.101112,0.3149 -0.213788,0.42758 -0.05039,0.0504 -0.15005,-0.0319 -0.213789,0 -0.09014,0.0451 -0.142526,0.14253 -0.213789,0.21379 -0.07126,0.0713 -0.168718,0.12365 -0.213788,0.21379 -0.03187,0.0637 0.03187,0.15005 0,0.21379 -0.09784,0.19568 -0.485131,0.37549 -0.641366,0.42757 -0.06761,0.0225 -0.163398,-0.0504 -0.213788,0 -0.05039,0.0504 0.05039,0.1634 0,0.21379 -0.05039,0.0504 -0.163398,-0.0504 -0.213789,0 -0.05039,0.0504 0.05039,0.1634 0,0.21379 -0.112676,0.11268 -0.3149,0.10111 -0.427577,0.21379 -0.05039,0.0504 0.05039,0.1634 0,0.21379 -0.05039,0.0504 -0.154494,-0.0395 -0.213788,0 -0.16771,0.1118 -0.259868,0.31577 -0.427577,0.42757 -0.05929,0.0395 -0.146183,-0.0225 -0.213789,0 -0.151171,0.0504 -0.276406,0.1634 -0.427577,0.21379 -0.129325,0.0431 -0.298252,-0.0431 -0.427577,0 -0.151171,0.0504 -0.272986,0.17514 -0.427577,0.21379 -0.207405,0.0519 -0.438548,-0.0676 -0.641366,0 -0.142525,0.0713 -0.285051,0.14253 -0.427577,0.21379 0,0.0713 0.06374,0.18192 0,0.21379 -0.127479,0.0637 -0.292365,-0.0451 -0.427577,0 -0.09561,0.0319 -0.129934,0.15788 -0.213788,0.21379 -0.132586,0.0884 -0.276406,0.16339 -0.427577,0.21379 -0.147051,0.049 -0.515227,-0.0631 -0.641366,0 -0.09014,0.0451 -0.123647,0.16871 -0.213789,0.21378 -0.06374,0.0319 -0.142525,0 -0.213788,0 -0.285051,0 -0.570103,0 -0.855154,0 -0.07126,0 -0.142526,0 -0.213789,0 -0.07126,0 -0.174259,0.0593 -0.213788,0 -0.125004,-0.1875 -0.142526,-0.42757 -0.213789,-0.64136 z"
         style="fill:none;fill-rule:evenodd;stroke:#109e00;stroke-width:0.5;stroke-linecap:butt;stroke-linejoin:miter;stroke-miterlimit:4;stroke-dasharray:1.5, 1.50000000000000000;stroke-dashoffset:0;stroke-opacity:1" />
      <path
         inkscape:connector-curvature="0"
         id="path4187"
         d="m 36.557839,986.08782 c -0.605469,0.23117 -1.108794,0.21379 -1.710308,0.21379 -0.07126,0 -0.142526,0 -0.213789,0 -0.07126,0 -0.154494,0.0395 -0.213788,0 -0.16771,-0.11181 -0.259868,-0.31577 -0.427577,-0.42758 -0.05929,-0.0395 -0.142526,0 -0.213789,0 -0.07126,0 -0.142526,0 -0.213788,0 -0.712629,0 -1.425257,0 -2.137886,0 -0.142526,0 -0.292365,0.0451 -0.427577,0 -0.09561,-0.0319 -0.116017,-0.18934 -0.213788,-0.21379 -0.207406,-0.0519 -0.427577,0 -0.641366,0 -0.07126,0 -0.147623,0.0265 -0.213789,0 -0.295902,-0.11836 -0.559251,-0.30921 -0.855154,-0.42757 -0.06617,-0.0265 -0.142525,0 -0.213788,0 -0.142526,0 -0.289307,0.0346 -0.427577,0 -0.620037,-0.15501 -0.250189,-0.1668 -0.641366,-0.42758 -1.19245,-0.79497 0.301874,0.24902 -0.855154,-0.21379 -0.238564,-0.0954 -0.42104,-0.29538 -0.641366,-0.42758 -0.27328,-0.16396 -0.581873,-0.26361 -0.855154,-0.42757 -0.220326,-0.1322 -0.397609,-0.34633 -0.641365,-0.42758 -0.202818,-0.0676 -0.427577,0 -0.641366,0 -0.285051,-0.0713 -0.582345,-0.10467 -0.855154,-0.21379 -0.814709,-0.32588 0.648335,-0.16964 -0.641366,-0.42758 -1.903441,0 0.05725,0.15117 -0.855154,-0.21378 -0.285051,-0.0713 -0.570102,-0.14253 -0.855154,-0.21379 -0.07126,-0.0713 -0.123647,-0.16872 -0.213788,-0.21379 -0.06374,-0.0319 -0.163398,0.0504 -0.213789,0 -0.112676,-0.11268 -0.08631,-0.33197 -0.213788,-0.42758 -0.180283,-0.13521 -0.427578,-0.14253 -0.641366,-0.21379 -0.258695,-0.0862 -0.817287,-0.23883 -1.068943,-0.42757 -0.432203,-0.32416 -0.422857,-0.41814 -0.641365,-0.85516 -0.07126,-0.14252 -0.101112,-0.3149 -0.213789,-0.42758 -0.112676,-0.11267 -0.3149,-0.10111 -0.427577,-0.21378 -0.05039,-0.0504 0.05039,-0.1634 0,-0.21379 -0.112676,-0.11268 -0.314901,-0.10111 -0.427577,-0.21379 -0.05039,-0.0504 0.03187,-0.15005 0,-0.21379 -0.04507,-0.0901 -0.168718,-0.12365 -0.213789,-0.21379 -0.10078,-0.20156 -0.05444,-0.48202 -0.213788,-0.64136 -0.100781,-0.10078 -0.308989,0.0791 -0.427577,0 -0.132586,-0.0884 -0.131804,-0.29094 -0.213789,-0.42758 -0.132195,-0.22033 -0.312669,-0.41155 -0.427577,-0.64137 -0.03187,-0.0637 0,-0.14252 0,-0.21379 -0.142525,-0.28505 -0.250795,-0.58998 -0.427577,-0.85515 -0.111806,-0.16771 -0.30664,-0.26633 -0.427577,-0.42758 -0.09561,-0.12748 -0.118179,-0.3001 -0.213788,-0.42757 -0.924698,-0.9247 -0.03351,0.0566 -0.641366,-0.85516 -0.0559,-0.0839 -0.142526,-0.14252 -0.213788,-0.21379 -0.07126,-0.14252 -0.125398,-0.29499 -0.213789,-0.42757 -0.0559,-0.0838 -0.181919,-0.11818 -0.213789,-0.21379 -0.04507,-0.13521 0,-0.28505 0,-0.42758 0,-0.0713 0.03187,-0.15005 0,-0.21379 -0.04507,-0.0901 -0.142525,-0.14252 -0.213788,-0.21379 0,-0.28505 0.04686,-0.57398 0,-0.85515 -0.0262,-0.15718 -0.154608,-0.27963 -0.213789,-0.42758 -0.08369,-0.20923 -0.130094,-0.43213 -0.213788,-0.64136 -0.05918,-0.14795 -0.175141,-0.27299 -0.213789,-0.42758 -0.03457,-0.13827 0,-0.28505 0,-0.42758 0,-0.21379 0,-0.42757 0,-0.64136 0,-0.0713 0.03187,-0.15005 0,-0.21379 -0.114908,-0.22982 -0.332151,-0.4028 -0.427577,-0.64137 -0.05293,-0.13233 0,-0.28505 0,-0.42757 0,-0.1376 0,-1.0408 0,-1.06895 0,-0.14252 0.03457,-0.2893 0,-0.42757 -0.05466,-0.21863 -0.159132,-0.42274 -0.213788,-0.64137 -0.03457,-0.13827 0,-0.28505 0,-0.42758 0,-0.0697 0,-0.90373 0,-1.06894 0,-0.85515 0,-1.71031 0,-2.56546 0,-0.92642 0,-1.85283 0,-2.77925 0,-0.49884 0,0.0723 0,-0.85516 0,-0.0713 -0.02254,-0.14618 0,-0.21378 0.496262,-0.99253 0.01815,0.12305 0.213788,-0.85516 0.08839,-0.44195 0.353482,-0.83816 0.427577,-1.28273 0.405272,-2.43163 -0.39768,0.76547 0.213789,-1.06894 0.213788,-0.64137 -0.427577,0.42757 0,-0.64137 0.09543,-0.23856 0.312669,-0.41155 0.427577,-0.64136 0.61644,-1.23288 -0.277667,-0.0574 0.641366,-1.28273 0.450983,-0.60132 0.01636,0.39485 0.641365,-0.85516 0.100781,-0.20156 0.113008,-0.4398 0.213789,-0.64136 0.04507,-0.0901 0.142525,-0.14253 0.213788,-0.21379 0.142526,-0.28505 0.326796,-0.55281 0.427577,-0.85516 0.04507,-0.13521 -0.06374,-0.3001 0,-0.42757 0.135212,-0.27043 0.506154,-0.37095 0.641366,-0.64137 0.100781,-0.20156 0.07858,-0.46108 0.213788,-0.64137 0.09561,-0.12747 0.294991,-0.12539 0.427577,-0.21378 0.08385,-0.0559 0.123648,-0.16872 0.213789,-0.21379 0.06374,-0.0319 0.154494,0.0395 0.213788,0 1.153333,-0.76889 -0.147245,-0.0665 0.641366,-0.85516 0.112677,-0.11267 0.314901,-0.10111 0.427577,-0.21379 0.112677,-0.11267 0.101112,-0.3149 0.213789,-0.42757 0.05039,-0.0504 0.146182,0.0225 0.213788,0 0.151172,-0.0504 0.300098,-0.11818 0.427577,-0.21379 0.16125,-0.12094 0.266328,-0.30664 0.427577,-0.42758 0.286499,-0.21487 0.760973,-0.30439 1.068943,-0.42758 0.147951,-0.0592 0.294991,-0.12539 0.427577,-0.21378 0.08385,-0.0559 0.118179,-0.18192 0.213789,-0.21379 0.125319,-0.0418 0.787545,0.0451 0.855154,0 0.132586,-0.0884 0.0812,-0.33919 0.213788,-0.42758 0.118589,-0.0791 0.286991,0.0234 0.427577,0 0.289827,-0.0483 0.563127,-0.18134 0.855154,-0.21379 0.558867,-0.0621 1.326738,0 1.924097,0 0.142526,0 0.289307,0.0346 0.427577,0 0.154591,-0.0386 0.271323,-0.18254 0.427577,-0.21379 0.08708,-0.0174 1.202175,0.0403 1.282732,0 0.09014,-0.0451 0.118179,-0.18192 0.213788,-0.21378 0.135212,-0.0451 0.285051,0 0.427577,0 0.251262,0 1.089488,0.0483 1.282731,0 0.218625,-0.0547 0.422742,-0.15914 0.641366,-0.21379 0.18583,-0.0465 0.643763,0 0.855154,0 0.570103,0 1.140206,0 1.710308,0 1.49652,0 2.99304,0 4.489559,0 0.793589,0 1.593606,0.0894 2.351674,-0.21379 0.208078,-0.0832 0.430871,-0.53612 0.641366,-0.64137 0.151345,-0.65185 0.59235,-0.0824 0.855154,-0.21379 0.09014,-0.0451 0.118179,-0.18191 0.213789,-0.21378 0.135211,-0.0451 0.289306,0.0346 0.427577,0 0.15459,-0.0387 0.276405,-0.1634 0.427577,-0.21379 0.06761,-0.0225 0.142525,0 0.213788,0 0.240086,0 1.020911,0.0524 1.282731,0 0.288119,-0.0576 0.567036,-0.15617 0.855155,-0.21379 0.2408,-0.0482 0.625265,0 0.855154,0 0.427577,0 0.855154,0 1.282731,0 0.427577,0 0.855154,0 1.282731,0 0.142526,0 0.285051,0 0.427577,0 0.07126,0 0.150049,-0.0319 0.213789,0 0.09014,0.0451 0.123647,0.16872 0.213788,0.21379 0.06374,0.0319 0.163398,-0.0504 0.213789,0 0.05039,0.0504 -0.05039,0.1634 0,0.21379 0.112676,0.11267 0.3149,0.10111 0.427577,0.21378 0.112676,0.11268 0.07715,0.3456 0.213788,0.42758 0.251953,0.15117 0.582346,0.10467 0.855154,0.21379 0.272862,0.10914 0.253473,0.46726 0.427578,0.64137 0.05039,0.0504 0.163398,-0.0504 0.213788,0 0.112677,0.11267 0.142526,0.28505 0.213789,0.42757 0.142525,0.28505 0.285051,0.57011 0.427577,0.85516 0,0.0713 -0.01728,0.14465 0,0.21378 -0.363349,0.57868 0.326796,0.55282 0.427577,0.85516 0.09014,0.27042 -0.06914,0.57861 0,0.85515 0.03865,0.15459 0.175141,0.27299 0.213788,0.42758 0.0928,0.37119 -0.0928,0.91154 0,1.28273 0.03865,0.15459 0.163398,0.27641 0.213789,0.42758 0.02253,0.0676 0,0.14252 0,0.21379 0,0.35631 0,0.71263 0,1.06894 0,1.28273 0,2.56546 0,3.84819 0,0.92642 0,1.85284 0,2.77925 0,0.12319 -0.03896,0.99103 0,1.06895 0.32598,0.65196 0.169484,-0.39101 0.427577,0.64136 0.03457,0.13827 -0.02795,0.28782 0,0.42758 0.224476,1.12238 0.06391,0.30966 0.427577,0.85515 0.08839,0.13259 0.0812,0.33919 0.213788,0.42758 1.586545,1.0577 0.695438,-0.3735 2.351674,1.28273 0.100781,0.10078 -0.04507,0.29237 0,0.42758 0.03725,0.11174 0.71688,0.67079 0.855154,0.85515 0.154166,0.20556 0.245892,0.45968 0.427577,0.64137 0.112677,0.11268 0.294992,0.1254 0.427578,0.21379 0.354763,0.23651 0.627007,0.76474 0.855154,1.06894 0.06047,0.0806 0.168718,0.12365 0.213788,0.21379 0.03187,0.0637 0,0.14252 0,0.21379 0,0.14252 -0.05293,0.29524 0,0.42757 0.09543,0.23857 0.312669,0.41155 0.427577,0.64137 0.03187,0.0637 0,0.14253 0,0.21379 0.07126,0.21379 0.08879,0.45386 0.213789,0.64136 0.03953,0.0593 0.163398,-0.0504 0.213788,0 0.112677,0.11268 0.125398,0.29499 0.213789,0.42758 0.0559,0.0838 0.168718,0.12365 0.213788,0.21379 0.03187,0.0637 0,0.14253 0,0.21379 0,0.35631 0,0.71263 0,1.06894 0,0.78389 0,1.56778 0,2.35167 0,0.84535 0.117784,2.00559 -0.213788,2.77926 -0.0794,0.18526 -0.352719,0.24043 -0.427577,0.42757 -0.0794,0.1985 0.04193,0.43173 0,0.64137 -0.09319,0.46593 -0.526168,0.60815 -0.641366,1.06894 -0.03457,0.13827 0.06374,0.3001 0,0.42758 -0.03187,0.0637 -0.163398,-0.0504 -0.213788,0 -0.05039,0.0504 0.03953,0.15449 0,0.21379 -0.111807,0.16771 -0.315771,0.25986 -0.427577,0.42757 -0.03953,0.0593 0.05039,0.1634 0,0.21379 -0.251953,0.25195 -0.603202,0.38942 -0.855155,0.64137 -0.112676,0.11267 -0.101112,0.3149 -0.213788,0.42757 -0.05039,0.0504 -0.181919,-0.0637 -0.213789,0 -0.06374,0.12748 0.07333,0.30537 0,0.42758 -0.207405,0.34568 -0.570102,0.5701 -0.855154,0.85516 -0.07126,0.0713 -0.157885,0.12993 -0.213788,0.21378 -0.08839,0.13259 -0.101112,0.3149 -0.213789,0.42758 -0.112676,0.11268 -0.294991,0.1254 -0.427577,0.21379 -0.08385,0.0559 -0.123647,0.16872 -0.213788,0.21379 -0.201562,0.10078 -0.453861,0.0888 -0.641366,0.21379 -0.05929,0.0395 0.05039,0.16339 0,0.21379 -0.410278,0.41027 -1.380458,0.79712 -1.924097,1.06894 -0.142525,0.0713 -0.3149,0.10111 -0.427577,0.21379 -0.112676,0.11267 -0.101112,0.3149 -0.213788,0.42757 -0.996994,0.997 -0.252938,0.15558 -1.068943,0.42758 -2.651353,1.32568 0.209817,0.0544 -1.282731,0.42758 -1.032373,0.25809 0.0106,0.10159 -0.641366,0.42757 -0.06374,0.0319 -0.150049,-0.0319 -0.213788,0 -0.09014,0.0451 -0.123648,0.16872 -0.213789,0.21379 -0.06374,0.0319 -0.146183,-0.0225 -0.213788,0 -0.151172,0.0504 -0.276406,0.1634 -0.427577,0.21379 -0.06761,0.0225 -0.142526,0 -0.213789,0 -0.142526,0.0713 -0.276406,0.1634 -0.427577,0.21379 -0.19241,0.0641 -0.448956,-0.0641 -0.641366,0 -0.151171,0.0504 -0.276405,0.1634 -0.427577,0.21379 -0.06761,0.0225 -0.150049,-0.0319 -0.213788,0 -0.09014,0.0451 -0.123648,0.16872 -0.213789,0.21379 -0.472647,0.23632 -0.490745,0.21379 -0.855154,0.21379 -0.07126,0 -0.146183,-0.0225 -0.213788,0 -0.151172,0.0504 -0.276406,0.16339 -0.427577,0.21378 -0.128262,0.0427 -0.898349,0 -1.068943,0 -0.49884,0 -0.99768,0 -1.49652,0 -0.140482,0 -0.520746,-0.0402 -0.641365,0 -0.151172,0.0504 -0.276406,0.1634 -0.427578,0.21379 -0.20824,0.0694 -0.865285,-0.0679 -1.068942,0 -0.172518,0.0575 -1.143892,0.53724 -1.282731,0.64137 -0.16125,0.12094 -0.259868,0.31577 -0.427577,0.42758 -0.05929,0.0395 -0.142526,0 -0.213789,0 -0.07126,0 -0.174259,0.0593 -0.213789,0 -0.125003,-0.18751 -0.142525,-0.42758 -0.213788,-0.64137 z"
         style="fill:none;fill-rule:evenodd;stroke:#109e00;stroke-width:0.5;stroke-linecap:butt;stroke-linejoin:miter;stroke-miterlimit:4;stroke-dasharray:1.5, 1.50000000000000000;stroke-dashoffset:0;stroke-opacity:1" />
      <path
         inkscape:connector-curvature="0"
         id="path4189"
         d="m 106.2529,967.48822 c -1.14021,0 -2.28041,0 -3.42062,0 -0.64136,0 -1.28273,0 -1.92409,0 -0.14253,0 -0.3001,0.0637 -0.42758,0 -0.0637,-0.0319 0.0504,-0.1634 0,-0.21379 -0.22535,-0.22535 -0.629801,-0.20222 -0.855154,-0.42758 -0.05039,-0.0504 0.06374,-0.18192 0,-0.21379 -0.127479,-0.0637 -0.300098,0.0637 -0.427577,0 -0.06374,-0.0319 0.05039,-0.16339 0,-0.21378 -0.05039,-0.0504 -0.163398,0.0504 -0.213789,0 -0.442336,-0.44234 0.675948,0.0173 -0.213788,-0.42758 -0.06374,-0.0319 -0.181919,0.0637 -0.213789,0 -0.08552,-0.17103 0.08552,-0.47034 0,-0.64137 -0.04507,-0.0901 -0.168718,-0.12364 -0.213788,-0.21379 -0.03187,-0.0637 0.02254,-0.14618 0,-0.21378 -0.05039,-0.15118 -0.163398,-0.27641 -0.213789,-0.42758 -0.04507,-0.13521 0,-0.28505 0,-0.42758 0,-0.35631 0,-0.71263 0,-1.06894 0,-0.35632 0,-0.71263 0,-1.06894 0,-0.14253 -0.06374,-0.3001 0,-0.42758 0.159349,-0.3187 0.458044,-0.54962 0.641366,-0.85516 0.03666,-0.0611 -0.05039,-0.16339 0,-0.21378 0.05039,-0.0504 0.163398,0.0504 0.213788,0 0.05039,-0.0504 -0.05039,-0.1634 0,-0.21379 0.112677,-0.11268 0.314901,-0.10111 0.427577,-0.21379 0.05039,-0.0504 -0.03953,-0.15449 0,-0.21379 0.111807,-0.16771 0.285052,-0.28505 0.427577,-0.42758 0.07126,-0.0713 0.168716,-0.12364 0.213786,-0.21378 0.0319,-0.0637 0,-0.14253 0,-0.21379 0.14253,-0.14253 0.31577,-0.25987 0.42758,-0.42758 0.0395,-0.0593 0,-0.14253 0,-0.21379 0.0713,-0.14252 0.1254,-0.29499 0.21379,-0.42758 0.12974,-0.19461 0.54662,-0.45187 0.64136,-0.64136 0.0319,-0.0637 -0.0504,-0.1634 0,-0.21379 0.0504,-0.0504 0.1634,0.0504 0.21379,0 0.44234,-0.44234 -0.67595,0.0173 0.21379,-0.42758 0.0637,-0.0319 0.15005,0.0319 0.21379,0 0.0901,-0.0451 0.12365,-0.16872 0.21379,-0.21379 0.0637,-0.0319 0.15005,0.0319 0.21379,0 0.0901,-0.0451 0.12364,-0.16871 0.21379,-0.21378 0.0637,-0.0319 0.14618,0.0225 0.21378,0 0.15118,-0.0504 0.27641,-0.1634 0.42758,-0.21379 0.13521,-0.0451 0.28505,0 0.42758,0 0.49884,0 0.99768,0 1.49652,0 0.49884,0 0.99768,0 1.49652,0 0.14252,0 0.29236,-0.0451 0.42757,0 0.0956,0.0319 0.12365,0.16872 0.21379,0.21379 0.59697,0.29848 -0.35028,-0.89463 0.64137,0.42757 0.19122,0.25496 0.20222,0.6298 0.42758,0.85516 0.0504,0.0504 0.16339,-0.0504 0.21378,0 0.0504,0.0504 -0.0173,0.14465 0,0.21379 0.0547,0.21862 0.0544,0.48201 0.21379,0.64136 0.10078,0.10078 0.3001,-0.0637 0.42758,0 0.0637,0.0319 -0.0225,0.14618 0,0.21379 0.60563,1.21126 -0.0797,-0.3187 0.21379,0.85515 0.0387,0.15459 0.1634,0.27641 0.21379,0.42758 0.0451,0.13521 0,0.28505 0,0.42758 0,0.35631 0,0.71263 0,1.06894 0,0.49884 0,0.99768 0,1.49652 0,0.21379 0,0.42758 0,0.64137 0,0.0713 0.0319,0.15004 0,0.21378 -0.11491,0.22982 -0.33215,0.4028 -0.42758,0.64137 -0.0529,0.13233 0,0.28505 0,0.42758 0,0.0713 0.0504,0.1634 0,0.21379 -0.11268,0.11267 -0.33919,0.0812 -0.42758,0.21378 -0.0791,0.11859 0.0637,0.3001 0,0.42758 -0.0319,0.0637 -0.1634,-0.0504 -0.21379,0 -0.10078,0.10078 0.0637,0.3001 0,0.42758 -0.0451,0.0901 -0.14252,0.28505 -0.21378,0.21379 -1.4e-4,-1.4e-4 0.77526,-0.8199 0,0.21379 -0.99166,1.3222 -0.0444,0.12909 -0.64137,0.42757 -0.17209,0.086 -0.25549,0.34154 -0.42758,0.42758 -0.0637,0.0319 -0.14391,-0.014 -0.21379,0 -0.28811,0.0576 -0.5701,0.14253 -0.85515,0.21379 z"
         style="fill:none;fill-rule:evenodd;stroke:#109e00;stroke-width:0.5;stroke-linecap:butt;stroke-linejoin:miter;stroke-miterlimit:4;stroke-dasharray:1.5, 1.50000000000000000;stroke-dashoffset:0;stroke-opacity:1" />
      <path
         inkscape:connector-curvature="0"
         id="path4191"
         d="m 106.46669,973.26051 c -0.70155,0.27603 -1.40823,0.21379 -2.13789,0.21379 -0.14252,0 -0.29236,0.0451 -0.42757,0 -0.0956,-0.0319 -0.12365,-0.16872 -0.21379,-0.21379 -0.0637,-0.0319 -0.14253,0 -0.21379,0 -0.21379,0 -0.43855,0.0676 -0.64137,0 -0.0676,-0.0225 0.0504,-0.1634 0,-0.21379 -0.0504,-0.0504 -0.14252,0 -0.21378,0 -0.14253,0 -0.28506,0 -0.42758,0 -0.483,0 0.0956,0.0319 -0.64137,-0.21379 -0.20281,-0.0676 -0.43396,0.0518 -0.64136,0 -0.15459,-0.0387 -0.27299,-0.17514 -0.42758,-0.21379 -0.13827,-0.0346 -0.28505,0 -0.42758,0 -0.07126,0 -0.150046,0.0319 -0.213786,0 -0.656805,-0.3284 0.353596,-0.12058 -0.427577,-0.64136 -0.118588,-0.0791 -0.285051,0 -0.427577,0 -0.07126,0 -0.163398,0.0504 -0.213788,0 -0.181686,-0.18169 -0.222024,-0.4872 -0.427577,-0.64137 -0.114021,-0.0855 -0.289307,0.0346 -0.427577,0 -0.154591,-0.0386 -0.300099,-0.11818 -0.427577,-0.21379 -0.297848,-0.22338 -0.585438,-0.58543 -0.855155,-0.85515 -0.07126,-0.0713 -0.123647,-0.16872 -0.213788,-0.21379 -0.06374,-0.0319 -0.154494,0.0395 -0.213789,0 -0.0053,-0.004 -0.809252,-0.76335 -0.855154,-0.85515 -0.03187,-0.0637 0.03187,-0.15005 0,-0.21379 -0.04507,-0.0901 -0.168718,-0.12365 -0.213788,-0.21379 -0.03187,-0.0637 0.02254,-0.14618 0,-0.21379 -0.05039,-0.15117 -0.163398,-0.27641 -0.213789,-0.42758 -0.106894,-0.32068 0.213789,-0.21379 0,-0.64136 -0.03187,-0.0637 -0.163398,0.0504 -0.213788,0 -0.02641,-0.0264 0,-0.72109 0,-0.85516 0,-0.42757 0,-0.85515 0,-1.28273 0,-0.21379 -0.06761,-0.43855 0,-0.64136 0.03187,-0.0956 0.168718,-0.12365 0.213788,-0.21379 0.03187,-0.0637 -0.02253,-0.14618 0,-0.21379 0.516187,-1.54856 -0.06164,0.33706 0.427577,-0.64137 0.03187,-0.0637 0,-0.14252 0,-0.21378 0.07126,-0.14253 0.125398,-0.295 0.213789,-0.42758 0.0559,-0.0838 0.168718,-0.12365 0.213788,-0.21379 0.03187,-0.0637 0,-0.14253 0,-0.21379 0,-0.21379 -0.04193,-0.43173 0,-0.64136 0.03125,-0.15626 0.163398,-0.27641 0.213789,-0.42758 0.06761,-0.20282 -0.06761,-0.43855 0,-0.64137 0.03187,-0.0956 0.181919,-0.11818 0.213788,-0.21379 0.04169,-0.12508 0,-1.09923 0,-1.28273 0,-0.14126 -0.03387,-1.23192 0,-1.28273 0.111807,-0.16771 0.315771,-0.25987 0.427577,-0.42757 0.03953,-0.0593 0,-0.14253 0,-0.21379 0,-0.28505 0,-0.57011 0,-0.85516 0,-0.61659 0.01741,-0.28344 0.213789,-1.06894 0.04573,-0.1829 0,-0.85526 0,-1.06894 0,-0.0713 -0.03187,-0.15005 0,-0.21379 0.04507,-0.0901 0.168718,-0.12365 0.213788,-0.21379 0.06136,-0.12273 -0.04549,-0.88696 0,-1.06894 0.03865,-0.15459 0.163399,-0.27641 0.213789,-0.42758 0.02254,-0.0676 0,-0.14253 0,-0.21379 0,-0.21379 -0.04193,-0.43173 0,-0.64136 0.03125,-0.15626 0.175141,-0.27299 0.213789,-0.42758 0.03457,-0.13827 0,-0.28505 0,-0.42758 0,-0.28505 0,-0.5701 0,-0.85515 0,-0.0713 -0.03953,-0.1545 0,-0.21379 0.111806,-0.16771 0.337435,-0.2473 0.427577,-0.42758 0.191218,-0.16865 -0.09561,-0.45014 0,-0.64136 0.04507,-0.0901 0.168718,-0.12365 0.213788,-0.21379 0.08552,-0.17103 -0.08552,-0.47034 0,-0.64137 0.14085,-0.2817 0.286728,-0.14588 0.427577,-0.42757 0.03187,-0.0637 -0.05039,-0.1634 0,-0.21379 0.05039,-0.0504 0.163398,0.0504 0.213789,0 0.05039,-0.0504 -0.03187,-0.15005 0,-0.21379 0.04507,-0.0901 0.142525,-0.14253 0.213788,-0.21379 0.07126,-0.0713 0.123648,-0.16872 0.213789,-0.21379 0.06374,-0.0319 0.142525,0 0.213788,0 0.142526,0 0.285052,0 0.427577,0 0.570106,0 1.140206,0 1.710306,0 1.06895,0 2.13789,0 3.20683,0 0.0713,0 0.14253,0 0.21379,0 0.0713,0 0.1634,-0.0504 0.21379,0 0.0504,0.0504 -0.0504,0.1634 0,0.21379 0.11267,0.11268 0.29499,0.1254 0.42757,0.21379 0.0839,0.0559 0.12994,0.15788 0.21379,0.21379 0.13259,0.0884 0.27641,0.1634 0.42758,0.21379 0.39491,0.13163 0.10136,-0.32622 0.64137,0.21378 0.0504,0.0504 -0.0319,0.15005 0,0.21379 0.16371,0.32744 0.38097,0.16719 0.64136,0.42758 0.0504,0.0504 -0.0504,0.1634 0,0.21379 0.0504,0.0504 0.1634,-0.0504 0.21379,0 0.0504,0.0504 -0.0637,0.18192 0,0.21379 0.12748,0.0637 0.3268,-0.10078 0.42758,0 0.15935,0.15935 0.0888,0.45386 0.21379,0.64136 0.0395,0.0593 0.14252,0 0.21378,0 0,0.0713 -0.0319,0.15005 0,0.21379 0.0451,0.0901 0.14253,0.14253 0.21379,0.21379 0.0713,0.0713 0.11818,0.18192 0.21379,0.21379 0.13521,0.0451 0.3001,-0.0637 0.42758,0 0.0637,0.0319 -0.0504,0.1634 0,0.21379 0.0504,0.0504 0.15005,-0.0319 0.21379,0 0.0901,0.0451 0.12364,0.16871 0.21379,0.21379 0.12613,0.0631 0.49431,-0.049 0.64136,0 0.15117,0.0504 0.28505,0.14252 0.42758,0.21378 0.28505,0 0.57398,-0.0469 0.85515,0 1.29602,0.21601 0.0677,0.0677 0.42758,0.42758 0.0714,0.0714 0.35615,-0.0714 0.42758,0 0.0504,0.0504 -0.0504,0.1634 0,0.21379 0.0504,0.0504 0.16339,-0.0504 0.21378,0 0.11268,0.11268 0.10112,0.3149 0.21379,0.42758 0.0504,0.0504 0.15005,-0.0319 0.21379,0 0.0901,0.0451 0.14253,0.14252 0.21379,0.21379 0.0713,0.0713 0.16872,0.12364 0.21379,0.21378 0.0319,0.0637 -0.0504,0.1634 0,0.21379 0.11268,0.11268 0.33919,0.0812 0.42758,0.21379 0.0402,0.0603 -0.0357,1.17577 0,1.28273 0.0225,0.0676 0.19125,-0.0676 0.21378,0 0,1.51635 -0.15117,0.12524 0.21379,0.85516 0.0319,0.0637 0,0.14252 0,0.21378 0,0.28506 0,0.57011 0,0.85516 0,0.14252 -0.0346,0.28931 0,0.42758 0.0387,0.15459 0.1634,0.2764 0.21379,0.42757 0.0225,0.0676 0,0.14253 0,0.21379 0,0.14253 0,0.28505 0,0.42758 0,0.64136 0,1.28273 0,1.9241 0,0.64136 0,1.28273 0,1.92409 0,0.14253 0.028,0.28782 0,0.42758 -0.0442,0.22098 -0.16959,0.42039 -0.21379,0.64136 -0.0279,0.13976 0.0346,0.28931 0,0.42758 -0.0386,0.15459 -0.1546,0.27963 -0.21379,0.42758 -0.0837,0.20923 -0.113,0.4398 -0.21378,0.64136 -0.0451,0.0901 -0.18192,0.11818 -0.21379,0.21379 -0.0451,0.13521 0,0.28505 0,0.42758 0,0.0713 0.0319,0.15005 0,0.21379 -0.0451,0.0901 -0.16872,0.12365 -0.21379,0.21379 -0.0319,0.0637 0.0504,0.1634 0,0.21379 -0.0504,0.0504 -0.1634,-0.0504 -0.21379,0 -0.0504,0.0504 0.0319,0.15004 0,0.21378 -0.0451,0.0901 -0.16872,0.12365 -0.21379,0.21379 -0.0637,0.12748 0.0346,0.28931 0,0.42758 -0.54001,2.16004 0.0772,-0.1544 -0.42758,0.85515 -0.0637,0.12748 0.0791,0.30899 0,0.42758 -0.1118,0.16771 -0.31577,0.25987 -0.42757,0.42758 -0.0212,0.0319 0,0.57116 0,0.64136 0,0.14253 0,0.28505 0,0.42758 0,0.0713 0.0319,0.15005 0,0.21379 -0.0451,0.0901 -0.16872,0.12365 -0.21379,0.21379 -0.0855,0.17103 0.0855,0.47033 0,0.64136 -0.0284,0.0568 -0.5846,0.61299 -0.64137,0.64137 -0.0637,0.0319 -0.15005,-0.0319 -0.21378,0 -0.25655,0.12827 -0.38482,0.51309 -0.64137,0.64136 -0.0637,0.0319 -0.15005,-0.0319 -0.21379,0 -0.0901,0.0451 -0.12365,0.16872 -0.21379,0.21379 -0.0637,0.0319 -0.1634,-0.0504 -0.21379,0 -0.0504,0.0504 0.0504,0.1634 0,0.21379 -0.0504,0.0504 -0.14618,-0.0225 -0.21378,0 -0.15118,0.0504 -0.28506,0.14253 -0.42758,0.21379 -0.14253,0.0713 -0.29499,0.1254 -0.42758,0.21379 -0.0838,0.0559 -0.14252,0.14252 -0.21379,0.21379 -0.13692,0.13692 -0.65509,0.72177 -0.85515,0.85515 -0.13259,0.0884 -0.3149,0.10111 -0.42758,0.21379 -0.0504,0.0504 0.0699,0.19981 0,0.21379 -0.34939,0.0699 -0.71263,0 -1.06894,0 z"
         style="fill:none;fill-rule:evenodd;stroke:#109e00;stroke-width:0.5;stroke-linecap:butt;stroke-linejoin:miter;stroke-miterlimit:4;stroke-dasharray:1.5, 1.50000000000000000;stroke-dashoffset:0;stroke-opacity:1" />
      <path
         inkscape:connector-curvature="0"
         id="path4193"
         d="m 110.31488,980.9569 c -0.35631,-0.0713 -0.71051,-0.15406 -1.06894,-0.21379 -0.27434,-0.0457 -0.79517,0 -1.06894,0 -0.64137,0 -1.28273,0 -1.9241,0 -0.0508,0 -0.80724,0.024 -0.85515,0 -0.0901,-0.0451 -0.11818,-0.18192 -0.21379,-0.21379 -0.13521,-0.0451 -0.28931,0.0346 -0.42758,0 -0.15459,-0.0386 -0.27641,-0.1634 -0.42758,-0.21379 -0.18686,-0.0623 -1.15396,0.0644 -1.28273,0 -0.0901,-0.0451 -0.12365,-0.16872 -0.21379,-0.21379 -0.0637,-0.0319 -0.14252,0 -0.21378,0 -0.0713,-0.0713 -0.12365,-0.16872 -0.21379,-0.21379 -0.1262,-0.0631 -1.15947,0.0616 -1.28273,0 -0.85188,-0.42593 -9.4e-4,-0.42781 -0.85516,-0.64136 -0.13827,-0.0346 -0.289305,0.0346 -0.427576,0 -0.309181,-0.0773 -0.552811,-0.3268 -0.855154,-0.42758 -0.06761,-0.0225 -0.146182,0.0225 -0.213788,0 -0.151172,-0.0504 -0.285052,-0.14253 -0.427577,-0.21379 -0.142526,-0.0713 -0.294991,-0.1254 -0.427577,-0.21379 -0.16771,-0.1118 -0.247295,-0.33743 -0.427577,-0.42757 -0.127479,-0.0637 -0.326797,0.10078 -0.427578,0 -0.05039,-0.0504 0.06374,-0.18192 0,-0.21379 -0.127478,-0.0637 -0.292365,0.0451 -0.427577,0 -0.09561,-0.0319 -0.129933,-0.15789 -0.213788,-0.21379 -0.132586,-0.0884 -0.276406,-0.1634 -0.427577,-0.21379 -0.135212,-0.0451 -0.326796,0.10078 -0.427577,0 -0.112677,-0.11268 -0.125398,-0.29499 -0.213789,-0.42758 -0.111806,-0.16771 -0.337436,-0.24729 -0.427577,-0.42757 -0.03187,-0.0637 0.05039,-0.1634 0,-0.21379 -0.05039,-0.0504 -0.163398,0.0504 -0.213788,0 -0.05039,-0.0504 0.03187,-0.15005 0,-0.21379 -0.04507,-0.0901 -0.142526,-0.14253 -0.213789,-0.21379 -0.07126,-0.0713 -0.123647,-0.16872 -0.213788,-0.21379 -0.06374,-0.0319 -0.15005,0.0319 -0.213789,0 -0.09014,-0.0451 -0.123647,-0.16872 -0.213789,-0.21379 -0.06374,-0.0319 -0.163398,0.0504 -0.213788,0 -0.05039,-0.0504 0.03187,-0.15005 0,-0.21378 -0.09014,-0.18029 -0.337436,-0.2473 -0.427577,-0.42758 -0.03187,-0.0637 0.03187,-0.15005 0,-0.21379 -0.09475,-0.18949 -0.511622,-0.44675 -0.641366,-0.64137 -0.08839,-0.13258 -0.142525,-0.28505 -0.213788,-0.42757 -0.07126,-0.14253 -0.163398,-0.27641 -0.213789,-0.42758 -0.04507,-0.13521 0.06374,-0.3001 0,-0.42758 -0.04507,-0.0901 -0.168718,-0.12364 -0.213788,-0.21379 -0.0631,-0.1262 0.06163,-1.15947 0,-1.28273 -0.03187,-0.0637 -0.181919,0.0637 -0.213789,0 -0.0401,-0.0802 0,-1.15544 0,-1.28273 0,-0.68817 0.05039,0.36496 -0.213788,-0.42758 -0.04507,-0.13521 0.02795,-0.28781 0,-0.42757 -0.0442,-0.22098 -0.159133,-0.42274 -0.213789,-0.64137 -0.01728,-0.0691 0.03187,-0.15005 0,-0.21379 -0.09014,-0.18028 -0.337436,-0.24729 -0.427577,-0.42757 -0.03187,-0.0637 0.05039,-0.1634 0,-0.21379 -0.112676,-0.11268 -0.314901,-0.10111 -0.427577,-0.21379 -0.05039,-0.0504 0.02254,-0.14618 0,-0.21379 -0.05039,-0.15117 -0.163398,-0.2764 -0.213789,-0.42758 -0.04902,-0.14705 0.06307,-0.51522 0,-0.64136 -0.04507,-0.0901 -0.168717,-0.12365 -0.213788,-0.21379 -0.04693,-0.0939 0,-1.20006 0,-1.49652 0,-0.12169 0.01459,-0.83327 0,-0.85515 -0.08839,-0.13259 -0.314901,-0.10112 -0.427577,-0.21379 -0.01717,-0.0172 0,-0.90067 0,-1.06895 0,-2.28041 0,-4.56082 0,-6.84123 0,-1.28273 0,-2.56546 0,-3.84819 0,-0.24007 -0.05095,-1.34368 0,-1.49652 0.516186,-1.54856 -0.06164,0.33706 0.427577,-0.64137 0.03187,-0.0637 0,-0.14252 0,-0.21379 0,-0.14252 -0.04507,-0.29236 0,-0.42757 0.03187,-0.0956 0.168718,-0.12365 0.213788,-0.21379 0.03187,-0.0637 -0.03187,-0.15005 0,-0.21379 0.04507,-0.0901 0.168718,-0.12365 0.213789,-0.21379 0.03187,-0.0637 -0.02253,-0.14618 0,-0.21379 0.05039,-0.15117 0.163398,-0.2764 0.213789,-0.42757 0.02254,-0.0676 -0.05039,-0.1634 0,-0.21379 0.05039,-0.0504 0.163398,0.0504 0.213788,0 0.05039,-0.0504 -0.03187,-0.15005 0,-0.21379 0.04507,-0.0901 0.168718,-0.12365 0.213789,-0.21379 0.03187,-0.0637 -0.05039,-0.1634 0,-0.21379 0.112676,-0.11267 0.3149,-0.10111 0.427577,-0.21379 0.05039,-0.0504 -0.05039,-0.16339 0,-0.21379 0.05039,-0.0504 0.163398,0.0504 0.213788,0 0.05039,-0.0504 -0.03187,-0.15004 0,-0.21378 0.04507,-0.0901 0.157886,-0.12994 0.213789,-0.21379 0.08839,-0.13259 0.101112,-0.3149 0.213788,-0.42758 0.181686,-0.18168 0.459681,-0.24589 0.641366,-0.42758 0.05039,-0.0504 -0.03187,-0.15005 0,-0.21379 0.04507,-0.0901 0.168718,-0.12364 0.213788,-0.21378 0.03187,-0.0637 -0.03187,-0.15005 0,-0.21379 0.04507,-0.0901 0.168718,-0.12365 0.213789,-0.21379 0.03187,-0.0637 -0.05039,-0.1634 0,-0.21379 0.05039,-0.0504 0.150049,0.0319 0.213788,0 0.09014,-0.0451 0.123648,-0.16872 0.213789,-0.21379 0.06374,-0.0319 0.163398,0.0504 0.213788,0 0.05039,-0.0504 0,-0.14252 0,-0.21379 0.07126,-0.14252 0.101113,-0.3149 0.213789,-0.42757 0.05039,-0.0504 0.163398,0.0504 0.213789,0 0.05039,-0.0504 -0.03187,-0.15005 0,-0.21379 0.163716,-0.32744 0.380974,-0.16719 0.641365,-0.42758 0.05144,-0.0515 -0.05144,-0.80371 0,-0.85515 0.31457,0 0.163398,0.0504 0.427577,-0.21379 0.07126,-0.0713 0.142526,-0.14253 0.213789,-0.21379 0,-0.0713 -0.05039,-0.1634 0,-0.21379 0.112676,-0.11268 0.294991,-0.1254 0.427577,-0.21379 0.08385,-0.0559 0.142526,-0.14252 0.213788,-0.21379 0.348032,-0.34803 0.39926,-0.4894 0.855154,-0.64136 0.250686,-0.0836 0.619719,0.11772 0.855155,0 1.392126,-0.69606 -0.42617,-0.21426 0.855154,-0.64137 0.227174,-0.0757 0.62798,0.0757 0.855154,0 0.151171,-0.0504 0.276406,-0.16339 0.427574,-0.21379 0.12062,-0.0402 0.50089,0 0.64137,0 0.49884,0 0.99768,0 1.49652,0 0.14252,0 0.32679,0.10079 0.42758,0 0.20156,-0.20156 -0.25496,-0.72767 0,-0.85515 0.14252,-0.0713 0.28505,0.14253 0.42757,0.21379 1.03497,0.51748 -0.22535,-0.16902 0.85516,0.64136 0.12748,0.0956 0.2764,0.1634 0.42757,0.21379 0.0676,0.0225 0.1634,-0.0504 0.21379,0 0.11268,0.11268 0.13181,0.29094 0.21379,0.42758 0.94712,1.92482 0.064,-0.0108 0.64137,0.85515 0.0884,0.13259 0.10111,0.3149 0.21378,0.42758 0.0504,0.0504 0.1634,-0.0504 0.21379,0 0.11268,0.11268 0.1254,0.29499 0.21379,0.42758 0.20972,0.31458 0.64543,0.54057 0.85516,0.85515 0.0395,0.0593 -0.0504,0.1634 0,0.21379 0.11267,0.11268 0.2764,0.1634 0.42757,0.21379 0.19033,0.0634 0.3391,-0.14011 0.42758,0.21379 0.0519,0.2074 -0.0794,0.44287 0,0.64136 0.0749,0.18715 0.31577,0.25987 0.42758,0.42758 0.0395,0.0593 -0.0395,0.1545 0,0.21379 0.14252,0.14253 0.28505,0.28505 0.42757,0.42758 0,0.0713 -0.0319,0.15005 0,0.21378 0.23635,0.4727 0.13269,0.0663 0.42758,0.21379 0.17031,0.0851 0.25727,0.34243 0.42758,0.42758 0.0637,0.0319 0.15005,-0.0319 0.21379,0 0.4727,0.23635 0.0663,0.13269 0.21379,0.42758 0.23634,0.4727 0.13268,0.0663 0.42757,0.21379 0.0901,0.0451 0.14253,0.14252 0.21379,0.21378 0.0713,0.0713 0.11818,0.18192 0.21379,0.21379 0.2919,0.0973 0.99083,-0.0973 1.28273,0 0.0956,0.0319 0.12365,0.16872 0.21379,0.21379 0.13242,0.0662 0.7919,-0.0633 0.85515,0 0.11268,0.11268 0.10112,0.3149 0.21379,0.42758 0.10078,0.10078 0.3001,-0.0637 0.42758,0 0.0901,0.0451 0.12365,0.16872 0.21379,0.21379 0.0637,0.0319 0.15005,-0.0319 0.21379,0 0.0901,0.0451 0.12364,0.16872 0.21378,0.21379 0.13438,0.0672 0.72079,-0.0672 0.85516,0 0.0901,0.0451 0.12365,0.16871 0.21379,0.21378 0.0637,0.0319 0.15005,-0.0319 0.21379,0 0.0901,0.0451 0.14252,0.14253 0.21378,0.21379 0.0713,0.0713 0.14253,0.14253 0.21379,0.21379 0.14253,0.14253 0.28505,0.28505 0.42758,0.42758 0.0713,0.0713 0.16872,0.12365 0.21379,0.21379 0.0319,0.0637 -0.0504,0.1634 0,0.21379 0.10078,0.10078 0.32679,-0.10079 0.42758,0 0.0504,0.0504 -0.0319,0.15004 0,0.21378 0.0451,0.0901 0.16871,0.12365 0.21378,0.21379 0.0319,0.0637 -0.0504,0.1634 0,0.21379 0.0504,0.0504 0.1634,-0.0504 0.21379,0 0.0504,0.0504 -0.0319,0.15005 0,0.21379 0.44487,0.88974 -0.0148,-0.22855 0.42758,0.21379 0.0504,0.0504 -0.0504,0.1634 0,0.21379 0.0504,0.0504 0.18192,-0.0637 0.21379,0 0.0637,0.12748 -0.11859,0.34851 0,0.42757 0.17788,0.11859 0.43855,-0.0676 0.64136,0 0.0676,0.0225 -0.0504,0.1634 0,0.21379 0.0504,0.0504 0.1634,-0.0504 0.21379,0 0.0504,0.0504 -0.0504,0.1634 0,0.21379 0.11268,0.11268 0.33919,0.0812 0.42758,0.21379 0.42758,0.64137 -0.21379,0.21379 0,0.64137 0.0451,0.0901 0.16872,0.12364 0.21379,0.21378 0.0319,0.0637 -0.0319,0.15005 0,0.21379 0.0451,0.0901 0.16872,0.12365 0.21379,0.21379 0.0319,0.0637 -0.0225,0.14618 0,0.21379 0.15839,0.47519 0.26918,0.37997 0.42757,0.85515 0.0836,0.25069 -0.11771,0.61972 0,0.85516 0.0319,0.0637 0.1634,-0.0504 0.21379,0 0.0504,0.0504 -0.0504,0.1634 0,0.21379 0.11268,0.11267 0.3149,0.10111 0.42758,0.21378 0.0504,0.0504 0,0.14253 0,0.21379 0,0.14253 0,0.28505 0,0.42758 0,0.78389 0,1.56778 0,2.35167 0,0.0713 0,0.14253 0,0.21379 0,0.0713 -0.0504,0.1634 0,0.21379 0.11268,0.11268 0.2764,0.1634 0.42758,0.21379 0.0676,0.0225 0.16339,-0.0504 0.21378,0 0.0504,0.0504 0,0.14253 0,0.21379 0,0.14252 0,0.28505 0,0.42758 0,0.78389 0,1.56778 0,2.35167 0,0.19107 0.0341,1.00081 0,1.06894 -0.0451,0.0901 -0.18191,0.11818 -0.21378,0.21379 -0.0451,0.13521 0.0791,0.30899 0,0.42758 -0.0884,0.13258 -0.3001,0.11818 -0.42758,0.21379 -0.16125,0.12093 -0.30664,0.26632 -0.42758,0.42757 -0.0956,0.12748 -0.1254,0.29499 -0.21379,0.42758 -0.0559,0.0838 -0.16871,0.12365 -0.21379,0.21379 -0.0319,0.0637 0.0504,0.1634 0,0.21379 -0.0504,0.0504 -0.18191,-0.0637 -0.21378,0 -0.0637,0.12748 0,0.28505 0,0.42757 0,0.0713 0.0504,0.1634 0,0.21379 -0.44234,0.44234 0.0173,-0.67595 -0.42758,0.21379 -0.0319,0.0637 0.0319,0.15005 0,0.21379 -0.0451,0.0901 -0.16872,0.12365 -0.21379,0.21379 -0.14744,0.29489 0.25891,0.19123 -0.21379,0.42758 -0.29489,0.14744 -0.19123,-0.25891 -0.42757,0.21378 -0.0319,0.0637 0.0319,0.15005 0,0.21379 -0.48922,0.97843 0.0886,-0.90719 -0.42758,0.64137 -0.0225,0.0676 0.0504,0.16339 0,0.21379 -0.0504,0.0504 -0.1634,-0.0504 -0.21379,0 -0.0504,0.0504 0.0319,0.15005 0,0.21378 -0.0451,0.0901 -0.16872,0.12365 -0.21379,0.21379 -0.0637,0.12748 0.10078,0.3268 0,0.42758 -0.0504,0.0504 -0.1634,-0.0504 -0.21379,0 -0.24566,0.24566 -0.21379,0.37809 -0.21379,0.64137 0,0.0713 0.0225,0.14618 0,0.21378 -0.0504,0.15118 -0.17514,0.27299 -0.21378,0.42758 -0.0346,0.13827 0.0637,0.3001 0,0.42758 -0.0319,0.0637 -0.1634,-0.0504 -0.21379,0 -0.0504,0.0504 0.0504,0.1634 0,0.21379 -0.0504,0.0504 -0.14253,0 -0.21379,0 -0.0713,0.0713 -0.15789,0.12993 -0.21379,0.21379 -0.24566,0.36848 -0.21379,0.32316 -0.21379,0.64136 0,0.0713 0.0319,0.15005 0,0.21379 -0.44487,0.88974 0.0148,-0.22855 -0.42758,0.21379 -0.54,0.54001 -0.0821,0.24645 -0.21378,0.64136 -0.0504,0.15118 -0.1634,0.27641 -0.21379,0.42758 -0.0277,0.0832 0.0332,0.60819 0,0.64137 -0.44234,0.44233 0.0173,-0.67595 -0.42758,0.21378 -0.0855,0.17104 0.0855,0.47034 0,0.64137 -0.0451,0.0901 -0.16872,0.12365 -0.21379,0.21379 -0.0855,0.17103 0.0855,0.47033 0,0.64137 -0.11491,0.22981 -0.31267,0.41154 -0.42758,0.64136 -0.0319,0.0637 0.0319,0.15005 0,0.21379 -0.0451,0.0901 -0.15788,0.12993 -0.21378,0.21379 -0.17679,0.26517 -0.2508,0.58998 -0.42758,0.85515 -0.0559,0.0839 -0.16872,0.12365 -0.21379,0.21379 -0.0319,0.0637 0.0319,0.15005 0,0.21379 -0.0451,0.0901 -0.15788,0.12993 -0.21379,0.21379 -0.0884,0.13258 -0.1254,0.29499 -0.21379,0.42757 -0.1118,0.16771 -0.33743,0.2473 -0.42757,0.42758 -0.0319,0.0637 0.0504,0.1634 0,0.21379 -0.0504,0.0504 -0.1634,-0.0504 -0.21379,0 -0.0504,0.0504 0,0.14253 0,0.21379 -0.14253,0.0713 -0.3149,0.10111 -0.42758,0.21379 -0.0504,0.0504 0.0319,0.15005 0,0.21378 -0.0451,0.0901 -0.14252,0.14253 -0.21379,0.21379 0,0.14253 0.0529,0.29525 0,0.42758 -0.14252,0.21379 -0.28505,0.42758 -0.42757,0.64137 -0.0713,0 -0.1634,-0.0504 -0.21379,0 -0.0504,0.0504 0,0.14252 0,0.21379 -0.28505,0 -0.57011,0 -0.85516,0 z"
         style="fill:none;fill-rule:evenodd;stroke:#109e00;stroke-width:0.5;stroke-linecap:butt;stroke-linejoin:miter;stroke-miterlimit:4;stroke-dasharray:1.5, 1.50000000000000000;stroke-dashoffset:0;stroke-opacity:1" />
    </g>
  </g>
</svg>
