<?xml version="1.0" encoding="UTF-8" standalone="no"?>
<!-- Created with Inkscape (http://www.inkscape.org/) -->

<svg
   xmlns:dc="http://purl.org/dc/elements/1.1/"
   xmlns:cc="http://creativecommons.org/ns#"
   xmlns:rdf="http://www.w3.org/1999/02/22-rdf-syntax-ns#"
   xmlns:svg="http://www.w3.org/2000/svg"
   xmlns="http://www.w3.org/2000/svg"
   xmlns:sodipodi="http://sodipodi.sourceforge.net/DTD/sodipodi-0.dtd"
   xmlns:inkscape="http://www.inkscape.org/namespaces/inkscape"
   width="6cm"
   height="3cm"
   viewBox="0 0 212.59843 106.2992"
   id="svg2"
   version="1.1"
   inkscape:version="0.91 r13725"
   sodipodi:docname="Splainova_metoda.svg">
  <defs
     id="defs4">
    <marker
       inkscape:isstock="true"
       style="overflow:visible;"
       id="marker4197"
       refX="0.0"
       refY="0.0"
       orient="auto"
       inkscape:stockid="Arrow1Mend">
      <path
         transform="scale(0.4) rotate(180) translate(10,0)"
         style="fill-rule:evenodd;stroke:#000000;stroke-width:1pt;stroke-opacity:1;fill:#000000;fill-opacity:1"
         d="M 0.0,0.0 L 5.0,-5.0 L -12.5,0.0 L 5.0,5.0 L 0.0,0.0 z "
         id="path4199" />
    </marker>
    <marker
       inkscape:stockid="Arrow1Mend"
       orient="auto"
       refY="0.0"
       refX="0.0"
       id="marker4195"
       style="overflow:visible;"
       inkscape:isstock="true"
       inkscape:collect="always">
      <path
         id="path4197"
         d="M 0.0,0.0 L 5.0,-5.0 L -12.5,0.0 L 5.0,5.0 L 0.0,0.0 z "
         style="fill-rule:evenodd;stroke:#000000;stroke-width:1pt;stroke-opacity:1;fill:#000000;fill-opacity:1"
         transform="scale(0.4) rotate(180) translate(10,0)" />
    </marker>
  </defs>
  <sodipodi:namedview
     id="base"
     pagecolor="#ffffff"
     bordercolor="#666666"
     borderopacity="1.0"
     inkscape:pageopacity="0.0"
     inkscape:pageshadow="2"
     inkscape:zoom="6.18"
     inkscape:cx="97.535823"
     inkscape:cy="47.166416"
     inkscape:document-units="px"
     inkscape:current-layer="layer1"
     showgrid="true"
     units="cm"
     inkscape:window-width="1920"
     inkscape:window-height="1017"
     inkscape:window-x="-8"
     inkscape:window-y="-8"
     inkscape:window-maximized="1">
    <inkscape:grid
       type="xygrid"
       id="grid4136" />
  </sodipodi:namedview>
  <metadata
     id="metadata7">
    <rdf:RDF>
      <cc:Work
         rdf:about="">
        <dc:format>image/svg+xml</dc:format>
        <dc:type
           rdf:resource="http://purl.org/dc/dcmitype/StillImage" />
        <dc:title />
      </cc:Work>
    </rdf:RDF>
  </metadata>
  <g
     inkscape:label="Vrstva 1"
     inkscape:groupmode="layer"
     id="layer1"
     transform="translate(0,-946.06303)">
    <g
       id="g4243">
      <path
         inkscape:connector-curvature="0"
         id="path4138"
         d="M 10,1052.3622 10,952.36219"
         style="fill:none;fill-rule:evenodd;stroke:#000000;stroke-width:1.00000012;stroke-linecap:butt;stroke-linejoin:miter;stroke-miterlimit:4;stroke-dasharray:none;stroke-dashoffset:0;stroke-opacity:1;marker-end:url(#marker4195)" />
      <path
         inkscape:connector-curvature="0"
         id="path4140"
         d="m 0,1042.3622 180.00001,0"
         style="fill:none;fill-rule:evenodd;stroke:#000000;stroke-width:1.00000012;stroke-linecap:butt;stroke-linejoin:miter;stroke-miterlimit:4;stroke-dasharray:none;stroke-dashoffset:0;stroke-opacity:1;marker-end:url(#marker4197)" />
      <path
         inkscape:connector-curvature="0"
         id="path4144"
         d="m 10,1002.3622 3,-7.99997 1,13.99997 6,-20.99997 0,12 3,-9 3,16.99997 2,-20.99997 4,9 3,-14 2,11 3,-8 1,10 7,-10 2,9 2,-14 1,19 4,-13 5,7 1,-6 2,7 3,-8 0,14 6,-12 1,12.99997 1,-10.99997 2,19.99997 2,-16.99997 2,8.99997 3,-13.99997 0,14.99997 3,-5.99997 1,2 5,-3 -2,4 -3,5.99997 5,-3 -1,8 4,-6 0,8 4,-15.99997 0,18.99997 2,-6 0,10 3,-9 1,8 2,-7 1,7 3,-7 1,11 2,-9 2,7 1,-13 2,16 1,-9 1,1 2,-6 1,20 1,-10 1,2 0,-2 1,-7 2,12 0,-10 2,8 2,-10 1,9 3,-8 0,8 2,0 2,-12 0,14 3,-14 1,3 2,-7 1,13 2,-9 3,12 1,-12 0,2 c 0,0 4,-8 4,-8 l 0,18 2,-13 2,12 2,-12 1,12 2,-13"
         style="fill:none;fill-rule:evenodd;stroke:#109e00;stroke-width:1.00000012;stroke-linecap:butt;stroke-linejoin:miter;stroke-miterlimit:4;stroke-dasharray:none;stroke-dashoffset:0;stroke-opacity:1" />
      <path
         sodipodi:nodetypes="ccc"
         inkscape:connector-curvature="0"
         id="path4142"
         d="m 10,1002.3622 c 20.000002,-19.99997 60.000005,-19.99997 80,0 25.00001,25 55.00001,10 79.64286,10"
         style="fill:none;fill-rule:evenodd;stroke:#c50d0d;stroke-width:1.00000012;stroke-linecap:butt;stroke-linejoin:miter;stroke-miterlimit:4;stroke-dasharray:3.00000022, 3.00000022000000000;stroke-dashoffset:0;stroke-opacity:1;marker-end:" />
      <path
         inkscape:connector-curvature="0"
         id="path4454"
         d="m 110.00001,957.41809 15,0"
         style="fill:none;fill-rule:evenodd;stroke:#109e00;stroke-width:1.1117686;stroke-linecap:butt;stroke-linejoin:miter;stroke-miterlimit:4;stroke-dasharray:none;stroke-dashoffset:0;stroke-opacity:1" />
      <path
         inkscape:connector-curvature="0"
         id="path4456"
         d="m 110.00001,967.30633 15,0"
         style="fill:none;fill-rule:evenodd;stroke:#c50d0d;stroke-width:1.1117686;stroke-linecap:butt;stroke-linejoin:miter;stroke-miterlimit:4;stroke-dasharray:3.33530552, 3.33530551999999990;stroke-dashoffset:0;stroke-opacity:1;marker-end:" />
    </g>
    <text
       xml:space="preserve"
       style="font-style:normal;font-weight:normal;font-size:6.25px;line-height:125%;font-family:sans-serif;text-align:start;letter-spacing:0px;word-spacing:0px;text-anchor:start;fill:#000000;fill-opacity:1;stroke:none;stroke-width:1px;stroke-linecap:butt;stroke-linejoin:miter;stroke-opacity:1"
       x="130.00002"
       y="960.36224"
       id="text4458"
       sodipodi:linespacing="125%"><tspan
         sodipodi:role="line"
         id="tspan4460"
         x="130.00002"
         y="960.36224">\footnotesize sign\'{a}l se \v{s}umem</tspan></text>
    <text
       sodipodi:linespacing="125%"
       id="text4462"
       y="970.36237"
       x="130.00002"
       style="font-style:normal;font-weight:normal;font-size:6.25px;line-height:125%;font-family:sans-serif;text-align:start;letter-spacing:0px;word-spacing:0px;text-anchor:start;fill:#000000;fill-opacity:1;stroke:none;stroke-width:1px;stroke-linecap:butt;stroke-linejoin:miter;stroke-opacity:1"
       xml:space="preserve"><tspan
         y="970.36237"
         x="130.00002"
         id="tspan4464"
         sodipodi:role="line">\footnotesize aproximovan\'{y} sign\'{a}l</tspan></text>
  </g>
</svg>
