<?xml version="1.0" encoding="UTF-8" standalone="no"?>
<!-- Created with Inkscape (http://www.inkscape.org/) -->

<svg
   xmlns:dc="http://purl.org/dc/elements/1.1/"
   xmlns:cc="http://creativecommons.org/ns#"
   xmlns:rdf="http://www.w3.org/1999/02/22-rdf-syntax-ns#"
   xmlns:svg="http://www.w3.org/2000/svg"
   xmlns="http://www.w3.org/2000/svg"
   xmlns:sodipodi="http://sodipodi.sourceforge.net/DTD/sodipodi-0.dtd"
   xmlns:inkscape="http://www.inkscape.org/namespaces/inkscape"
   id="svg2"
   version="1.1"
   inkscape:version="0.91 r13725"
   xml:space="preserve"
   width="320"
   height="140"
   viewBox="0 0 320 140"
   sodipodi:docname="Vzorkovani_prekryvani.svg"><metadata
     id="metadata8"><rdf:RDF><cc:Work
         rdf:about=""><dc:format>image/svg+xml</dc:format><dc:type
           rdf:resource="http://purl.org/dc/dcmitype/StillImage" /><dc:title /></cc:Work></rdf:RDF></metadata><defs
     id="defs6"><marker
       inkscape:stockid="Arrow1Mend"
       orient="auto"
       refY="0"
       refX="0"
       id="marker6520"
       style="overflow:visible"
       inkscape:isstock="true"><path
         id="path6522"
         d="M 0,0 5,-5 -12.5,0 5,5 0,0 Z"
         style="fill:#000000;fill-opacity:1;fill-rule:evenodd;stroke:#000000;stroke-width:1pt;stroke-opacity:1"
         transform="matrix(-0.4,0,0,-0.4,-4,0)"
         inkscape:connector-curvature="0" /></marker><marker
       inkscape:stockid="Arrow1Mend"
       orient="auto"
       refY="0"
       refX="0"
       id="marker6474"
       style="overflow:visible"
       inkscape:isstock="true"><path
         id="path6476"
         d="M 0,0 5,-5 -12.5,0 5,5 0,0 Z"
         style="fill:#000000;fill-opacity:1;fill-rule:evenodd;stroke:#000000;stroke-width:1pt;stroke-opacity:1"
         transform="matrix(-0.4,0,0,-0.4,-4,0)"
         inkscape:connector-curvature="0" /></marker><marker
       inkscape:stockid="Arrow2Lend"
       orient="auto"
       refY="0"
       refX="0"
       id="Arrow2Lend"
       style="overflow:visible"
       inkscape:isstock="true"><path
         id="path5260"
         style="fill:#000000;fill-opacity:1;fill-rule:evenodd;stroke:#000000;stroke-width:0.625;stroke-linejoin:round;stroke-opacity:1"
         d="M 8.7185878,4.0337352 -2.2072895,0.01601326 8.7185884,-4.0017078 c -1.7454984,2.3720609 -1.7354408,5.6174519 -6e-7,8.035443 z"
         transform="matrix(-1.1,0,0,-1.1,-1.1,0)"
         inkscape:connector-curvature="0" /></marker><clipPath
       clipPathUnits="userSpaceOnUse"
       id="clipPath18"><path
         d="m 0,64 0,2816 4350,0 L 4350,64 0,64 Z"
         id="path20"
         inkscape:connector-curvature="0" /></clipPath><clipPath
       clipPathUnits="userSpaceOnUse"
       id="clipPath62"><path
         d="m 0,64 0,2816 4350,0 L 4350,64 0,64 Z m 2910.8,1917.4 0,36 -91.2,0 72,-18 -72,-18 91.2,0 z"
         id="path64"
         inkscape:connector-curvature="0"
         style="clip-rule:evenodd" /></clipPath><clipPath
       clipPathUnits="userSpaceOnUse"
       id="clipPath72"><path
         d="m 0,64 0,2816 4350,0 L 4350,64 0,64 Z"
         id="path74"
         inkscape:connector-curvature="0" /></clipPath><clipPath
       clipPathUnits="userSpaceOnUse"
       id="clipPath82"><path
         d="m 0,64 0,2816 4350,0 L 4350,64 0,64 Z m 2289.8,2619.4 -36,0 0,-91.2 18,72 18,-72 0,91.2 z"
         id="path84"
         inkscape:connector-curvature="0"
         style="clip-rule:evenodd" /></clipPath><clipPath
       clipPathUnits="userSpaceOnUse"
       id="clipPath92"><path
         d="m 0,64 4350,0 0,2816 L 0,2880 0,64 Z"
         id="path94"
         inkscape:connector-curvature="0" /></clipPath><clipPath
       clipPathUnits="userSpaceOnUse"
       id="clipPath148"><path
         d="m 0,64 0,2816 4350,0 L 4350,64 0,64 Z"
         id="path150"
         inkscape:connector-curvature="0" /></clipPath><clipPath
       clipPathUnits="userSpaceOnUse"
       id="clipPath154"><path
         d="m 0,64 0,2816 4350,0 L 4350,64 0,64 Z m 4350.8,1917.4 0,36 -91.2,0 72,-18 -72,-18 91.2,0 z"
         id="path156"
         inkscape:connector-curvature="0"
         style="clip-rule:evenodd" /></clipPath><clipPath
       clipPathUnits="userSpaceOnUse"
       id="clipPath164"><path
         d="m 0,64 4350,0 0,2816 L 0,2880 0,64 Z"
         id="path166"
         inkscape:connector-curvature="0" /></clipPath><clipPath
       clipPathUnits="userSpaceOnUse"
       id="clipPath174"><path
         d="m 0,64 0,2816 4350,0 L 4350,64 0,64 Z m 3729.8,2619.4 -36,0 0,-91.2 18,72 18,-72 0,91.2 z"
         id="path176"
         inkscape:connector-curvature="0"
         style="clip-rule:evenodd" /></clipPath><clipPath
       clipPathUnits="userSpaceOnUse"
       id="clipPath184"><path
         d="m 0,64 4350,0 0,2816 L 0,2880 0,64 Z"
         id="path186"
         inkscape:connector-curvature="0" /></clipPath><clipPath
       clipPathUnits="userSpaceOnUse"
       id="clipPath206"><path
         d="m 0,64 0,2816 4350,0 L 4350,64 0,64 Z m 1569.8,1886.8 0,55.8 -132,0 112.8,-28.2 -112.8,-27.6 132,0 z"
         id="path208"
         inkscape:connector-curvature="0"
         style="clip-rule:evenodd" /></clipPath><clipPath
       clipPathUnits="userSpaceOnUse"
       id="clipPath216"><path
         d="m 0,64 4350,0 0,2816 L 0,2880 0,64 Z"
         id="path218"
         inkscape:connector-curvature="0" /></clipPath><clipPath
       clipPathUnits="userSpaceOnUse"
       id="clipPath226"><path
         d="m 0,64 0,2816 4350,0 L 4350,64 0,64 Z m 674,2544.4 -55.801,0 0,-131.4 28.199,112.2 L 674,2477 l 0,131.4 z"
         id="path228"
         inkscape:connector-curvature="0"
         style="clip-rule:evenodd" /></clipPath><clipPath
       clipPathUnits="userSpaceOnUse"
       id="clipPath236"><path
         d="m 0,64 4350,0 0,2816 L 0,2880 0,64 Z"
         id="path238"
         inkscape:connector-curvature="0" /></clipPath></defs><sodipodi:namedview
     pagecolor="#ffffff"
     bordercolor="#666666"
     borderopacity="1"
     objecttolerance="10"
     gridtolerance="10"
     guidetolerance="10"
     inkscape:pageopacity="0"
     inkscape:pageshadow="2"
     inkscape:window-width="1920"
     inkscape:window-height="1017"
     id="namedview4"
     showgrid="true"
     inkscape:zoom="2.6312556"
     inkscape:cx="120.57407"
     inkscape:cy="82.677457"
     inkscape:window-x="-8"
     inkscape:window-y="-8"
     inkscape:window-maximized="1"
     inkscape:current-layer="g10"
     showguides="true"><inkscape:grid
       type="xygrid"
       id="grid4234" /></sodipodi:namedview><g
     id="g10"
     inkscape:groupmode="layer"
     inkscape:label="ink_ext_XXXXXX"
     transform="matrix(1.25,0,0,-1.25,0,140)"><text
   style="font-variant:normal;font-weight:normal;font-size:-0.12px;font-family:Arial;-inkscape-font-specification:Arial;writing-mode:lr-tb;fill:#000000;fill-opacity:1;fill-rule:nonzero;stroke:none"
   id="text386"
   x="209.2802"
   y="22.400003"><tspan
     x="209.2802"
     y="22.400003"
     id="tspan388" /></text>






<text
   style="font-variant:normal;font-weight:normal;font-size:-0.12px;font-family:Arial;-inkscape-font-specification:Arial;writing-mode:lr-tb;fill:#000000;fill-opacity:1;fill-rule:nonzero;stroke:none"
   id="text420"
   x="208.79984"
   y="6.4398341"><tspan
     x="208.79984"
     y="6.4398341"
     id="tspan422" /></text>






<text
   style="font-variant:normal;font-weight:normal;font-size:-0.12px;font-family:Arial;-inkscape-font-specification:Arial;writing-mode:lr-tb;fill:#000000;fill-opacity:1;fill-rule:nonzero;stroke:none"
   id="text508"
   x="284.04022"
   y="278.84"><tspan
     x="284.04022"
     y="278.84"
     id="tspan510" /></text>






<text
   style="font-variant:normal;font-weight:normal;font-size:-0.12px;font-family:Arial;-inkscape-font-specification:Arial;writing-mode:lr-tb;fill:#000000;fill-opacity:1;fill-rule:nonzero;stroke:none"
   id="text528"
   x="131.04042"
   y="278.84"><tspan
     x="131.04042 45.600636"
     y="278.84"
     sodipodi:role="line"
     id="tspan530" /></text>






<text
   style="font-variant:normal;font-weight:normal;font-size:-0.12px;font-family:Arial;-inkscape-font-specification:Arial;writing-mode:lr-tb;fill:#000000;fill-opacity:1;fill-rule:nonzero;stroke:none"
   id="text544"
   x="347.04056"
   y="278.84"><tspan
     x="347.04056"
     y="278.84"
     id="tspan546" /></text>






<text
   xml:space="preserve"
   style="font-style:normal;font-weight:normal;font-size:10px;line-height:125%;font-family:sans-serif;text-align:start;letter-spacing:0px;word-spacing:0px;text-anchor:start;fill:#000000;fill-opacity:1;stroke:none;stroke-width:1px;stroke-linecap:butt;stroke-linejoin:miter;stroke-opacity:1"
   x="30.4"
   y="-64"
   id="text5777"
   sodipodi:linespacing="125%"
   transform="scale(1,-1)"><tspan
     sodipodi:role="line"
     id="tspan5779"
     x="30.4"
     y="-64" /></text>




















<path
   style="fill:none;fill-rule:evenodd;stroke:#000000;stroke-width:0.4;stroke-linecap:butt;stroke-linejoin:miter;stroke-miterlimit:7.27272749;stroke-dasharray:1.2,1.2;stroke-dashoffset:0;stroke-opacity:1"
   d="m 28.783008,103.80469 0,-64.000003"
   id="path4426"
   inkscape:connector-curvature="0" /><path
   inkscape:connector-curvature="0"
   id="path4428"
   d="m 38.3832,103.80469 0,-64.000003"
   style="fill:none;fill-rule:evenodd;stroke:#000000;stroke-width:0.4;stroke-linecap:butt;stroke-linejoin:miter;stroke-miterlimit:7.27272749;stroke-dasharray:1.2,1.2;stroke-dashoffset:0;stroke-opacity:1" /><path
   d="m 38.029246,65.019977 c -1.45667,-2.13367 -6.8667,-0.82601 -12.08332,2.92161 -5.21722,3.746401 -8.26497,8.514721 -6.80892,10.64775 1.45667,2.13367 6.8667,0.82602 12.08332,-2.92099 5.21722,-3.74765 8.26497,-8.514709 6.80892,-10.64837 z"
   style="fill:#ffffff;fill-opacity:1;stroke:#000000;stroke-width:0.8;stroke-linecap:butt;stroke-linejoin:miter;stroke-miterlimit:7.27272749;stroke-dasharray:none;stroke-opacity:1"
   id="path6444"
   inkscape:connector-curvature="0" /><path
   inkscape:connector-curvature="0"
   id="path4422"
   style="fill:#ffffff;fill-opacity:1;stroke:#000000;stroke-width:0.8;stroke-linecap:butt;stroke-linejoin:miter;stroke-miterlimit:7.27272749;stroke-dasharray:none;stroke-opacity:1"
   d="m 48.029246,65.019977 c -1.45667,-2.13367 -6.8667,-0.82601 -12.08332,2.92161 -5.21722,3.746401 -8.26497,8.514721 -6.80892,10.64775 1.45667,2.13367 6.8667,0.82602 12.08332,-2.92099 5.21722,-3.74765 8.26497,-8.514709 6.80892,-10.64837 z" /><path
   inkscape:connector-curvature="0"
   id="path4430"
   d="m 124.57012,103.80469 0,-64.000003"
   style="fill:none;fill-rule:evenodd;stroke:#000000;stroke-width:0.4;stroke-linecap:butt;stroke-linejoin:miter;stroke-miterlimit:7.27272749;stroke-dasharray:1.2,1.2;stroke-dashoffset:0;stroke-opacity:1" /><path
   inkscape:connector-curvature="0"
   id="path4434"
   style="fill:#ffffff;fill-opacity:1;stroke:#000000;stroke-width:0.8;stroke-linecap:butt;stroke-linejoin:miter;stroke-miterlimit:7.27272749;stroke-dasharray:none;stroke-opacity:1"
   d="m 124.21664,65.019977 c -1.45667,-2.13367 -6.8667,-0.82601 -12.08332,2.92161 -5.21722,3.746401 -8.26497,8.514721 -6.80892,10.64775 1.45667,2.13367 6.8667,0.82602 12.08332,-2.92099 5.21722,-3.74765 8.26497,-8.514709 6.80892,-10.64837 z" /><path
   d="m 143.81636,65.019977 c -1.45667,-2.13367 -6.8667,-0.82601 -12.08332,2.92161 -5.21722,3.746401 -8.26497,8.514721 -6.80892,10.64775 1.45667,2.13367 6.8667,0.82602 12.08332,-2.92099 5.21722,-3.74765 8.26497,-8.514709 6.80892,-10.64837 z"
   style="fill:#ffffff;fill-opacity:1;stroke:#000000;stroke-width:0.8;stroke-linecap:butt;stroke-linejoin:miter;stroke-miterlimit:7.27272749;stroke-dasharray:none;stroke-opacity:1"
   id="path4436"
   inkscape:connector-curvature="0" /><path
   style="fill:none;fill-rule:evenodd;stroke:#000000;stroke-width:0.4;stroke-linecap:butt;stroke-linejoin:miter;stroke-miterlimit:7.27272749;stroke-dasharray:1.2,1.2;stroke-dashoffset:0;stroke-opacity:1"
   d="m 212.1192,103.80469 0,-64.000003"
   id="path4438"
   inkscape:connector-curvature="0" /><path
   inkscape:connector-curvature="0"
   id="path4440"
   d="m 222.51928,103.80469 0,-64.000003"
   style="fill:none;fill-rule:evenodd;stroke:#000000;stroke-width:0.4;stroke-linecap:butt;stroke-linejoin:miter;stroke-miterlimit:7.27272749;stroke-dasharray:1.2,1.2;stroke-dashoffset:0;stroke-opacity:1" /><path
   d="m 211.76552,65.019977 c -1.45667,-2.13367 -6.8667,-0.82601 -12.08332,2.92161 -5.21722,3.746401 -8.26497,8.514721 -6.80892,10.64775 1.45667,2.13367 6.8667,0.82602 12.08332,-2.92099 5.21722,-3.74765 8.26497,-8.514709 6.80892,-10.64837 z"
   style="fill:#ffffff;fill-opacity:1;stroke:#000000;stroke-width:0.8;stroke-linecap:butt;stroke-linejoin:miter;stroke-miterlimit:7.27272749;stroke-dasharray:none;stroke-opacity:1"
   id="path4442"
   inkscape:connector-curvature="0" /><path
   inkscape:connector-curvature="0"
   id="path4444"
   style="fill:#ffffff;fill-opacity:1;stroke:#000000;stroke-width:0.8;stroke-linecap:butt;stroke-linejoin:miter;stroke-miterlimit:7.27272749;stroke-dasharray:none;stroke-opacity:1"
   d="m 241.76552,65.019977 c -1.45667,-2.13367 -6.8667,-0.82601 -12.08332,2.92161 -5.21722,3.746401 -8.26497,8.514721 -6.80892,10.64775 1.45667,2.13367 6.8667,0.82602 12.08332,-2.92099 5.21722,-3.74765 8.26497,-8.514709 6.80892,-10.64837 z" /><text
   xml:space="preserve"
   style="font-style:normal;font-weight:normal;font-size:10px;line-height:125%;font-family:sans-serif;text-align:center;letter-spacing:0px;word-spacing:0px;text-anchor:middle;fill:#000000;fill-opacity:1;stroke:none;stroke-width:1px;stroke-linecap:butt;stroke-linejoin:miter;stroke-opacity:1"
   x="32.583008"
   y="-107.80469"
   id="text4446"
   sodipodi:linespacing="125%"
   transform="scale(1,-1)"><tspan
     sodipodi:role="line"
     id="tspan4448"
     x="32.583008"
     y="-107.80469"
     style="font-size:4px">\textbf A)</tspan></text>





<text
   xml:space="preserve"
   style="font-style:normal;font-weight:normal;font-size:10px;line-height:125%;font-family:sans-serif;text-align:center;letter-spacing:0px;word-spacing:0px;text-anchor:middle;fill:#000000;fill-opacity:1;stroke:none;stroke-width:1px;stroke-linecap:butt;stroke-linejoin:miter;stroke-opacity:1"
   x="124.37012"
   y="-107.80469"
   id="text4450"
   sodipodi:linespacing="125%"
   transform="scale(1,-1)"><tspan
     sodipodi:role="line"
     id="tspan4452"
     x="124.37012"
     y="-107.80469"
     style="font-size:4px">\textbf B)</tspan></text>





<text
   xml:space="preserve"
   style="font-style:normal;font-weight:normal;font-size:4px;line-height:125%;font-family:sans-serif;text-align:center;letter-spacing:0px;word-spacing:0px;text-anchor:middle;fill:#000000;fill-opacity:1;stroke:none;stroke-width:1px;stroke-linecap:butt;stroke-linejoin:miter;stroke-opacity:1"
   x="216.31934"
   y="-107.80469"
   id="text4454"
   sodipodi:linespacing="125%"
   transform="scale(1,-1)"><tspan
     sodipodi:role="line"
     id="tspan4456"
     x="216.31934"
     y="-107.80469">\textbf C)</tspan></text>





<text
   xml:space="preserve"
   style="font-style:normal;font-weight:normal;font-size:10px;line-height:125%;font-family:sans-serif;text-align:center;letter-spacing:0px;word-spacing:0px;text-anchor:middle;fill:#000000;fill-opacity:1;stroke:none;stroke-width:1px;stroke-linecap:butt;stroke-linejoin:miter;stroke-opacity:1"
   x="15.049082"
   y="16.339001"
   id="text4214"
   sodipodi:linespacing="125%"
   transform="scale(1,-1)"><tspan
     sodipodi:role="line"
     id="tspan4216"
     x="15.049082"
     y="16.339001" /></text>


<text
   xml:space="preserve"
   style="font-style:normal;font-weight:normal;font-size:10px;line-height:125%;font-family:sans-serif;text-align:center;letter-spacing:0px;word-spacing:0px;text-anchor:middle;fill:#000000;fill-opacity:1;stroke:none;stroke-width:1px;stroke-linecap:butt;stroke-linejoin:miter;stroke-opacity:1"
   x="32"
   y="-24"
   id="text4286"
   sodipodi:linespacing="125%"
   transform="scale(1,-1)"><tspan
     sodipodi:role="line"
     id="tspan4288"
     x="32"
     y="-24"
     style="font-size:4px">$\Delta x&gt;\frac{1}{2W_{u}}$</tspan></text>


<text
   xml:space="preserve"
   style="font-style:normal;font-weight:normal;font-size:10px;line-height:125%;font-family:sans-serif;text-align:center;letter-spacing:0px;word-spacing:0px;text-anchor:middle;fill:#000000;fill-opacity:1;stroke:none;stroke-width:1px;stroke-linecap:butt;stroke-linejoin:miter;stroke-opacity:1"
   x="32"
   y="-8"
   id="text4290"
   sodipodi:linespacing="125%"
   transform="scale(1,-1)"><tspan
     sodipodi:role="line"
     id="tspan4292"
     x="32"
     y="-8"
     style="font-size:4px">$\Delta x&gt;\frac{1}{2W_{u}}$</tspan></text>


<text
   transform="scale(1,-1)"
   sodipodi:linespacing="125%"
   id="text4294"
   y="-24"
   x="124.12578"
   style="font-style:normal;font-weight:normal;font-size:10px;line-height:125%;font-family:sans-serif;text-align:center;letter-spacing:0px;word-spacing:0px;text-anchor:middle;fill:#000000;fill-opacity:1;stroke:none;stroke-width:1px;stroke-linecap:butt;stroke-linejoin:miter;stroke-opacity:1"
   xml:space="preserve"><tspan
     style="font-size:4px"
     y="-24"
     x="124.12578"
     id="tspan4296"
     sodipodi:role="line">$\Delta x=\frac{1}{2W_{u}}$</tspan></text>


<text
   transform="scale(1,-1)"
   sodipodi:linespacing="125%"
   id="text4298"
   y="-8"
   x="124.12578"
   style="font-style:normal;font-weight:normal;font-size:10px;line-height:125%;font-family:sans-serif;text-align:center;letter-spacing:0px;word-spacing:0px;text-anchor:middle;fill:#000000;fill-opacity:1;stroke:none;stroke-width:1px;stroke-linecap:butt;stroke-linejoin:miter;stroke-opacity:1"
   xml:space="preserve"><tspan
     style="font-size:4px"
     y="-8"
     x="124.12578"
     id="tspan4300"
     sodipodi:role="line">$\Delta x=\frac{1}{2W_{u}}$</tspan></text>


<text
   xml:space="preserve"
   style="font-style:normal;font-weight:normal;font-size:10px;line-height:125%;font-family:sans-serif;text-align:center;letter-spacing:0px;word-spacing:0px;text-anchor:middle;fill:#000000;fill-opacity:1;stroke:none;stroke-width:1px;stroke-linecap:butt;stroke-linejoin:miter;stroke-opacity:1"
   x="216.12578"
   y="-24"
   id="text4302"
   sodipodi:linespacing="125%"
   transform="scale(1,-1)"><tspan
     sodipodi:role="line"
     id="tspan4304"
     x="216.12578"
     y="-24"
     style="font-size:4px">$\Delta x&lt;\frac{1}{2W_{u}}$</tspan></text>


<text
   xml:space="preserve"
   style="font-style:normal;font-weight:normal;font-size:10px;line-height:125%;font-family:sans-serif;text-align:center;letter-spacing:0px;word-spacing:0px;text-anchor:middle;fill:#000000;fill-opacity:1;stroke:none;stroke-width:1px;stroke-linecap:butt;stroke-linejoin:miter;stroke-opacity:1"
   x="216.12578"
   y="-8"
   id="text4306"
   sodipodi:linespacing="125%"
   transform="scale(1,-1)"><tspan
     sodipodi:role="line"
     id="tspan4308"
     x="216.12578"
     y="-8"
     style="font-size:4px">$\Delta x&lt;\frac{1}{2W_{u}}$</tspan></text>


</g></svg>